<mxfile host="app.diagrams.net" modified="2024-04-28T23:34:09.607Z" agent="Mozilla/5.0 (Windows NT 10.0; Win64; x64) AppleWebKit/537.36 (KHTML, like Gecko) Chrome/124.0.0.0 Safari/537.36" etag="_7700ihsQrZCr57lYw9U" version="24.3.1" type="device">
  <diagram name="Page-1" id="A10kq8jLyQQmBX0PDqUO">
    <mxGraphModel dx="1050" dy="682" grid="1" gridSize="10" guides="1" tooltips="1" connect="1" arrows="1" fold="1" page="1" pageScale="1" pageWidth="850" pageHeight="1100" math="0" shadow="0">
      <root>
        <mxCell id="0" />
        <mxCell id="1" parent="0" />
        <mxCell id="ffs45p9ADlgt0rEeM66C-2" value="" style="endArrow=classic;html=1;rounded=0;strokeColor=#6c8ebf;strokeWidth=12;fillColor=#dae8fc;" edge="1" parent="1">
          <mxGeometry width="50" height="50" relative="1" as="geometry">
            <mxPoint x="120" y="220" as="sourcePoint" />
            <mxPoint x="120" y="320" as="targetPoint" />
          </mxGeometry>
        </mxCell>
        <mxCell id="ffs45p9ADlgt0rEeM66C-3" value="" style="shape=image;verticalLabelPosition=bottom;labelBackgroundColor=default;verticalAlign=top;aspect=fixed;imageAspect=0;image=data:image/png,iVBORw0KGgoAAAANSUhEUgAAAYIAAACCCAYAAABLjc89AAAAAXNSR0IArs4c6QAAIABJREFUeF7sXQd4HNXVPW/6FnVZxd1gXMHGYHpiCCShJaEYTAmpPwQSIIRO6IFQEwjFdDA1NBswIRC6KaYbE3CRwUVykWSra+v093/3za60luWKHGzY4eOTpd2dnbkzc8+79557LkN+y1sgb4G8BfIW+E5bgH2nzz5/8nkL5C2Qt0DeAsgDQf4myFsgb4G8Bb7jFsgDwXf8Bsifft4CeQvkLZAHgvw9kLdA3gJ5C3zHLZAHgu/4DZA//bwF8hbIWyAPBPl7IG+BvAXyFviOWyAPBN/xGyB/+nkL5C2Qt0AeCPL3QN4CeQvkLfAdt0AeCL7jN0D+9PMWyFsgb4E8EOTvgbwF8hbIW+A7boE8EHzHb4D86ectkLdA3gJ5IMjfA3kL5C2wXVpgAedaZyt2aGz1xjc21Fc3rF4zYs2aNaOamlsGplKpYT4k17Isw/d9ZP+nE5VlGaokQ5L9lCoB5aVF9VWVlYv7V1Z+VlZc3FBVWb5q8IDid3cpQowx5m2XxtnMg84DwWYaLP/2vAXyFvhmLLCS89CC+c0/Xby8fu+vltROWrB0xfh2C4onadA0A1rIgCJr4MKrSWCSBMfx4DOA+bzroBnjYIxBYhyumYQiS5DB4ToOrHQKzHcQNWQURbTlu+w07JNRw4fMHrfToFd36V9Q882c+db/1jwQbH0b578hb4G8Bb6GBd6vjY36aG7NH2fPmX/a0sZmZkTLECkph2m7kCSQlwe4BB8cvg94vg+XA5xzyJICSAyMQzh/2ujvtDHuI2RocG0HruuKvxNI0J4kcKgSB3NNWKl2RGSOUcMHv/m9PSY8O37U6EdG9WPxr3FK29xH80CwzV2S/AHlLZC3AFlgXgsffe9DT922ZNWaH6YchlBxBRxJR9IFfGYIx68wFwp8wOfwPC+IBmRy4xmn7/ldxuSMUIM2PwAGcvwCMHxwihAIMJgE3/cA7gmgkJkH5jnQmAfupmAlYuhXUojDDvnhWaf+cOxt35YrlQeCb8uVzJ9H3gLfIgtcP33O1f+Z/cmlSrgYDmeU6IGsaogn0wgXlSBtM3iyDNM0URAxYHe0Q1MlAQQePIDJkBgDc/0AEhiDxxh8mQWRgg/InCIIvyuiyEYW4mcOYHDPgcwATZHhew5s24QiySgysOiq8085evdytt2njPJA8C16ePKnkrfA9m4Bzjk79cYnX/piRfshiFbAlQwoiiJy+SFVRiRsYFXjaoSiJfAlGdGSYrS3tKCAogDfhU//MR8+ZxQYQHJ9SLTql2S4EuBlPJ7iZaIBAo0NbBQVEFhQWomKzPRvSiNJkoSoypFqrMVZ/3fcGSfsP/KO7dn2eSDYnq9e/tjzFviWWeD31z78ck1j/GBeNBhxT4WkhZBOJVCgAiEFSMXbUVJWBsvlIhpoa2tB//79kYynhbNWQwbiyTg0VYbCpEyRmFJFgJcBAiocy/QHKiB3rf7XNiSljGjjvBsoaP8UTQS1BAad+dB9E26sEb+b8tMzTvjxhO0WDPJA8C17kPKnk7fA9mqBGa9/cfoDz782NaX1g6WXwtciYvWtwkUESXQ0rkBJQcjVNWVx2rRHuBxyv4oKtHbGkXY06JEiJB0LmqbAMuOIhELwbUrzdAOBn4kAJC8oIIutNzDoYhkF0UAuAGR/Z9yDITHwdDsQX40rzjvtyAPHDX5+e7R/Hgi2x6uWP+a8Bb5lFqCU0E9OvcpnZUMQ42E4WhGSySSiCkdUshCyW63/O/GoX+6924CXkoDrt0P/8NNPT3xsxgu3SNFKzVTKkAIVkl3ohgwNLhzLhCobIk1ExWCPispUYuYeJK70CgS5jKKsiXOBgP5GaSEqNLu+D8tyUBSSEeYJlGn+smuuO2PsMMbM7e3y5IFge7ti+ePNW+BbaIFX59b/7Krb7nseJYPgGyWgIjHVBQwnhogXs/5x5WmDhxewpp6nvqzZHHnO1bfUdGoDmK2WIO44iER1eIlWqArVDVRwyAIMqHbAYSNgnCrdu8qJCHoDguwbsykhEUQIIAC4YgCeCb+zEeW6j5MmH3L6r344/s7t7RLlgWB7u2L5481b4FtogQdeW/inh5975R9K6RBYMOB6HiTPgpJoxDmnnHDUURPKZ67vtB/+z8d/uPeFOXdYkWrI4YhICxncFH0Anq/B5xI8RukhFxLsIBLg2lpAENBIReGg168R4CFSRF7ANKKaA1NgE9D4LspDHF6sEROGVX946wU/32d7u0R5INjerlj+ePMW+BZa4IFZS//00DOv/MMJ9YMvh6AoElQvCa91OWbfe94G/VQb50VH/+nelqReqXiKCt+zEZZSkMhh+7pw/y6RSJkXAIHoOzACx56pGfQGBNkIQNBNRZ8B9Ri4ol+BNi5rAghE5JFqRwFLI+LH/WsvOWfM+AHGl9vTZcoDwfZ0tfLHmrfAt9QCD8yq/dP901/6h1Q8ADZUaBKD6sa5nlydfOX2swo2dNpNnEdPv/qZT5fH2AhXMwQQFKgWfNsG9zR4TBYRAQGBzAMg4NwQuySZiSwzKJsWyv0uAoBspJAtGGdf9ziDJxmA7yIEC6oTB+JrcPvNfx09rpwt2p4uVR4ItqerlT/WvAW+pRZ48O2lZ9391Mu3SMWD4ECByjg0N87lzlXszbs3HBGs4rxs8qm3N0slg5nFZDDJA8w2GIrSKxAEJlSELIWIDjLpoN6AINuLTGCRfT37k4QowILUkAEXqpeAn1iDqX+/Og8E67tPiRWQfY2RoEd+y1tgK1iA7rP8/bUVDLuVd/nwrEVn3T39tVtYyWBaW0MhIHASHuusl88/5fijf7p7/+fWdwhPvL/s9Nsfe3WqG+4HJRKBZSeh+imoxBRyFPgkGyF0hqhvIFMjALGGpEw0sG5dIBcARBooo0+0LlhIkDwPisSheMk8EORepCVxXnH9W18s7FCKQpoqM8dxZIdxTXE9t8C0lf2GVl188sTy67byvZXf/bfcAs/WNF3zwrL2s1s8NaESkcMxGZMcpUiX0v0UXzrzR+OGDmIs/S03w7fi9B55c8Ef73nmzVt58WCYXIHMJChO0o4iqSnpttidt/1pyDDGOnqe7JcxPuqU869fqBYPZTFHgiM6gKmSm4bCABkqfCiioYwTO0gwhKhGIHfTR3spEHepEvlu11f2BAFazoquZd+FqjDIXhpeshl33HhlPiIgq31s8bEXvLB4fmuoUrR5U1jFZAmq40Dr6MAhO5b/87J9Sk76VtzB+ZP4xizwt3eXPDO9QT46UTwQEVmGxD0ozARPNHt6e738t19/LzKRsdQ3doD5L95kC/zzzXl/vGv6G7fykiFIcwOcBOBcm4dgcclOQvLM1Jm/P/nXx4xWnsms0Nn0uWum3P7Ao0/qhf3gSwUwSXJUVWFaaRREVKQSSagsSAGRFDX9L3SISJeO0kIZplBvCQpqFttQJJDNaQjNU4oIVIoMLEFbvfOGS0eN78fyxeLZFh979r9Xzm8pGhQo/BFsMgmya0FubcHBQwofvWXfwl9u8l2Sf2PeAr1Y4IYPVz19T61/rDtgECQbgAvoOkfI7oTS8BXu/vWeeSDYTu6cx95YcObdz7xyG4qHIOVrkCQSeHMRkn24VhphQ0PT6kYUFYRJGZTbqRgLRaNQIkUwHcC3PECmNBA5fFIX9YSEhCZReEAxQAAGnogNCAgohMwsUjPy1FlT0cpfOPiMnERvJgyAIJCrpu+hhS58E16iDbfdcMnIvfqxr7YT04vD3CrF4o/jfOz5bzbMbyruL7S+mSzDISAgtb+2FvxoSPiRe/aI/mp7MlT+WLc9C9w4d83T9y+1j7X7D4SToDSAB1lyUCxZ0FcvwdQTd88DwbZ32Xo9oofeXPTH+6a/eKtcNAAmV6EQVdOzwQgMdE1QNm3XEwJ05IB1WUI8bcJRQpBVHZrvw7ZMaIYKx7MBiWoAHuSsuByjdQITwnPkxAkISIGUQCN3o5RQAADdxeHc17urm4H0BAGB6CuQZDHQhiKC22+4KA8EZLT/xvnYs95cNb8+UiV4ukyixgsGlXA23oYfD44+dM/u+m+2k3s0f5jbqAX+8sGqGf9s9CenygYBto9wSIJjOSjwU4g0L8XtJ+yWB4Jt9Nr1PCwqFt/31Au3KIXVsLgMiSSfXQ9qZqmatmxoRljIS5P+ELF9mEILTFWIzxVqqpghkLZM6CFNDK3RZAUKD2YPUH2APkXqo+TsJSoXkMPPRAPZoTXib0KeOjuoZu21chYIsu8XcYHvQ6IBOK4JL7kGt99wyYi9K9ji7cT0Wy8i+CTOdz77nfp5q6hGQBrgZCimQqbCS6wd+/c3pt23d+H/bU+Gyh/rtmeBv37YOmNafXpyqnwAdI8eblrmMYTsBIrbluK248fngWDbu2y9HtEjb3z+p4eeevEfWml/pLmGhE2aQWHwjAQ0OWASiOA+6QaRY6dRlOSFiQUUCMvRRkmdbPqHMtKkQmqZKVE4pr9TUxg5eoosLMuCRqMtcxhBuQVh0VDWxW/Mlo97HD5T4bk+FFkGcxPwzVW4+7orRkzIAwFAQPDHd+vnrQpXQiGND9+HwlQongvEWzGp2njgvn2KT95O7tH8YW6jFvjLx+0zHlqVnpwuq+4GAokh5KQyQLBLHgi20WvX87CenDXvrPufeO4WhMvAwkWwfAkel4WTpnx9sFE6Rg7y/SKr7UNx00GDmKgBSEJZumvzOXzuiUH19F6aJ2C5JD3H6Tfoug7fCVhBufWAXDDYIBBwyjMp8DwuIhfJT8JLLcfdN14yctd+Rr5GsDEg2L/auP/efYpP2U7u0fxhbqMWuOzTphmPrLAnW6U5EUEeCLbRq7Xhw3ry9c/Penj6zFtirgpfC8FnGlyfQxHzhj2QGARtYkVPuX4SfOMcOqV+soVdihSoIiyKn0Gxl5y/7XiQFAUpy0PVwMHoSJmApInZxpKQnQjemwWE3CPdcMeTmJsmWEMSU8CooSxdj6l/u3j0xHI931lMxeKz3q2fv76I4IDq8H337FP4u+3yjs0f9DZjgcs+bZzxyAp3slU6MB8RbDNXZcsOZEmTOXxhXcNu0KJwfNn35EAUjvlCIEIQAXwWkFtoknD2WxTRKbbulDGJe8Kzy7KKhO1A1iLwuCLfdv9Dj/pKWJLDhUilqdeAPhtEHL11Fm+s9VVmwaxkCbKoEfBUI+646ZIxu5fr29X4yq3GGsoDwZY9EPlPbboFLpvbMOOR5V4eCDbdZN/5d+7966t5uKwaNlfAZVUUnjc/EsiYMSNiRzRXiemAa4En2nH3DZftvGs1W7A9GXurAMGHFh9z9hv1C9YXEexfFb733n0LT92eDJU/1m3PAvmIYNu7JtvyEXHO5f1Pu96VwqWwmAaHM9EZ3Nu2sUggCFcoZZUKIgKmQ3JdAQT33HjZLuOr2Pxt2RY9jy0PBNvT1cof61oWuOKTlhkPrTLzNYJt9L4geegkQK1+G9zkTD+TR8rOwr1mCgKU2snpdaLSLJUGaGe5/97Y/un1aiC9EIj86tS/xz0tAiVSAtO0oYtegO5eglwAyE4my91/7nt9RsVoM8OK1KAIIGjDvTdeOm5cFZtHn6tf+OzxvrXqasdtSXCWssA8j3nMVYlGo8iwmcUcz2eyX5AqKqj4oLyo7CNUj3iDsYnOppxXX71nqwDBBxYffc4b9QvzEUFfXab8fnqzwGWftM94ZGV6spVnDX3jNwiJ/b34xZrjPpnz2RFfLq2d2NaRGG46btBxm9m6u3EDbr9YVMsSPJeDS7KgdHrU5MVpggCHKtOK3QcnB0t1ApIRUXSaEAPH8WA5NjgLOocDcKAPB4XlrMOm4jINuvcVA8woNKFFDYsGynA1oJFyB7Kgn2aOJ3tcmf6CnnWDnkDgcVtEBIqkQ/YcsEQb7rnhki4gaF34wGWyv/IqWW6CppmQmC/6I2BLQqjI0TlM14XsRiBLYcouwfGi7YWFo/9uDN/t74yN3SiQ9sXFzwNBX1gxv49vxAIXfdw+4/H69GS7NE8f/UYuAIClnBc9+fz88994861LTNdDUXEZXMgwHR+yqsEmynjWUWeauwgFsimZoKRLXjxw6KT7I/j75Mwzgm5BnwD1DlA4EMhIiF8CMWmq8gavZyaMiX0LmQmKKGhWMRfQQPDiiNKzImYUdANB9zH2tKPQSRNRQ3ZCWbbhzBczkAmHHJ8oqiok1waLd+C+Gy/uAoLO+XdfKnu1V6vyamhqEpz6HnySo9BE7OMoHjzJh+xLkLgsKLMuV2BDgcX7LZeMCb+vGH7Sf7b29c0Dwda2cH7/W80Cl/03NuPh2kQeCLaahTe845fnNU25adqMpxK+Lhq8NCMkpnaJVb2kQNE0pEwrcPBd2jz07+4VeHbFndupS29mpN+TQ+sUjr6rfyDTUMZ9KNRnkAET0RGc8WhC3oxnOw4CeqgvXqdeA3pToD0kcwKB3sdTBmcfvNYtSx0AAf0fAIEkIgIRrbg2eCKG+2+4qKtG0DFv6sWqv+QaXWmArCRFAxwICGhUJgGX7GUUUTOAJsZqenAkDxZK4fFdwPXRvyzfYcqjW/MyfyNAkKePbs1L+t3Z9+XzYjMeWhKbbOf7CP7nF/2uf33y1yeff/kSpWwwoEdFisbxfDhiNU7OkQuZB1UzuhxdFgCyTrX792xYkHHIvXD6CQQCtxy4LAIeSgMpPOgDCBRGhQRcADzkvAlwSG+InL0AH18ATFBpyDSg0WD7oEW5VxvmpoICAFibakrH4foe6d3lAMHFXUDQtmDqn1V/0bWaUg9NSYBT6kqENjppUwQzEuh8uRIcNHfE8XkS4LIQUl4JElYl+lX+4JehgYdvNTD4RoAg31D2P39uv5VfeNmnrTMeWZHOF4v/x1f3ygdfnfrWR5+frheVCzkIGuIepG2Eio9YaYtkiiR3zffNXV3nFmSzrjuYFBaogQYen3SAgrV4ppWsCwiyUQS9IpGTF449kzIix575lNAj8lwwTskqUiPNgIYACkoXyXBZMK9gfUBAfQLZCCAXCLJwQw1lju8IIGC+BT8RxwPX5wBBze0XyX7NdbpcD5WAQKii0qeIbkonnCl/U5lcbG5GCImJwIF0l6BUoSM+GOVV++2uDThk7ta43FsFCN63+Khz36ivyUtMbI1Llt9n1gJXfNoy46EVedbQ//KOePjtpWc9/MxLt+jFlUjaJLaWWd/LQZctpUmImy/y/LLSo0krcPZZIBCrepGzJ4cuWoUzQ2OyIJAFgkw0QACztoaEWPEHxQRFrKKJdySAiDSKCAgoYqDis1h9+0EaKas4SlEB1Ezip6cK6drpK4oE1m04o2K2Cs93AM0F89Lwkwk8cF03fbSl5vaL1AwQyEoiYBhx6ozTwTwGifTXBPgFINq10bhNRtGBDWjF6EgUIm3vuLJ64tE7bg1GUR4I/pdPUf67+tQCV83tmP7A8sQxeYmJPjXrenc2t5WPOeuiGxaopQPQ4WqQtBAMkvHkgfOn/wkY1AxTiH6n3Pn6NgKCQCNIdBBn2oYzA2G6PFPwnq6IIpM2EmkllnHONGCecv/ZiEQUm4N9UqqFAEHUDEQUEOyYvlMSw2ly9p1zoNmUULcGURAZ5G6U4pGgwvUdSCrl/tPwEwncdf0V4yZm6KNtBARezXWq0ghVjgsgoO8UQODS0RBLlM4lAD2RIhJfQ5EB7TMlUm2uVIyEMxBSaNLlRSN+dXVfX/FvBAhIffTevYu/lvroAs41qrtnDWIH5RfxO0VpwxgzN9dYH3JeWR/H8MY0dmhJojLpoSyVRFVYx+qSEFpLQ1hdFcKy6gJ8uRdjrZu7/y15//uch5rT2K0+geFtaVSmbL/U8yWuKuCGipYiOqYI6spDmPuD9ZzzYk4JybW3LbVRb+cwi/OqNZ0Y12FiUIeLyk4LZa4PTjTr4ghaynR8NSiKeSEdy3/AWK8UDTrGzkx8HspcR7qeOzEWVBt72S7+qHX6P+utY/4X9FE6x5Y4dmqMY6cOC1UpD6X0PKsc3JDRUmygsTqCJQMLsGhz7o0FneZwx9V1VQMviKJjMGMNi1vjY4eXRmsY6yGWvyU3UB9+5qizb3RSWpmSlIthKoWiMOybcWiKIiYRikiAKJRUpM1GCuSMc7Zsjj/3byQBl40Isg6ecvjZ1FD2vYLBk3XqohAslvcZAMjUDbLsIUotiWigRwRA9YsMAEmMZQCoe4B99ruyQEARTrD1AAFRl5C7gUCzAJ9mFsfxwHVXd7GGOuZPvVD1F12vy1QsTgRqGAJ8tKBGwBwhkU3AROfLfCVgKInygSu6lcVjoatwlTKsaivC0J2nVLKCg5v68NJuncE0lBq64LVGkRoiOpiY2yDJUIX6aDMOqA5Nu3fvki0Cgg8TvPKjRbU31dW37JtmshyXVF/Sw65rWk5EkaSI4vtOS72+c0Xhx384aO8TNmas100+Yv6K2JQvliw/qq4ltVtcjsAJFcJkBkyKOmmFwzkMbkO1Ewi5CVREFOw4qPLJ4dWlT/9ooPafLQGdDR0XgdznjThszperj1/a2nFcq8vRDh+urINJ4a4bn/KXsp+E4SZQJXkYU1n69J47DX6irFr+d9bh3v5J45XL2mKntqScpKKHZElSuGdbCEucDzC8zy8+aPTxjFH8uXlbLefGZ6vx0xf/u+SClQl3Ylvaha3ocPUQzIwepCJLkG0Lum+hmLkYGNaaRlcWvjhmQNXMyQPYv7LfeMMndU8srms6UAsXJ23J9bnrQGUedCupDy2JvHH2gbv9ureju+yT9umPrUweky4LROdoZcplGRE7gdKWWtx6wtdTH/2Y86rXP+/4XV1z55G1rZ0TOm3A06KghiQTMizfhcw8aMR5910Ydhr9FI6R1aXTJ46semLvCmz03nhvWfMpn3xR87fdJ0y44N133rrn51N+MvaJJ55ZcPKvJg8sZ6x+867K1nv3w2/UnPHwzFdu90OlsJRCpFhIONSQzODaJvzM6l8EA74bpEBo/d1j+pdwqeTwhDPMpopoZZ+JCEQ6JziPQGk0Sw2lImvQK9Cz6EyOlb6Hir6UOsqdJ0DOvtuNB1GDRyBF7xXMomC2QbB1p4OyQBBIUKx7HpIYckDnQOkwB7Lq0DhNeMkY7rzhL+N3r2Rf0B475t9yoep/db0ur4Ysm0FdQJwcrf5ptUQaSqSqmqU+acFUR+LViqiHiuI2KIOVMF04RgVYaNfLSna49K99ebW3SkQwJ8ZHXTCrqWZVuAK+zOHQCcsyFN+FFFuN/avVaQ/sVbXZQEAP5m1v1r60oCk9IVxcgTSTYEui1QQKNyA7DoqQRpnZgAMq2U1//P6u563PWM+n+Q9e+LT+tDlNHVPSSgiaHAZTDdiUY5RkiAWN50OlJhfHF1K2nmtDE+wIGwgpSMWaMCSqJA4fN/i351aw6X1xYaan+QGPvrX67oY4RiahQy8qQRI23JAH2/OhOzoMWYHj2pBVuq+oIcZBCK64CRV4GGCo6UnV5RceuHP0gX98YD/65ZrOo+mBCoUjSDvBTaerNopal+HO4/esHsbY6s059qlNfMrzn625b2UsXVgYjoDT8cgGTF+CQ5OhKF/MffjchibRZDqfumQgUwhtpsBTndixqnzxXhMqLhlaimdnvtm4dEVMGuJpNHfWghFS4VhxlLEkhvO2Nef9ZM+hvYHtZXNapv9zRfqYdNlAKD6doQdfAaJWAlWrG3Dzz8dukQz1i5xXza7F+W/Nbzon7jJI4SiINU4Pi8IkOB6Hr1GhkUNhimhuAs3b8DxEfBuq5KAj2YZhZaHEAQP7XbjncPXe9UVCKzkPvf/eomf33W/UBc8+/95bxdVVLyY62nb92ff3OHRQeNsBggPPuddjkX6Sadtgig4LWuCkSWdnLcZNtyMnIOhJDyWHHdQEMq5X5O5zt7Vjhtzu3mA+QK6zDrj9We1pcTw5NYTeROQy7QdBQZkcOdFUs8NppJzJZGIwTTCFbO1C8tpzCWi2su/YMGRJSEyk4+148PbLxu9SGgBB26IbL1C9L2+Q0Qqd2ZAICAR+eHBE2koVQCRTiohs4hkBcElU5KaoQ4VnpSEbREtiiHkMnjaytaTiNzuy0omdm/Pcbui9WwUIPonxkefPalrUkAMETJLFYBoWb8APqvVp920mEMzhPHz7G8vemduO3c3CKiQcBr0wJC6oAE4bKOQcWuti/GRU5XVX7VZ8cW8n/kyTM+k/8xbd8flqe+dYuBzJcBG4UQBDkUQkZjlBb4tOFC7HhuR70BRd0OEUVUUi5UGOyOh0PIRCMkq4BX/VYuxbUfDZaQcO+d7XGZZ+7RedN02fV38Or9wRHY4MSQ3yq6bng4cC6lvIU6HIgGk7Ip1ocerAVBAiPrNjw5EkhO0kKuPNKIgWfd5a0E9fFeejiBuh67I4P/JosmKjX/sS3H/kmOqxmwgEDZyHb3xn9bRZDYnjrOrhSDFA9124jgWP62AqgUDw3HDxQLoi/FVkkhRm1BAKXQZ8x4FnxRFiFsYNrZ5RV7fmKMuolJMI7K9ogOnaqGIx7OzVL7/k4PEje0sR5QIBgQ1HYJOomdpiILhhXvsfZ9W13VrnhmFFKuDSikwFNCkYb+imTbFIUMIGYomUGI6uahpcWfhEqhlCN4D2dAIFqodQSwP2qi78/Pg9Bhx3oLHuQPOGGC9fuHzVP3YYOPDSj2pqLmpN2zuFNfm/k3bd+cbhBaxPw/8tdRrPfFp/3N8fe+1JP1QC5jmiA5jcv1hDuz2UEDIr21xuf7C6z7qaHvTLrGfOObjsCj13LKRwjj1y9PQ34cxz5wlk6wbrPdlc4KEIIsexi88GIyqpyLwxIAjSOUGncESinL8F3+rEXdf9uSs1tGbh9RcYWHyDIXVAIydlB3ULT6FogB4ULQACbgURBjWaUSwlBZltRje0aI7wwJmLNAMS3kBEi484PDL0uJe29JomUkNGAAAgAElEQVT2/NxWAYLZJh95/puNixpClZmZnpS3l6F4PuT4ahxQbUy7c9+yTY4ICASufXXl24sSbKJRUoEYjaoLhUEzJbgd6IWEwKA1L8FJu5Refda4yst7nujnnEdmLOh4/LVFq36WilbAoRSQbIAAynapO1AQGIJwkUJXOQAEqoV5aReqKPBI0CKAy4F4ykGBocKw6eLHkOYxjIyi+cYDdxy3qY41e4x0fre8vfKDD5vNcSisFp6EbkjCAXJwnu0IvXNOLAduiCgrjRSgqDCoaacTIjWi0bQ86lMhh2S3QQ0ZiClhpOk15kOTGDw323FjoqpzJab9bKdNAgKKxqa+uOj1BXE2lpcNRNzjsBUVFgGMEaLFChy6lz0PqkK5U1eEzOQAFEUD9yXYHo0tlUEKwz457nQMES8BXdJhKf2CVBwx+WTAch1UoBPjnDV1lxwydlRvQHDlnJbpj2QigoBLHujCRymaaF6JW07cvIjgT2+vueeTdu93HXohUo4HragQMTOFwsIwkp0p4SAKiiJIUhrM5SgqUuGkg/slTREPGBSXI2xQ2ohWkyQl4CLKLCixRpx8wOgTT+vHnuirh/d/tZ8zb3729S/WmAeZcgRyptNWiECQY+5RA8jmddYn5ibmjOX0CXQVa3PKIdlVvxhAn9nW7TkIegpoLS3qCdl99iJJ3TPi6P59bSCgiDJLXxU/e1OeywUuopYySjbRzQ/osMHTq3HnzZfvMr5UF6JzzV/dcr5q19wYwhpoclrUCEhCg9FcBYmBC+E7OhMniGaonEcAIwWlMe5IgayGkNPw4BsqOswSpPheTw+ecN5xfXUPbBUgmEU1glkraxpDwYQy5pJatwyNbBtvFDWCO/bbtBoBFUtvf2npRzUo3aVNDsPQZdEhaIpQQEJIYYh6JvSWlThql0F/uXBs5MrejHPR6zVvzFqdODBesSPSoRKkbUBXII6J7iGTFrCSKOGIFS0NraCLQ5OHFEmGxhUkTQceDcfm5FQDKlskoDAjqflAawMO0tnCiw8ZvPvm1A3+8OaSp15a7U0JDx+BWMqH69koCitItrfCUCVIvgRZigimAQ1dtTm1ptMJ6HAsCRoDwrT+poiG6jE6RNrIgQvTU0DEDdJUCQZ86CJJ6/kuBsZW4f4jh24UCCh9cd7LdZ/M63THhiqHoZPmx2qK4DtwTUXS9EWhUFVV6HIgGk+RlCwadWgRRMUwCT6F0eImp9oLDQ93EfJTkJmMRNqAz2SxmqahIzZ3UeHHMM5ZXXfZIWN6BYKrCAiWm8ckywcEBTbSfGEyolYaRW1LNrlGQPWOf8xufnj2anNKh1EKRCNQNSCVojSVBstKQ3IpotLh+x6468OQNDiWHUQHZAuJQyJQThHHRRLASM5JCjHYFgez4uhnteL4MRXnnjsyenNfPcBbez8UsfzqklubedEApIiOkVl9i7nBveT/NwYE3Y42y99Z+wzI4Xf3CaydNspNC2U/FWSWuqOCDXcJZx7unK8kv9TVJyCAIFsU7tHk1vWZtVNDHjxomgE75SCqe5BTy61H7r1uwMAMmSTZcO9pfud/75LNFQgpNBBHiGIEjCdRLKblAzmRTGooQ3nxWSqopVBmQKaHIuhAJmZCwilCR3JkevDe19Bj3yfb1gECzked/1pdTaNRBc2nWZ5UcKWIAEB8jZhZfOd+G2cNzeG86I4PrVmvLWmeUDhwIBJEU+NmoP0hhcWKOW2lUNC+HKftPOjMc0YXTF2fVR5v4Cfd+V7Noy1FlUhopUFWk+i/vo9wREKaUjBpDwbVA3wTktsBybMA14Gi6kjaMkoGDkF9MgEWDgmAoGKWnXBhaIoo7pcYQGr1Uhyz+7Cbr9tJPndTrtB5izpufHlp+/m+NgQ0dM+mopPkw7NsRDRD3CwuU2AyGSoHCu2gK91WAIdSRBTGUkREICYBtkNpFYoMgpsr5MowFAaXp2BTPlQpALlqbgPVsQbcd2j/6rHRDdcIznhv9eOvrLBOkCoHB06avkR2EQmF4Capq1KGqWX6Y0QnJ4NONC4aIK5pSFOhW5PgEjgRelAozWSENMDy0mKAuO8aEPPHOS2iLUDTUGp3YLzTXHv5ISNG9xYRXPUJAYF9TLK8WjheWoDrHAjTAPvORbjt+E0rFl82N/7P6TV1J0oDd0LSVRA3bRQWhWCZJgzKC3kuQjqlNm0kWxpRCIb+oSKkYwlAl9Bup9AJB6GqAUgoJeKZ1ekUJCDhpBCNhCH7gJuKA2Ytfv+jcSedXcT+uSn3xzf9npcWth959S3TnjP6DRYa/rQ8EvIKJKugSKIonLv1jAS6c/yBgxfNszkpnp7OPfc1QS/N3N897UCTyMiBKr4FKSP5sPZ7NiQb0f1O0YIg5CKC+sCmbwGrySUJapXSOxo0P46d+qXffvCK8w/I7sdsvvNPvPPzf2ipNZCoL0DM1CENDmIZZdIQ4s3Z4gHZ2AOXyCPRYskAfMqnUrrChyNZcFgROhMDUT3ssF1Y1U/6RO56qwABsYbOeisAAp1OwCVKFINKYVGyEZMGbJw19CHnhY+80fD2S2vYrqw/DZKgVA3xgC0UhAyYMQ7FSUJzWjB53NAzrhrK7tjYRTz17fqn3mt3p7jlg9HY7qK8WIFGeaF0B7xkAoUqMKS0+KuKqD6nvFj/qKpcamAuOiQZhSub/KqVHakffLaq8Rg7Wgxb1REnJxuJwDOBEIGKApiKg1DLEtz909Fj9tfZBqcUPbqy85Ab5tb+J1kyAoiHRBFSK2VI2Raihg7fdBGiVbzjIJGyoLkuypmHQk2tDYV05jLuNXZ27GhTdpxYG+EoZL0EaUlFKkQPERA2HRhE7eMm0lRQVSMifQIrAIL7j+nffwxjjeuz3fVLUmc+Onf5bXb5KHRS+CsBhk4rdqJNWyhVdSiODcuLwzLjUHwPxYaG8nD0y7Bm8KaWtlEW95CAD1tRwIwoJDUK11GQsm14IVKeZFC4JgaMu64FSWFgugYj1oo9eFvdVYfsNLq3CIuA4KEV9jGp8mqRvyeApBRZ2HUQ6Vy4ScPrr/40eeXzixuucPoPQDPVJ9SQSAkSaJLdQqSgGWuFno5haHlRzdghlQ8ML8OcimJ8RcuxNFDU5mLAglXWzl+sWP2rxS3+BBapApOIVQN4lOKlmqrFIWscWoED1H2Om36858GHFbNXN3bPftOvXzv9k7tf/nD+qVBD8CUVLmnh0LNIjClZFkCQ1fcRa/P16Pt3Odl1uPiBHlDQA9ANEqLZLPt7jsJo93uoSOxD9SwhKycAJiMt0fVTCM+Rww4K2AFbqftndl8B+KzbMJZlNwWfz7KcuiMC0d8gMVGv0/UQnM5V+PnPxj943uSf/TZ73dZ8eekzIW/J0QW0uJE8ITHBqcJCVWNRDM70WXQ1uVFDnNsNBIjAt2jhS5G8C1ukhAuQsishF+z228IRZz7YF/fIVgOCC96oq2kw+kP1Vfge6zpfnmjApAH6tAf3KF9vjeCzdl585xfJt9+pT49Tq8vRYvtgYUkAgUa5j0QcJWEdalMtTvn+mCknD9w0xg7RMs97fln7cq087BQVIpWMwWhvxeioholl+i37DC5/7sfVeI+J5G7v2ysxPmrm/NaHXlnRvpc6aDhiDmBQLj/J4TEXVkiF0VGP3+1UcvtFoyN/XN9+SLb36Oc/978M9UNSLUHYDwW5ZglIZihmBXBgNC3DntUlCyZWlT8wcqD0Yr8CdChASqOsYTNUxYDRoaF0Tl360I9ql5+yMqWMbdUL0V5UgZQPRKk+QGJblChiHlxyskyGZCsY2Lkc9x81dL1AMDvJ+5/2/Jx6a+DOsDxDrLqp4VE1gJa4g/JCFV5TC0rdOMaWRD6bNKrixjFlmGs46AhH0TkcsEkDXgL0xjjK5y1tOeG/De1HLkv641tDZfBLypEEh+2xIFp0AVkyoegKbKagINGO3fyOuqsOHdY7EMxpmf7giiAiUP0MEPhAxHYQic3DrcfvtkHW0DNNfNJ17y59O1k6GIlEAuHCIqR8ieaRizRggWRDbl+BfSqjqaPHDDry6DL22sYeumcb+f4vL2yb+npDemfWf4BIOUoqBB3Ws9PQFRlq+xqML5ASZxw0uGJfxoKl3za6/fLGmR+siLt7+44v6KJZIKB1q+iI7eGk1z2N3iOB7Pt6E6DruY8sKGT/3tXk5XfLTffq6AmVfGo2Wz8QUB1rvc9ohua6PiCgz2myBtNMQVM4FK8Z1/75l2MnDRmyMLvP5XNPbS1UakuLGbGBKJKi+oAfiK1SV7HopsuADAESpVCzQEDie54B5lLEQbLZLpjqBtcAZUj4O91evutf1+tjNueW2ipAMMfio857dWVNg0G5W0kIUdHKSKBuchV+0F+f9tDuvdNHqXD62OsNH7zUgHHSoP6wKIqgtINCqyoLBZBQTKvGxmU45cfjppxcvWkgkDXK0+18/6mvfP6WWVgAxzKx//CdHj1kZ/XCQzawKl7nxuScTfnPqo++SLE9vLIBSNg+iiiCA0fcA4q9JAa1fIl7j98jtL5awdU11rXPzFvxZ6tioMi9qqYncuwJD4iEAMV0UGy34aR9K088rXTTC4wzLT7m6XdXP/xxpzfRLamGL1YyXDT8EOvAZkFuV/UkDIytxL0/23G9QHD1Z52PP1jbdoJdNVREPVQ4N1TATCURjUSgJJMYHnFaDx9XfPzvitnrm3rjPdHCD/rXF2tu/rSpc5xXMQiWFKLKhfArsuTC4y6SjoSBqo+xZmPdX9YDBFQsJiCgiEAXQMCh+QwRO41IrGajQPCL15Z+ORdlIzq1IhFJeMTOUkkwDTCoR6NzJfYbqM/8w8TKn28uG+wPH1nTX1/RfAyvqEKSE/2YgTsudNlAmHtIrlqCk/YZ+bcrh7MLNtVu/+v3tXJeeOx5D7RZepnsOwGLxaOh7xwwiHjgE/1RzipCr+fwMivtXhg/2bRRbl0gdye5tNSs4lAWBCgSESt5ifhwa+ftaR9Z2icVYzckKBf0CWRpot37CXoYuiOUDEdKHF53DVmC5DHoCrF+4hharb/z0CWn7d8FWPHPK9pW3bUmIi+DLpwYpYQytEQqLll2UCwTOw0E6MS5MDsoFlONydfBhECdAp/o9yEfTtoClwrQaQ/5tGKvuyf2xX2x1YDggpcba+qN6iCMNICYR0VXC5rZiEml/IGH9trh5J4nQMyem96Ov/9hkzUuXFGOdpPDl13IqiQ0v6OqCqQSKOpsxJl7jfjxL4ZsfIXWm5Hum7vg78tb08dPGL/7iZMr2DtbYsg5nFdf82xNwzJtABKFhXBkSxQPw4igkNuQmr/E7w8af+jJFezlnvsnGuYvZi5L1hcMgKnpsC0gJIqREhI+UOS62Cm1CqcePnT0wTpbtCXHd9ln/NGZ85ef5PYfgBSlZASlk2g5me5MFxgUX4W7jhreKxC8ZvHRVz09f2G8eiTWUFE+SuwqB5bpIAoJ5WAY6MRa/nxov1323ET6ae55EAng4Vdr33m9xZmoDxoBM80hSZT3tcAUJorcZV4K493muisO6z0iICCYttI+Jk2DaQQQeFBBDWUpFHQsxC3HT1xvRHDNV4nzn53fcKNZOABJFhZpHCp9UNqL9sXXrMKBQ4ueu2efwqO3xP70mXPfWT79+dbkMX71CLgJBs+TQClfygiEXY6y1jrcddyw/hM3YxGypceyJZ9bHOf9Trzo3iYUVEClXDzFlZIhnmlqohOZdbHi7qaH5tYE6DtFQXQjW9a5B7r/WYm5TOcwpVLIAdJiJisAl2EqSbKGtE+Cd+sCQfCV5OAzfObctBNFyBntIZKd6NoyjKDcjmZKf4nCuGATdotdZNsLDGIfptpgdi7Fw9NuHrNLQXc62K57+eRU8un7dHkZVF8O+mmE0mhGfVT8zMhgC90lChCIVkqLtYA1REAAj4pnpIlEr6VE5oCoda32UKt8j4eCxoOvuW01IDjv5aaaVaEKgaqiSChm0KWgxVfhkCrj/rv3HHJK7rFTJDD138vefzsZGe9XViKdsFBcQp20gGOacC0bpQpDQboFv//BsANOLGBvf81z/9ofv+nT1r89sixxXkfpgIDF43NEXUN00lodtfj5niNuuGKYelHPL3p8mXvSTfNWP9oc7S+KbyrlommBkKIEDtAv3YKzd604+KQdvl4O+dQ32uZ+YPoTOvQCKEzL3EDBA0xpmAHxFbjn6B16BYK/fMn//uznq871igYgQVlNaqGnorOvolKWYCxbhCunjB51aC/c+E01LF3zG9/ubJ4XZ2FOvFxFhuOmha59yvJR6qQwHs11lxw2rFfW0OVzW55+aLl7bLqsEgZhnO9AYSrCdkywhm45offUEKXlJr/dkFpghwwuhWB6KiQqBlNtIAaU8SR2K3S+OPn7xXt/3dTN5PdXzvu0U945rFcjTew0A8KRUpNpWedq/GJkyQ0X7mysc49sqg235vte+2L1ERfd86+ZKKiE7qd7BYJA2z+3TyA4ovXVBHoer030b10X9QYqQFMvDAECMdxoBRxStYCpRT1IGUYRyVgEXlITTDNSP113y3Qt95g01q0dJFZGmZpGwGoLDjzTiZytURDlnSalSUGTpAhbRY+MD0WS4CZt8FQ7zjvzuDOnfG/0WmSVhg+vX1gYnTeauoqDXoGgAS/Ik4cC+hyxhYTWELHqMn3UBARwgjiHZj141DmtilCE82RAS+YSOqwhKNnr8T7x4X2yk54XQUhMvNpSsypULoAsYXtQQjJCXgpKywocPrDknlv3qjot+zlyCNe9tea9/3b6uyql1aAg1KcwXeiWQDRqlEc0FHauxoX7D/3+oYVs9tZ8ADZ13y808gMumf3VrI6yYYJDqtCKliIgYsKkW3DYkKJ/3za+6Kc993fG68vnv2eGxsZCJSK0FEU3ie4RDzwZww+HFD547wSlq+C0qcfT830vxfmY699ZvmC1UgQJ5GhVwU1wqChLc1xjjXjsiOoBoxhryP0sRSynvLRyfq1SNoxkirgqIyWl4FJRFyEYzU04cYfwFVfuVnDVlh5b9nO3t/KD73t95cu8qBKuRvlWC0ZEB80zKbHjGMdaNhEI6KF2wKSgj4AkJm4+cUKvEcGLHfxH57z+1auJfjsICrBMN6kDRBXA8JIwVtfg4kMm7n/4FkaLuTZ5pJ3vf+cbS95KR4ehHTJSmgtFkRBxfJQ7KVR0rMQLx++8VZ7Dr3tt/vnGgjNueu6D2xGthOEnBRB4ki6aAxXRhdtbZXjDNYHcNI2g1woHGwx3Eat0iYkUKf2dfs8qmQq/n0mjBBISgdQEOePeaKXZc8+lqwYAlTPNrGtSWiBcLfxuD9UdNRMRUG5f14Jn3EonRa6/KKwj3tyAU39x7F/+79AJa9HWef0T+8ZaPngvJDdCYR1ipS8iAjGxLaM1JIAgo3NEvWRCypsCgyACEr/4RPpgYBIpb7ngvhUAge+h0xqK4r2f7pN7p0920hsQnP9aW82KUCnsoN8DEvcQ9k3o7Y04sKrojjv2rTiDPieaqWbVvvNhKrx7mxKFYRiiEclQFUjUvUt6Jm4a4UQj/njoyEnHhti7X/cG76vPv8N59Vn/qm1oLxoM15OhEctLqOJaUP0U9in2X3loz/JDcr9vNuf9//rsovrV0WoklBBlWMWFTrhAWUgDX7UY152404ifMra4L47z2NcbZi7mhUdYngZfVmETCNBNJwFVsdW476dVA3brAQTvWXznU2csmOcMHAtuU85Fgi1b4txUriPUsAwPnbRDn6U0fjCjjncUVCKhGLAEA0MVC69SJ4FRWFN32aE7rjcieLjOPTZdXgndywJB0FldKhrKeqePXjR75bNPtspHJUqqoRDDiBrj0kDUt1EudWCXcOLZu76/4+S+sD/t4//eWrlgrlk0JhGm8j8tKl0onoOwmYTRugoXTN71h8dG2Rt99X19tZ+HXvni7Nte+PhmFPSD4QURgc90ODTrlxqicuQeejre7PjIdY9lbXYO9ZoEzj4AAAIC+p3mGGdBwXa9LqAQqR6J0kQKZGrm8uwNAEHwXbn/r3U8Agiyqat1gUCUcH0fIV0XvT2uQ8V+Bb7nwHeJ3g386ugfnfHrH+6+FmOR88V667x7PylQlu9CVHRKd4pAgxYqQhGVvD2JwZBWWLbBM5sWCmoQ4rhEgxmpkXLKqwswIdqpAAnPQac1BMX7PNMnPrxPdrK+iGB5pBwdjo2KSg1WuwOFiox2CntVl9z5wN7h06lP4Na3m9+ZXd8yTu+/A2xq1YcDx7YRYRoU20XEsVHldeDU7w39/s9Kt41IgM6Xcty1wMgbXqr/LBbpjxRnQvpBtQCVZBXUFMbJ8fqn9+8/MNc+0zr5wXe9XvdyOlqKtKoJp8xkHZbpowoeBrcsw/MnjO6z6/K7d+LP/9cK/ayFmsgUYhtQ3wH9L6GyfTnuOXLIOkDw6OLUOX/9ePlNqarhkCVFlLDIeenUy5AG9ij2n374e1qfdTUe+++6ZUvVkmHtckTMkhVii4wiggRGsYbay9bTR0CpoUdrM0AgdN0doXsUsQgIGnDriWPWiQioeezMZ+Y1LivesbhNDYsitZCVIkaU2QmtaQkuOnb3Y3+rsxl95VCvm99w9t1ftt/slI1E1JYFWUSJkp5GB4xkDD/dqeraq8fql/TV9/XVfu6a+cE1970+72IW7SfSnQIIJNLfD2YMk4MlWnzPJrH1RQrBkrtHFCE6sMn4GeE4oqOSFpFEjZAyTNMMmq4oXSTSPNSUyEVTH/cdaNLa+kO9nTvdv9looGdfQtDVmx2qQ+9a+9ETYnqkMkL8ZO4i3tkuvvegA/efdupvDrpwJGMtPb8zuXja5U761b8Y0mpSC8ukgDKT0ahYnFUbJftRZ3RGFjvLbmLUI5GVvhCgQWKKRLOmG9UNQML10WkNRvF+M/rEV/TJTnoagkTnzn2rpaYuUg4eATo6Y+inRVCsyGhdsRyTxgy5/ye74vT/zFrz+YctziivtEp0naY9CzZ3UFpYCL+tE+XgKLdiOOOwIVtcNP26D8VszgvScYxvbrYrWzrdsU2OPaIpnRrX4STGtkGJr3ZLiuJaIdKqLOoZUROCCinLKYySWlc8e+DgIbnH8OfF/JqZC1ZfTCqWPBRGkkZ9EwC6QGl7E349yLjm/N2LLv26x539/OmzkzM/imtHNFH+MayJDlkKpekGLGtbhkcm77hOauiKD+qemdmiHN0cqQx6DkhsjfsI0UG2d+LX+/Q7/cLB7M6+OsbfvLR4+WdSyeB2vQScwIqK5xwotmIYrTTUXn7wqF4byq6Y0/70o8stUSPQqEOOu+CyioiVRklLA247YdQ6QPC8yUf+/d+LFrUWDkFSCYkJVgSOviIhKvsosVpxzg+rCqYwluir83ssyQ+97sPGlzqNamhxarQDlBLqVUwg7NkYjfiXM340dFRffV9f7eemp2ZNffydxadLBf26isU0kpLoiwFbhxrESOo5Z5Xfa7pIuLrgsHoCAfEKRRoomGegUGOkpomFh2VZ0GWKmal24MIhDROqFTAGWQry9naa9Ppz+wWyfQO5/QPB60I4sKuvIKBsZtVJBVBQt1OPPgNVZkin4vCcNHbacdi8ww4/5J5Jk0Y8vRNjzb3Z2V35+OTO5k9naPJCREMmYFEjSaZXgOoBspNJAVEamQbWZ8wiisSBfcSchIBmmdkceKoraLCCWUcRg8vRaQ5B8fee6hMf3ic76WmQL2J81NlvNtXURSuQkim3JkFOWJBNF6WFBSgrwj1hBZULFn11pFE2As0JG6EyDZSFEJ3UZgqDmIfyWCP+dMiIUQcWrivW1Vc3e+5+hBJkAnssXIMfLWnqHLNsTevRSY/B8qmQQysUVchNKAoT6oC0OvKlKFLUERyiaygj6jC61iA/MkbtrHvmBwOH5X7HL+bEZ76/xjlCUgvBFRkpuhGoSxhA6Zpa3HrAsOMOqWBP99X5nfpO28yPk8YRLSogh0KQ0g5knx4+GeXty/DAYTsMGBXprhFQfeDSV+Z/9KlSuXOb3i9wWsGCDbqTBJrqcf5PR+z320L2fl8d4//9+4vlnyoVg1vCFSBCItFUQzalhjowUmmovfLHY3oFgivntD31z1p7SqofaVpRioCGeeiImBaKWhsw9YTh6wDBbfX8hIc+WPK4G66EKYdpqSf6BuIpGyFZRpkqpauj7OFS4vslWuQw475MOWy/AK6kwqQh5XAQ9lI06JC0X4XyqOTJ8GXqnnY5ZThkh8O10pzxEOtUjMIP2uLHmEax6DAmWwapgjR0UottW45ZR4+Vt7X5A39/YtbUp2Z/dTqLlguJEnKlBAQePQ8K8doDIBDpjkz+ff0OJVM7WIukkx0kL7KPIuVBBX9OzVdOWvzbiXegqqIYOwwe+MGQAZWz+5eXNEfC4dUZPUZ41FwkNnK2dBxBsjX33gyETXrfcsfmiE8Tj0KWOP3kkkfEfwweMuSL0ZXawo1dn0TjA79O1H/yYJHeCYm3id6CIA8bpIUgOfAVW/RjSF5ICMoFozZdeN0qfZBFEy6JhtGDRx82BRAQkPm+JBhIAgisISja73GJdWlYb/kTudWA4Nw3mmqWFVTAUnzBNy6VdXgpWwiQuTwNj4pPqgrXiULVZSGPLAykAlEOVDltTef+qHT84VtATdwcc5Dz/6gufeTnyxuPWdQUO3qpBaSjZZAKK5H0VdH1KgheBNDE9qDuWrp7iCJKfHyuIuXY8MIctsMR4gYUetj9GCaE08uemlS1Y/Z4RBPZR501n3ZKIzWtQIjdEYHAI5E1DpQ3L8Gt+w2cdEj/UJ/VQU6d3T7z47h+RDs5PJ0EdDzQ/a3qCqo6V+HOgwf2HxPp7iwmCu8lz36W+DJUiRRpRWVWM57voUS2YLQsx3XHjq76IWNrNsfOG3rvb/41d8WnxqBBzaFy0rTuWFAAACAASURBVNZCWAUUCyhzOjBKoohg/UDwWJ09hWoEihhQTiG0grCVRnELAcGIdYDgqhX8mkfe/+rign5DkOQyTNeDFtZJSSQQ+bM8uFYCKbMdhYYCZpN8tiLE/lymwVKoR96F7ieFAJvrSUFXqUnqkBy+4QuJcFWMLCFZCkUIJPqFEdGZTc5G0wFT9I0Eabrq9uWYdsTwgrF9GIX0xbX522Nv3fHkh1/+QYqWQ6W5vCQtLlP/AAmm6SIiIBuQ3Un/a23nGzCJenbt5uq4Ee2TFGttkiLhMsIkmphqgeQksMOgqjXjRg57+NCDvvfPURlJ5744p62xD56c3b920dv3GnLD4aWhTihuWzCLgehhtIm6QDBxzJWpa1gWQEB3CMumiiSvK2IJgCCTUuoCAlu87lHzZUauh1hDxftuw0CQnUdQRzK+pJkvBvF4IsxTqPbhEziYAVuGK+DixCkAZJAjAE+lMSqUaj75e2V7T2Zs2da4eFTofWcpznjj89qL22wf4YISOJIMU9eQJj4zAZeb6XjN5PBoXSHmn1CRSSKqIoVwtAJhoijuUkMTha0i05jEzlJs6cwD+g/PHj+Bzu9mNX65gBcNIv0i0rHnRAuTmSjilrQsw72H77BRaYrNsccp7yVnftypHpFWVHGMglUd1H9R3b4C9xw6eC0gmMX5wBtfqFu5Si9CXC2ARxOTSAqdiv1WJ4YrduuFB1UN+rq0ytxz+M1LC1Z8pA4a1KYVCBkSSq0pkociqwVjWHvtZYf0nhq6ck7HU9NWmlPMskpEgyosXNVH2ImhrHkFbj1+XdbQ+QtSf3txadt5qUgxHEUX6QW6DrKqwnc4IoyJomAoqovGHY3UH7kCi2S+RYo6GGQiRh+Kol5wJt0rKlrQ0Koym2qgdIMCKbMoFQtEIV/MxYxdkzGUtdRhxuShpeMYa9+ca7u133vDk+/e8djsBX9QCisRIs0tWpHKDA6lLxgJ8JE0esB6obRKl9a/GAOZycuLVM7aAnPZ3gN6vy970JgOOaVCshIIowVHHLzX344/ar9rShnrM739vrYVT3xcZbct28tsrzlaYc2/lCTi96ch+ylIjGQvMnMZsnOYg7BAkDRok8QCKyujQWkQ8iwZKQuhLUTVK7qJKJKgiMEkGBCfERG9z9HhDiX66LYbERAQnPfWmpoV4UqStBFKmHTKlGImXX+K5miyExWZKN1CtOCwSsUnIO4AEcWB3LYUe/TTvvjDpB2+Npe7501w/0p+4vOf1T7QyKIGKZGalPahhiKSstCpjZ7+bcMgOQA3YCjQyp2iAhrlRcBGzVmksGnQyVGATEq0JOeQCXEZUthFSS59blJlFxAs5rzw7Fmr58/3CwdJugrH9oIpTCLFBJS3rcD9Rwyu3pIGrfXd6KfMTs38OKYckVZVWHQO5IioQxhA/7Z1geAVzgf99amlK2KFpUgZUVhcFfMB7LSNcp5CeaweVx0zNtyXQPDrlxat+EgdPKhdDcEgmQmiFco2isx27MxjtZcc1rvo3BUEBKtSU8zSaiHGRzeQoxEQdKCsuRa39tJQdsYnsWmvrIz9xiopgasZYoEioJtJoJSOmwoiWKoZqExGmDw3KahS5CZmEmTohyK1k+HQgwdRoCjsBUBA7xcTsyiK9AOdLaF4kAECAgNSBLcloHBNLZ45Zti2CQTvLfqDVFiOiBNEBJ7MgyZRRvx+vhYQkJ2EgKBY9gcaQlnOffcUsIxkNFMzIxp9cMtCiWKIdNuV554yfvdBwVCX3jbOaw2kY+VIJfs7XmpCa3trkdA96TFLcq0WM6oHZzvVeuxUEqPGAjiXCJ3X6kP2uOc5XJUorrG559okPD4ckr+r55o7+ebqUIneApV1ZPaaEa4TNYssG2k9ajXBNwq2VLCSoD6JbARBNw8pvYqigXjNZ0FEID5FhXPXR4c3FCV7PrkNA4HFR537amPNynA1XCoOEf+c8qKZLJ5YYQrH60Em0Y2AFiukf6lAFA7rAjVYcx0OGxB96pb9qo/vK0T//UcN981e0XpyacUQrGpPwA0VwZcNaHTb+iQHRWkTSYiq0VBk16SQjVglTICAJ0siZ06sFsoWUWSXzTMSG4T+HtxzKYzR4kufm1S9FhCc/+aaefN44WCa8uSQciFdc0IZJqGqrRHTjqreqCz05tji1PfM5z7q9I6MhRhSJKRJCWoPKHQ09G9buU5EQEBw+WMLVnjlAxBXwjAZDSkHuMVR7HaiuGMxrj1+jz4Fgt+8uGjFx+rAQW1aRMiCy7TiVAgIOrCLH1t2yWE7jelNffTyTzqefLA+dZxVWi0iAuoJcFQg7HSKPoLbeokITv0wNu2NlfHfsOIScFWHT0AvGDBiIF0wuYque6YhVbGDaVo+Obgcw3PJgycFyrDk6AnAFJ9W+cHAEQIDMXgkeHS7CoNBsZKJXg56zknFtnj1Qjx8/JhtDghueurdqY+8V3O6XFABw7EzQMBE5CtyuDSOMivYlvFnuYPmRYyfca09c9AcigBgm+qGBRKcxJf+zX85d9eJpdF5Pe9vSqmaHc9NSiSXnuC7HScxPxmhIj9cG2F17T6CntLYXc51PQ+NQzr/XWmtjEZ6zntVhURy6EG34VOdhGQ1iL6aZStRxNPFSgomJAR30caAIBsNZBcTVCsIFjMiZPRpgUlOk7IGRNt1hFhd0H1Nr9vocHdEyZ5PbdtAcM5rK2tWhQZAVSVYlqjHC/oT6Q4J0gE5TMeBTqmRoIFOvEb8XMpFGCEJbnsaJZ0rMGX8sCsuGq1/7eal82atnPFyqznZLK0UoZWqkaNTYNpBSodyxIm0jYKIBtcxwS0TRTQl3nGENLJFE4jo9mUSwlyGRy3u4agY0CJuF6oR0HAScfFSGK0mlz5zwNpAcN5rjV8slkqHWMQPpvyM4ovaAj0Yla0r8chhgzYqC705QPC795LPfRD3j0waHtJEYJBUMJeJDmgCgrsnD16rs/htzgdd/MSCFbx0MNq4DlPTxKIupAChdAyV1lJcccSEPgWC3764aMUcpf+gVuqAFvUVighcFJttGwWCh1aljjPLqhGmFCyNkFQYQk4CRa3LMfX4dQfT/PEzd9rLi1t+oxYVwaUVCafRky50g6bPmQiFQ0JqQgC0ZyFCkhxidUc0WkoDCvgHmCWcvi2pguURAEGwnhS1AsECCZggXVRxXxI1F1orOzTPmSTQ4Tj9OuvUByePiVYxRkPatpnt1ukfXvvgO5//WS7oB51olNwXtU8CTM6UYLauKBhnGC8Z5k1XV3FmaIv4PeNsu8ZC0hgfnyGsGOhoWoR7pp45bmJ0XRBor312f9ete9R1GwcxqRW6FoOh+0H9heSj0+lgsEtvsxFEen5D0tIk/ib4r5nVefAzu4mxmg71OHjBrGRKAgv1UIoiCQxphUQpHBoaFURBXcuFrKR1zsCdtS6saCbjoM5sQY0V91Rm1KbofQhYReI9mYiB/hXIXND7HLR7O6Bkz+nbLhCIzuLXl9c0hKoz8q2UZw3WydRmTzRLXfIQ9lwYiQTNTURHNIKkIgvtElqB2SmOkjATw0ai7bW4YP/hBx7Xj83a0qfk2gXONdM/q7sYA4YjwUhdMgVZ1eDRyiTQZRN9AMTkiNCqrq0FRaaJoZpq9ZPZ8n5R7f1+ZeFPy8sLaorLlMUFBjqSQMm5L6+uaw5XBCPzaDoVAYFn02hzAQRPHdgNBMRhP+eNhprFftnQtKtA1mUx0MTySMNFRlnrCkw7ePDofQu3TF+oN9v89sPkcx/E3CMdhaYp0XXQwBxFDHCp6KjHnccOWAsIPuR84MVPL1iZLhyMDjkCW5aE8B8V8qJOAhVebevlh+7SpzWCk19ctOJTuWpQs14kqHFi0pgEAQS7erFlFx++Y68RwaWfdjz56PLUcRZpDQmJiSD6DNlpFLYtx9Re6KOXLuJ/ffaLpku0gmLQVVIMGZ1WEnpIhuuZYh9+yoRmWTDoPvBIHJQOihw4AUcQ/9H1JSdvMwrhqShMQCBB8zK8dBEVcFhE+8sE+QQUCtECOYMjK5C5C9WJY2yBhweO3K1PHugtfT56+9xd//rkmvtfnXMxK6wUEuhC9kEiO5GxKSKgiXABjz+b4ehKdQTLu+6CcYY2SnpB2Y2krO3OJhw/+cAbzz18jwtzj4FSQK0LX/ibZqw4g0ltUAhUGNXlzIBpQ4ouYhZAIHq3DhCI+4hvFAiyK/jscZP/EX5XAAst75iohYg0l6B70X4px02OO5gwJt6fOV/xo6susJ6rkVNYF3MV6LsyacVgzistDKlPgv6Z7Z/I1F1E8TjomRFAsMczfXLfbBXWUC4QuLYDQwt0NYgaSiAqyiTJToTS7fjRiKFPcx3ek58vO8EqroAejooubCoYkn0oj1poxzCkcwm/6Ge7jdzf2PyOWxKI+/O/6hqaokPRlvahRaixKmjaSyV9lBRIYIkk/MQaVBaoGFBkvLBjYfjt/UdFXhwDLB+0HqnghZxX//bfyxpWRodAIhATrCEIjXTNd7Czllr62IFVXakhAoJL322Z+3kiNNomrRE9KEBSoZhyyiVt9fj7vpWTflKh9hlr6OT34zM/jPtHOIKPLUP1dSELTn1bZbFVuGfywLWA4BXOI7c9U5No0CthUdObGNwRDPEpUUyEY/Pxl6Mm9ilriIBgrlQ5qFUvDp4j4qYLIOjABJeA4P/b+w4wu6rq+3VufXV6T++VFIogTQIiKiAEEAgooPi3IQKiUn50UFEBERRQBKR3BJUeICRIJ0AgvWdqpr9++/l/+9z7JpPJhExCEgh57/vyDczcd8u+9551zt5rrzWiXyD4v/mdD91HQFA2SDTxiZUEkxE1TcS6CAg2ZQ39qZHPuue15gd4rAyWosOgQY2sM5mBmM5RKrsdR+xT/L1ajjQzwIjc0DNw+eODeGcUopKR/0TwR+r3Icphb/Y3bUJ1GfolcwVLlTyNxUgYKI1TN7pdzNDy1RBbtj0H8e2xrwfmLDz7xkfn3ESdxaTsKpj4jKi0fkNZ/0DQhz2UZw71AgLB1afuZFLpLVXrf3PFmWN7q/Ry/m5kxf8ef7O2MrOHojaLIizJF9Pqg1hKkhj5KZ3q59AFNvcyGxAaniSGFwym/ZoR0AAbNFcK56987acP01T0H1BRTTgW+j0P+cHe/47vHNaDbz2D/GbE9vr2WQSeyxu07/zaqZCiFgJ1RFeW/YkmIYMsEtTifAgIyvb9HDeUERD86qX6xY3kWUwDo6zBJiVRmhGRr2ImgVK7C+Oi3rJzjxg5nSR+T3o98e7bbem95OIqZGwgHlGQTtpiyY5cAsPCCqrTDR//6qhx+26tJPDvFzZd98AK9/xWtQalMaKr+QX5nGMgEglBSXdilJfGPpXR339jr/IbB1qsXcV59XefWtlSXzQcLs1MXFc4ZGmuhbBrYbJirLrvsA30UXqAfvZB5vGX1qSOQ7ha1BwEKtKAIgHxtiZcNDl68unjSh7eHi8y7ePsuYkn30rimIQegS0pQrefiuFU+K5MrcJt3xq5UWexEP97ec2Ct9KxUWZJhSjwC1MlKuJLBnjXIvzi6D0POjO8/bq8v//0snULpMoh7XqReJ/dQIOm1OjGnk5i5cVHDp/UX43gkvmdD967NnsyAQE1vBEQUKOcDwT1/fYRPJziB9/0bP2ryaJqZEnQDL7ZvJH2EHFSKLfbcdkxo0oO/xwzVrbXs7Gl/byyoOnYi2977F+kPkr5QSHVQCsCsfCSxUogP6MW6aH8ICfqIBvgU/QbBLUCWhEIIHBtqE4ap8885PwzvzplI+vOhneu/V9IXb5/ebkF10r4qw5GdEpi0QQFRSG/QAOKoCgFKR2Rs/Lz6pxm65TSyauP9jaWyWsLBSJywan6Ka0N/sf0a5HJ6JGpIPDIg0GQvyePgDysb7aZrlekN9fSIH7vx1DUAyRbnL/fa0CsM1p5+hRU2s7jLrqc0aj43GsNzW5c3BCp9ql2TBFFVUG35Da0VCsOqos9dNK+xd+bwZiYVL1AGjyPLW7sLKqFoRfBsByEwxocw4JGWjCZNMqsLsyodB+7/qCR397SQ5z/u5iFv/jhR+9j8OhMqBycZL5pxaHT+GtCt1IYobqdZx5YfdCxOusxlBjI/gkITv/X8paG4uFwNFXoodDQolHKy3Gwh2Ksue/QypG9Gz4uXW5f//j8+l+wyhHC1EYh3XuVCRMZrXUNfjg6etfF+1R9asG5/PmfSw1l3eyYLr0EWcWfsQq9Q81GVWIV/nHkuE0kJi58r/WJJ5rYzES0AhrVUhiDToXmDInpNeDUfcacc8UQdtNAYjSQbU57ZtW6Rax0SKdWJJg5BARMllCWS2BPp3uzQHDxB50P3r86DwQ+X5tSXqKPoKMRN52yaUPZK5zXXPvYyub64kFI6iExOaFxhIr8YcNGpGsFfvzVCSd/v4ptNzAeSAw+j9ssaEqO/8nVty9m8WoRJyEMLVzK6J3eGAjEAN370wMGgd0ksaeCNJJIMTkOdLsbN11x/pQpNaynQNy99M6LdGnZb0OhZjjGeijk1yuYl0H6hGbDBAD5mkBfBWoxi96gL7SllEcPu6d3Lr+X9SUnDSuSpaVrpyBwSiX7KSJSRZUC2md+lbBRCPrabIpz63PCIi1ETIXgJwGBZMEjbS+KF/mVexokl4CAHlYyBgFsT0KnPaqj5sv3VWyPZ2dLcdqmY5AxzTmzffooI3s2YbCgiKYfL9ONL9XG3n1o79CX+nbEPZvmR1zyn8XPGbUjkbJsKHoIsiPDJXZRSIFkpaCl6nH81NFXXTFGv3wgJ/cs5+P+8NT7S1qLh6HDi0BlIcGLNywXFTBRvm45rv3e1An7s63Pyy/kvOYnTyxvJiBwqTnOc6FKDmTXg+462EM11z70lYoRva/z1ib+3bteW3ZPe9Fg2CHysvXzqOTSVe4ZGNKxFE/Pmrbd7su587r+/W5aPrrFDcEOqyLVxlXKY6RQ3bEKDx01bROJiRuWp6687sP2y8yK4YgHFpDiPfQsRGQbY9X0gn8dVDN1IPEfyDYnPbNu7RqtfGgrV+DKDEyh/hIJ5UYCe1ldKy88qv8VQX9AQEv3qBCdI62hTVNDdD5nPLfiw/dCdVMaofv6UJKEXAqoCgFFuQSmF2We/NsBg2YO5Ny/yNvUJ3jZmZfe1JJEVJU0MqShLmxdeFarqq8F5BK5I3Ar80mYQshBDHgijyYrgiZN7BsCADL3ppWzKnmYMrLu9b+ee/QB+Rhy3hRJLP17JqqvFYqdwgjciwe5NZKSMKkhKVDs9Lt1QJ7SQqkzSEkFQNCTaskDxiYpmfz2+ZVCH5aP2E9QF6ATzGe8KJ8s/j+gdgqXtl5poL4Dvdh243RZzzOTT5sRYBAQiAYTYp458OQsOAWUxCyliPBEFdRLyRRpbRdxNCRr542acffB2+MZ3G4DTu+ToT6Cc+a2LybROar+iSUaFdKIapXuwAE1kX/cvW/JRn4E+e9ft46f9883lt3gVdTBYCHIZJhNOu6MI6wzcDOJaHsDfvmVibNOq2EPbSkI96b4IX9+8eNXUiV1SEuk9hkW+yP2Q1F3B747OHrvpXuFT9vSfvr7+8I0r/np86ubG4oGg3QFCAjIYUvI43oepYbWPX5w+fDeQPCyySf96fmVH1PnblqPQXFMKCR1yxWELBuxjnU4c99RR5z1Kb0I8ud7+qut/15kh49OehEhOkerAVd24Ehp1HWvxQNHTd0ECB5t54dd8mb97GTZEERs6vY3oZIeEs0ESU+pfS2uP2HkoK/1US3dlhgSNXDmC+tXrOGRkUktDEmTYTqu6PSt5Samm22bBYLeqSFKeRF9lKsOYgYBQQtuOWV8bGo/TJzrF3Vd9aePWi7F8PHwbFJVlaCTmFqGFEgzKEutwS8PnXTIcZWfvefFtsR0e32HGiAvuOzOD1uybIxLyrBiNqD4K7ZAbM7X6vFTLHkg8I9PZpZCUTHIdVOag6gZrog5cy3MPGy/P/7qhH16HNq6l99/AfPevDasroNKKRBiKbByn5Ujk6mpAUZev6JdI2jICvj4vuFLbzAIopCfcfcOSu+BuceLODCNCYq1ecew4ELzO9sgICfYRYJYvnG4+wLBFtJF1JEtmMQ2HZ9WGjK4ZMFVc4J5xjwFKnX9UEMWvXyyBRchZNwSGNrkG6qnXX3+9rjfOxAIOhevjZb1AAHlunTXgpRej0OqtTtv369/q0q6qIvndz/+5Mr0cUbJIMFZVqIMOY/6DmzEVQlxcqBqb8RFx4+fcPQWHLz+meaH/en5xbOzJbWeqUQlxZFF4xcLSVBa1uPyQ6rPOL2K3b0twVzNec1pTzY0N8WqIVFjHC0VJeL8+o5GEzWj/t8HlA7rDQQ08J35zJJF88PV45skDSrNuIlO6OoIqxLCcDHG637/yRkVe27LOfX+ztuc15zzwurmZr0CshuF7EqClUMPmKEYqMs04q6jxmwCBKSsetm89e3LvViEGipi4Rgytgem+s12WnsLvjM6/sCVU2KnftpzvLOLf+WueS1zWpUoTDUMNaLAIIExCxjMLEwzmldecNSoLdYIqGGLiokEBFErifLWFvx51qb0UTpf6ir/yaPzm4zasaJvJRyOwzNVkf4IawysvRn7FMtv/fDQqhnbs3Hu08bqs/j+RX9/+oG3FtbPckIxGC4H91SxEhCNc64r0iSii5b+UYNZvqOY0sG+epAosDq2r16qU2HWMeAYaVz0s9NnHTO1Ukzm6L1Y+daVHXWVTaW61AzJoxUA+dNGxazfIwkGAQI+B0um4jEN8p4VGLb074/QW9IiH7/e6qgsb0QTnLdYtYiPmFn01DZ6u5b1/j41lW70+SQg6A1KREOl06eCtfAwCQp3BHAydchnBC5QaogRw5DYZqS6Kjmw5RJ0ZatQPvyIr6mDTtmij/ZAnpsdCgTrImXgRHeigEKBapuQM604vFq785ZPAAIqWF73cudb73V4k1llBVJB/4ptOIjrChTbhZpLY6RitJ53RPXUGZ+gR/Rojh/2+/8unp0pGcoNLco4NZCQbZwqQ+/swunjtYsunBS7diDB6rsNsZHO/XdLU3OsShDNyKxCIppmMEuYoGbr/3Ng2UZAQPv484ed1/xtWfP/mXUj4JBpjxKB60iiY5MejkhXPX40ueqc88eGPlUe/kevNzwyu8v6djZaBYVHoVq+qid9SAywLtuAO741fBMgoL//Ymn2pqcWN54thcqhRkqRMm0hvOcwhlLPRk3nMvzkoEmHnlS77ZReApy/zG5698MUm+gWVSDDJSFBQhRQikeFlcKeTsuKC44aM7m/YvGl73U+eN/a7MlG+SBi4/h5W80OgKAJf57Vvx8BXd+P32t5+IVVHScq5XVwpRDsHIkjhkVaSjY9KJ3NOHLioPuvncK+sy3PxhflOw/PW37WTfc8+RelpAoZQbXToNBNEkwb0hjyaVTCSpJWjEEjFaWRCASolCr4+EJZ1IPkmNCYA9tI4earfzl1r2q/i5innqlsWTu3taJoPWSvDZ6ZgazHAEsRdYkN/RjUVOWzaPyiM02VN/Y42Gig7tNf0FciO89gCsCoVwOy3xSWHyDFa9OLXZS/v58IBEGtoYfaGgCBKErT6rUXEBAry5cv0ITQnKtmRPGKJtDEKpGo34pzOMyBKVWiIzMCQw/6bglje28XGY4dCATtixsiFaI92g8oFTzIgWs9Dq+R7/z7vptfEVCQnzf5+JufXbd4VaQK7UxBNKxAJgllVxKmFZRLVlPrcUApn3/3IbV7be7Fm835xN8/vmRha2QEMiEdJreEgqhkyaiwDUzUGhff9bXRE7flxX2Z80kXPd32cVu4XOj7k/m5IvsNNjQ7mqhk6v/1lY1XBHQcQTu9/52m3KBxyLoktBcTRWxSXyU2j2wlMMhbj+8fOPaw75ewl7f23JZzrv9zlXnVk4vX/DoXroSrF8Ohh4xcuKgTmohbHKjKNODumRvTR/PHInbNjc++86pXNREtpgxFDcGg82PEHgKKko0YzLucMw6ePOO4bfCJIBB44YPmO55ZmZ7VFa6GWlSEFDUeMsfXoHIlFOc6sQ/aV1xw5Nh+geCK9zofvGdt5uRc+eBeQOAianWjpH0d/nJS/w5ldI1PJfm4G55fsCRRNQ5NOaCChOdMTxThaGVAwoJ6Yj2+Prz4vpl7h374aVYGtDKb98GaH00aNPjlr29HavDWPhfbsv2Cdj7+7Iv+uBillcIfWGZUYA+47BLrAQIfBHyKqWC+iAY8yW8SJWqvaNh0YWeTiIeoSJfCny/fUChONT/0bc9455Go3ARudUDhVBwlXi85c/m9AsLLV7b8DtsACMTsqZe09Uaz/Tw/f8NSoM/sXRgR+7P//D7o0sTveuf1gxqAqAf02kXv+kDP5n4TWL4oLJrPeoNR4Fvsx8jvv/BlSOgcCAhCvnexmhN8ZImr8EzyRPBVL+nq07wOaW/PecP2u3i71AcExm3Lw7Gl71Cx+NwXWxc3iEarnGANcSrqkKprthWH1ql33blP+RaZMQ+288N+N3vJbGnIWLS0d6KouFyMRJTayUlAlHFE2tfhuHG1v71yav/GHoIO+cLa9vlGdThVFILNPOgkIJbmKJcdsI6lOHLKiIuu3MpVAZ3bo2+sfmSVVlaW0IrFY2N7njDKICojaRRNknPrHjm0eKMaQT52Vy5y/nLfe0vPUmtHwSBqnENMGQY57DNKrfZ1GMZMnDpxzM/PHM1u3lLM839/y+BjH3+n/cr/rG87OVNUAVWLw4UOkwp3pDEU0EGpxFeVJPP6wZt1GvvZnCUfzEtEpmaLhggaqRoGMjQ74Q7KiGbTtg5DWcKaufcep35/sDJgI5dHmviBLy5decP8lu59rLKRyCpxeLIi1FiVvPgWVFSYCUzz1m8eCN7pfPC+dT4QUN+JqBkqXGgNa+4AuwAAIABJREFUFXeuxl9P7N+zOB+r6xZmfnP3wo6LUyU1iEVU5IzAFIpYimSElc2hONGEL9XEFhwxqfrc47eyoZEYa8834qjXPl59W2umu7zIs/HTQ750yKG7UO2BZMnPu+Sfixoy5jBHi0BhYSHSR1RGoS4aePv2AEGQ8qBVt0+sFMRS6iOGJvlAUBSSwOwMbrh0AxDk1t97Wjb1xt1Fajs8sxNauBxIkU+2r7kjCqc0qaRicTDR8qUYeg1h+Xz8RgNvP8XajfL2+dpA8FT0Tu30FIj9rmHxoZeo5zh+tkN8erbNa20E7KCNOot9wBH9DaKr2G+AFH7GJGBGs0AvIlhBnpIT6TCiQ3tElhHm9kwIYqbcoQiVfuvnxWNPHvC4sKXxYwcCwfrFzeFKSNwQF0ODEfXu2EYnDq3T77p7n9gWgYBO/prFiSsfe3/lZfLgaWjJ+ugai8kwhMiYB5VzIY18zldGzvrBZorH1y5IPXH3SntmsqRUQB8xRWwrB00mfi6H2t2OWXvV/e6rQ/G7AxlLfVLQ7jH5hBcWtFy5rBPfzrA4HFkTMgO2BFicQ5c86I6HmMkwWc6su/fw/oGA8tSXPrq2qTVejVwk5MtRUx3EsKAzhjh1POfSMBMtmDSsYuEBk0qv3rMMc/rKP7/CeWh9GiPac9jjg3W5419bsvZEO1KCaFUN0rRqpmW4RbULVVAySU+J2upJ9K8isRZ/PWbzlpNPtdoH/+aNda92xkfAzDGEIkDWsXz/VU1HmJybEp0I5VIYXhp//8Ap5X/4UgWe7htDmv23AUM/XI4j3lvXcsbapDXdi5chJ+vCPtP0fME+IkWQ3QkFgtIPpUYSU9ym5RceOX6P/lJDV73T+eA961In58qH9gIC0hrqRrxrFW799icDAa2cLn+2Zf5iRCZ20n1UVMjMV8jNGWnEwzpky0DIMYBsEsNi6geHTxx67T51mLPfZmS4afBfYmLYK8utk99d3XzZekuTWKQYjJ4LK4kqdOOHh088+NjPkeXqlgaJPz7+/p2PzXnte54ehypFhIEMPT8+yYUGaioF0qrfl6Gggb83EFCzpWc7AgjIz1tjFmQnhxsv//XUPYLUkNV137mJttf+VKJ3g9kJyBoxZXyqpBhsxT86EvGLA/VEGkh70zf7u5BNjHB6AUOQ3vK/5qeafH0fGonzvQn5neaZQb0KxP2xhXr1UvQAB/1HL8+GvGOa8BeQSCrDg0xdtEQRdQkIJLhK1gcCcS4uJOrGlUkFV0fSG8YrR59bxkqn59XutnQLt/j3HQIEoqFs9vrFzaFqyI4BlRgZkEGFcQEEg/R/3r137HtbPLtgg7PmrHl0brt8gls1GEkaNWSSf/a9bQ1Kd3AT0bZF+MVR079yapzN7bvfJ1rsQ6+e2/BSR/lw4UZFTShkAE1yurSEjRM4tKxBqdWG/UfUPLXn8CEPVBehUSgOA+g0UL2so3XfRR0dRy7ptiZ2SBHw2CA4XEeIOixpNUDPJ+n8k3yGC0RNjj2kdP29Xy8eurnr/MMSfs4DHzXemCiqgKlrYCqxojyEZQkavQMELiHAtbLQks2I59IYLIdRGo0sS8mG15nLjJeVEBKmA0OJIatFwOOVghlkpIB4zH+PDDMLVQ5BViTkSCqAUW+Ah6ru1bjj2PEbdRb3PdcLVtg3PvFh0znRsqHoJvc1ar4ilU+VieuNuMTBd6B5JrxMJ6RUJypDMmriocUhJnmtHe2TTFlFUtLRDR1yWQ0MKQyHnK4CeRUaeEWDL61+qSApUmwyitNdmI71mwWCK97pfvD+temTc+WDhMSDmGDJtOoZGBDQtc42+Njrnl25dH1RBbqUEByuwnE8xGMK0uksVJUmMLZQzI15NmLdHZCT3SgNa6grL1qk2OaymE60V0lKZjPDO7oyU7o8FYlwKXKRMhhyTPSsGBmOqjiDk1iDKrMd18zce5soywN9Z7bndq+uMSdcfsPfFtlyFJ6kwaECZt50iyYsNB7TrJbAgGSTxXtFKqUCGoQPeS6XE+ARo1S3kYRCQHDVhT1AYHfc9Yt05zvXx9UuyMjBzeYga0QNpWJwfuYtpspBCiUYrIMa5CbXmz9BKiaLj99EJgQee/6fGrPoDOnjVzqEvo/YPN+30HvP/YBAzwqiz8oir1kk0lNBTSDf6dxrl0KhVsSO4kYgRI1zDC6lwKjHSCxGyJrTBVeJUBFDwh1zX91ef/ru9rzHOwwIfj2ne/E6uYSEFJA36iFQM5INOHpU8d23TS86Y6AXQjPK3z/flFrNimUzHBVFK9qnEIAShSMbGs+gMrseV31rXG1/xePT5tQ//r9O6TheUiWE5uh2i8mGeIgBnZL0dk4UqcgOj26PGNiJB+2SBaIELRaDFNKRtT04HoOmR4WENoE9NTiKfRHVl5RUPWCilGh49GslQz7pOn/1dur+V5oSpzQr5VDKQnANiGViiegetJElJygCKo/MUGyEaebAPGQULtyxJFFgYoK9QUJgDlShMCqa30XjZQ6S7MIls2zBsGP+C+vaGJpuwq3Hjv9EtVNacdz+8uIPl6RiY83IYNgyQ4rKPtTnQ1o5dG6i9d+D7DlQKXbk2Sza9ymHzOGRBLZH+WIGSQ2JvDHVeVRVhk2KrSGIn7S+po5T+p6qqIinOrEvOpb/8ptj+l0RXPJe4sHH6t2Tu0KloDHD71wHImY3yrvqceOJmy8W974n/1xnfO32txc831U8BEmlHDZTxf0T91NYZVhwmAFdYoi6ElRLguRoQoKONIeoV0ZMVIkD7hJrTIKthOEqmljtiFU9XZ1lIKZYiNoZlFgZ/Ozro7fIehvoO7Kjtzv5gltWtma8kTxcghyXBItPFNbzRuuEwkSf5v79z3fbeoI9RDLt9M55wvKSDN01N4vrr9gABG7bHednu966Lsy6IZNwR14ATKSCaCClF8x/fukf0dH98TtPXw2GMpG6CQAjEAcUHbnEuKE0ixcSwoGk70+mMD2NyWImv6HZa0M3dB8g6EsHDVJT9DYKHZGevoUepNygHST6BWh/pDdFrKd8FzMNGCaYTEwsBttxRDe1RnUB8WKQZ4mOhKkBxSMRrthvil7zvU1UWj/NM7BDgODVFJ9w/pzmRS2RWiiU36LUEHmRUgE81YQjhkbu+duepadvzYm/yPmE3z+1btE6tQgpOQJV1UCGW2QmIsygaXmaWI8vl7C37z2kbt+++36N87rrnlvbuJwXI0XFUyH25HeU0gxUOC/ljWfIipJ0jkSd24GmKNDJPcmm1I0pViKaIiFLapWhkAB8GhCFyKL/vApT9IlKuvGRr8Q3Mq/ve16USrjm+TWvv5XUpptldcjSGKsBmm0Jpyub6cKHlwq8ArxcaihxYZC3ryxDJ5cjEjqzbXEdZKgjaJ50/h6pNPo5VUeYg1M3qL+MJ7bD4GQjbj129BZlr1/lfMxfn1v+QZNcF2lxomL1StMomjnLNNiLQpfvtqUGOWOXtOsdDkmlPhDSqA/cqqiZSKFmJP/eiUYaieQ+ctBCsvCrNU1brBZqnSz2NBuX//pbEzcDBN0PPrjWPDlbVoUweSbQpcJBzOxGadta3HzKXps4lG3umXswyQ+665VFc5NFI1CfkaBEyYHLv5dCYoO43UR2cGiKoIlua3p+fKVSYoCQmZHfpSwAhEA30BSi2oceEdJSYOkEolYaeiqBg4bEn7v24KHf2Jr34LPa9qUP2mded/s9TyS5BluLgEVKkM7lEFJIAsHXDhK9BMLJjIqcPt9fDLpk9iP5KwfS4FK9LHQ33QcIbj/f6Hr7uggS5FXrD5Zix/mGNSrcUJz9/Do1qPqfQO9H9CwEvxGzeTWQv6ABmoBAeE/C49RHRDRM3zyG3L56irsBiAjWn8/d7KGP5iWh/bcwL1ERrBzE+ofkqQP5aZo9CICgGoZfE8gzm4RkBa2oaHCnY4jlsAUHBlljimv2GVjBpdH4JoWRdkNg4aFIs+E31Uy97Jzt/RzsECB4k/OJ5zy7bmFbbKgYaGkSmyOLRwK4zkYcPli75x/7VW0VENCF31/PT73p3YX3dZUNgUeAkPYQUnxUF4OwaUPKpnHMxJo7bpjEftA3WE8282/+5oWPnnZH7YEW24Cmh6D7Qn7ivhFYU55fphy6kDWhx9gf4IjmSb0CWoQhZ1K6BSAtPc8mCp0FSSIp2sBsh+oWXMYkJdvw5IyKT1wR0Dl+lObVt73T+dyL9alpzqBhMMSgZiGka760MTVTBqbVpFxNz5kZ+N7S4E8gpNJMn9yjJCCZM2HDQkk8Lt4j4uSLR5dWK/TPf2dRkxy4/8E7nI+7+l9L31ms1cTToWJIlomIrufFEsVqg94aGhR7syRshyMUIh65/9yTx0POcGFZBsriUSg5C6qqIgUPadOCqpEnri9nMJgayqym5ed/o/8VwUVvNzz4QH3u5CQVi4UImoWQ6qHUzUJvWIFbZx0wYCCg+/BWko+9efaqx5dLocnrY2UwtBA1cgqWVIRWMS4JBJJpDYkh+qqxYS0kPDd8I3daFfkOUrLjp5nlGJAk+1MOFJPHQrYdtbkE9isveezEfWrPnhRjLdv7pd5R+zv51zev7LTZSEcrRppmdooO7vgDc/4fOdn5hWNKQdIqiYQVFXgiVcOhepZYEehOBjde8Yue1JDb9o9fGl1v/THCkj4QiGo9rTJ8eqhotAqAgK7PBwJ6qv0+AjHoimWXLxgtOpvpn8CKgBUkGIx+X67PZqSVA+UsgrpAfjXRCwh8tVFfg2gDAPQGgqCQLMAmz0IKNs1LVdBqhAaZnv2LK/CF5ETqiAqEalB4puulegFJ4ThgIQ0uiyLrlSLtDk3UTjxlNCvau3173+MdAgSvmHzyr59d9lFH0VDYpgNJC8P2ZMSIItvZghl16j237lux1UBAF3/lR23XPfZx/fle7WQkHVnkp0mPnLshX+WRcsTtzThnatUPzhyj3NE3YP81+BFXPjL/uWRRHG6sFJYTBpNCoq+APrbrD2Q0YFJhlQZe1zahyr7WiJMzEdF0aIqOZCYNibwLaHAl3wL45yKRvr0DTFRz6x47pHrYQG4apWD++2b2/hdWNx3n1dQirSowaPZgk949oNGgQsXUIDUq6i3i+fcQUiVIhgPXMaCEaXsDmp2CrkSTcqi0vTuLkWS0Q5MQKvTSS0LvRkWiFbcdVzVgRzSiQf7h5fUvfNSZ3qOkohpZV0aOh8U7kl/JU1OdAET6pUw3xAci8p8gSi3pO8U00qLPIdvehhFV1Us6U9nx2WgxMkzym5WECxxHuZHEPl7bil9thj76m/caH7xvvXNyZ3G12DfNQklYvNhNQ21YiZu+c/BW+ybQCu2RxdZVjy1d+av1CKGoeBAcWwYzfN430xXQJRMQ25QTFBNfSsuRHAGlLGjFJYnitZCQCQyXFC8HlmjGYJbCt/ecfMr/G6E8OJDn4vO0zfwOPvGs8y5ZGC0fIrr+XXIZI5VPSokRs4dm6kKHKOggoP4B8u1gkgCC/IpA8bIIuRncsBEQ3PErs/utP4TzK4I8EFCuNA8EQtlhw4rA1/DvJfEgJuAbaJ8+xZQKsHn5aAKNXMA8oqGPwITqEPnVRSBa1zPj70UrpRuRH8h7D+g9Gki99I9oWy8ASAE8QZ4xb1jTaz/Ue6RKVBeI+nIHNGsW4nL+91xZhyGVoMuqQUntgYfFh5+21XTygTxDOwQI3jb5pIteXPtxo1YOR+GQQiFkaQZNjkJdLfja0KJ7btiGFUH+gq6Ys+bxpxqzx1mVQyF7KiyXGp0kcb+pGTHmpuyKjkb1J4ePn/HtSjanbyBII+iu/y39y+vrk8e3FA1BSolBYzSAkpm0XwgjYgLx+mlZHw5RDYHYKAYiuW4oiQ6MKI4tGzNl2A3/XpC9LSHrvkeFZ0HhNhTbRshjGKtlVz90+JCRA7kR+W0ebuSzHnjj/QeWeRp4zXCk5KhIWZHEMel4y7YtzlOSZFCPSTYgTsS4hyLFhZVsg9yxDoePqLr/W4eM/Mnf55p3r8q4M7sJpnQGkwStmA7mhlGeaMFfZ9bUbI4Bs7nzvnFBx3lPfLzghrVSFG7lBBhyFDr3oDG/NiAAlWoVlCmm2h69XzZQLAMxM41c82oMisjYf/rEG/YYjYuefCO77OM0hqWJKeI5wrmNvCLKrRQmZxtWXHLMxH77CH77xoqH722STkyUDuMhRWLEvOBWlhrKrNJMu/bbk6ZtNRDkr3mewcc++Oayq99sSZ2YCVeARyohaRGRss2S+gGtwjRAD95/kZYmcBDXT1Ic9AxYUJNdKDITqHFNfG3yuHOOnlj0996Sy1vzbHwetr137uKf3XL7AzeXDx6D7pQhuoZ9mxbShwrkEoRHcb5GRCsCSnb4M3h/RZCD7mZx3ZW/7LUi6AcIaMCkFYGYkftPVt6uURYrgvxMngZpmnzYG/oNaBktvE1igBOAgcjjJ4UHsO8JTJOVDRRQYfwiWoiDFUaP3WQ+8kH9Ib9iECuP4DzEuQTpoKBe4ovf+XUDMQELzIrE/gXjyBGSGUKaw6YBh2jkUX/ZrmcEvTHphdBlViJWPeP0itFn3rOjnoEdAgTvZnjtnW+u+bDBUYodbikspEg5B1xxnEypacYOHFrxu7OnV128rRfVwnn06hdWrW6GXimM71kUJPxMskSW04l4iOfc1uaiwyeOuOXsySVnbe4493fZB/97cfM5jQaOSyWzsATdMgw9WgyoIVieh0wuA8k1EOEmSpmBCaWR5YdMG3H2qeXseSpi3/J8S2OXFCklxUCSWFU9i6vUGMihDA17z/3h0JFbnQMmjZf7VuR+/EZD21nLu7KjcsIOkXydFUS1EGSmImcx5Ay/iE3go1vdqI2rzp7jRv/xy0Nw9zdCbCld98/ndL/8QYbP6JQYnBDNxwkIyJgzivLuBvzlmMFbDQS032c4L3q3KXv+nKVtJ3QZbGIukxXVaU0LQdHCwgbS4RJSOd/iUOcOYq6BIRF52X5jhzy87xjl1oMZa6Z9HffvZY1LWXmdES/zV+I0oFBhNtWOvXnniouP6r+h7IGPGn778IrURelwVUJXVEmltD031bBrZMvdbPj4b4wtzavbbuuz9h/Ox7+9zjv9vZWtx7V0W2O5p8GVNKEtRRRXcqTzXFtImlOdwwHpMnHEwxLKFM6HRvR7Dpsw9I5ZRWy7eUxs67Vsr+9dccczf39p7rv/L1xUAYvsORnN+n0HNz8tuEGfn/oMSGGIfgoNLr4pEJC8BDru+JXZ9fbvdVoRkMKasG8NgEDMpKnW5NcIxIqdgEDMxmkGRjl/wSf3VwxiwKcaAI35UZ+WSdaPVHiWkoGxi+8sRqAgagKBFoX40a8+kD/D32jAFIwhgjya7eQdxQIgCWomPaqswj+BiAT5OgKBgSUEMMkFjU6fcWJg+JIaJrORYxHYkWGQIuNPqxjzs3u31/3rbz87BAjoQLTENv11V8/Hd+YFG7WdtN6XcB6nFXjfY3R3gpWXAWMYwf+WP5SjX9OZ/XJ9Z2ZyW9YebkIuc7jk2EaORSSWGFZVum5kZeyV6kos26MPf5y46MR87HselAUb6PE/6QxfNfiY+k5rcnNz59RMyhjK4ZUyVYXFHOZ4ufayaHz9sOqSd0eWxRdW6VjXd7b547nZl95Ks0O7qHkiovqaL4INo6MysQJ3HT26pu81bTliG2/xvsHHrGnOTqrvzu3TbriVadsrMyx7Cnec+WHZS46qrawfWhb9qDIqL9yveFNjoe89vbj+Y33Y4PUsDM9xoaiyKLwWkxKos37FRZtJDdFZ9PcM0O8jgLO9Z97vcj6qvtndY+W65inr04khro3iEOXiPMY82XH0GBIlcX3doNKiBUPLSj6u1lG/vc9ha+/Njtr+mjufvX32vHd+gHAJHEZMNU3YoOaLrL4AnV/rIaDIA4FKK2Yv67OGrjxvz2lV7P0ACH5tdr19rQACnhUFVV+axic75FcEAghEliYPBD6xw9/GP6g/sPvPuQABQRml/VFbfQqcuaBZI83mZc9PWW30EUDQW1G01wa9txU1gQAggnSrTz8NqKSiAzvPbPLpqT1idsLOllaRihCrFClFhVhELgwvBIcNg6OOfk8v3feM+NAjPt5R9zG/3x0GBDv6xAv7H1gEfjw399z/MuyIdlWFRFXPrM/3ViUZlV3LccdxY7fIGhrYkbZ9qzOeen/VB9rIER16kWBM2TaEAmmtl8E0u+UTgWDbj1r45qeNwL0vLfzZPY/+5yZLjjBaZbpCE8gfUoQAoGj4okKxLz5Bg6AiVs0mNDeH66/6xd5TKtl7PhD84wKz653f6bxb2MVyYW1Lev++RE0eCPKdvIz7c0wesJN6BrSeBrLAA46ySlTLIAorpeAlLlLxnkgtycI6lIr7+WKw7xW8AQT8awhSQr1+0oBPkhciJSX6BPI1En9FkDfqoY5qP4UV/AzgkdJQRLBwpTBcSmHRyoIBpmfBlcs/iJXv/c/o8H1vYWxvwYXb0Z8CEOzoCH/G+z9vXvrf8zr50etLokhzhiLi/dNSzXYxwmzBLTMH1Y74BNG+nXH6p//34+UfacNHt8pRsSqnsYTYRfFUF/Z2W1ZeeNSEftVHd8a5FY7xyRFYnOTlDz/1ym9feHHuD3MeR2lZlaATUxOeruuCYkx9mZJM6RnRVgrZNmAkW3H7n/+494Q8ELTdeZGZeOs3Agi8rEgz9bciyM/A86whGozFKqGHIeQ3YG2QnqAHikjUCrKujpwTzZk8whymqp5H/fa+kHZ+JUM/88J5G648zxLyf/rOYQFBgJFoJOmfOeK6VVlyOeeyKjjHxBwVSwhiEniS0MnoWbpQ5w0412E5ksGhL41FK18vKh31nDK04tWdBQCFFcFu8oaf9mzjkkWsfFxLSIUlSYh7gGpwRMAwzGptvOnoqjGb82TeWSE6+pF3+croaKQixYJdRFai9B4NRhp7u00Lzzli7F79SUzsrPMrHGfLEaAU6ZqlHV//eOGKfdfUr51uZjMhclWXJOphZzA9TzhOytyWwgrzNG64Z5xy0lkTh5aJtAdvvf3/jO63rwl5pJpALiyUTgo6lUVe3Wf25IvFG4CAhNv8moSfISI+OPFWg4YuIuQzDRYicFH9dnjCX/YDHu3ra7blC9yhW1SKU2dsRt7Keocerb+dF1YEOz3kO++AtOQ++PFlXnvVGCQo906NcTaHYjsIyRLGyanVv5tRMvGzzGOTKOA5D8zPdFWMR1KJ9PQ52JaHimwLvlXhPH71wcNO2HlRKxzps4gAb7/9QqPz7d9tFggopy9km339/3yxmGoPPseHwIDGUcsv9vZ0HhNQhJCxYkhbNQtq9715uznrfRZx2lHHLADBjors52C/8zmvO+2RJY3JurGwbBc6SQKQzSBxly0TB9WEnrh1n+jxn+Wp3pvkB13/7OK5dsVIJDzqBpVEWog8rvWWpThrSvnVZ0+pvOyzPMfCsXd8BHjQUNYbCPz27EBriBMryWcFbQQEYqUQ2GASR1kUl2lVEDRrEXAoUTi8BCmz4sOyaTdO2/FXs+sdoQAEu949G/AZP7mGn3L5/HX3t5TViLwnrQg8y0KEZDO62jBr+ohrLhktXzrgHe6ADf9vOf/N44uaLnYixXDksGCLUCaV+vtKO1bjgv0HzTpukL5FS9IdcGqFXe7ECPC2f5yX63zzBgICJiQmqEYQAEG+j0B4EgRAQI5dQQex/zPoAM7LRIvt6PdEl1ZgeyrSVmRZODrqessrdhwelV1J4hp3SCyFcUmmrlRPEgfoI1kqBRwooSAaWJpRbFyVJPWEmhpXPM9mCnN5jFdNmPYvxsZ/oorxTgztgA5VAIIBhWnnbPTk0saTho2te346I+fuT/8574WWJ+Y5oZktWgTE7COdZ5IQjjo5lHW14NzDxs+YVbppw90nHfnJFa0njRlV+a9JjOVlHT/ViX7zhabFSxEfz2TyalXgOgoUiawIPdRk1uG6bwwfv0/QE/GpDlT48uc6Arz19p/nut76c35FwKgzlIAgLzEhehH6AIGowwbyD3laZ6AR5CMD1Wh9qRgSPCTNHsOWIam+R4frkAAjlbL78kc3hMo34RHuyz4LqtdP8k0mHGGkpaYChqfBZqUYNvHre7D4ATuc8rk9b2gBCLZnND/Fvq5YZv/p1Y+WnFtZpHWc+tWxk47ZjN79QA9xSyc/6N55DXOdUDXSXIGlunAUmhkBcTOJPXhX9sKvDxu2N2MD0i15jfP47bPX/m1t0pg1uDj6wU8PG7z/p3Htout4oNGZdfXrax/IVY6Axkx45DznqQjrCsxECtOi1srHD60YPdBrLmy360aAt95+Vq7rrb8MBAh8+j6tCCgFRF2g9PElI/wOZvr4Kr1MyDr7CsHUm2JYadH06Lg6PJdBIqEy8fWNwSD/v70Hf0ET7Q0Ewn9EgUMeDAp1+UeQcytRN+lbk5j+zUW70t0oAMHn4G5d8EbL/c80ZE7xSquEcccQlm09Y+9hx5+4DRaQdDlvcl504Zz1qxqcSHlEaCkpSJLZuCaRSgVKsm04PJb9159nDD9uIJdPzYFXv7r+pTfbjf29WAU0M4OJXuKNc48dM3Nr5Snyx3s+ycf/89XFry8MDSntVmPCsUoTFpUqIkxCrqMBJ+855MprxrArBnKOhW127Qjw9bf/JNf55i0hsRj2jeuFA5pn+5LWYpzuJSkhKsQkFREAgRC7IhBQhOcIid4JFzCbjIb87mNReGJZv2WAAII6xIn2KYCAaKh5PKD0ZEAVJR2XvLpo3leAeiSERqgLhTHY1KSpKrCkOFJONaonExCcWACCXfuR3Lln//MF1n0vrWg91YmUw5Z1uLBQJNtQW1fi2KljLr9sQvSqrTmjVziv+dvrXU+/2Jjas2jQUGiGLbjclq4LVU+SQi5qW40rZ4w4/NgKNntL+ybFtFzXAAAQYklEQVQxvPtfaX7+zW7rYLekRugvkbMbt9JQE0346VcnzPpJGduqHP5D7XzC00vbXv+oLVNihqvg6BE4ZMxtWigi5zMrBymxBpefOKH2yM+4x2FL8Sn8fftEgHfe8+N045xbYzotULNwEPaz8WQcIzwO3MCZLOw3cclURyCVo6AZrJefgMCMfBpHNGvlP6T3EzA0KYVE/6i7LKTCtRMwHRORaDG4SZ7I5LImwSOtL/LdUG04ZhqKK4FpmlAHJtVcIaNOL5ZMkpNRpNwqlI4/dgIrOmHJ9onMztlLYUWwc+Lc71Gue6/1oTtXp09KlA4jixmEoxAS1x4NiLIFrbsFU6PqxzPGDr562Aj5iRks/xRvursPOa+a83HnrGfXdl7fwIrkbLwShsug2rZQ9LRVSQjXyak2fKnIXfDgIbVbpNERN/y3L9bPezfp7pOJVcBkKnTSlQGDRd4BnoF46wp8ua7ogxnjhp57yha8eN/kvHr2R9kfzV665soGFka4ZhiMnI2s5UKPkckBIOVyCKea8ZUa/e9/OWjwjz7D21M49E6MAG+7+0fplnm3xfT1PhCQD4ewuHWgEhjQYCtagn1zd66k4ZGDF60CqGegl23kRgb2PXXfXpIR+esSQEB68ySEZoORVypT4eXIkY66GuOw7YhIp7puSmh6kZ+CLHTfXeSyWYTIm0FY7RH4RJDkFSiaesI4Fjpu2U4M36c+VAEIPnUIt20HC7vtQy+5998vrRn9FTSRUTcnUxcqkpLpho14WEMukYQmuwi5Nmp1df646tJ5w0oxP6qiRbi9eajOpDBlZWtqxKruxPGtnou0IkMpKoIiR5BNu4jGdKQygMts1IYdaE2Lce7hex48q2zLImjPrOc/uWTeoltao3UIhUoQDQO5Thd6REZXYMJTLNtwu9oRsk2MKit5f0JdyUuVcXwUD6OFFKW7TdS0p7wpK5q7hq1o7Tyhm2vQS6vghcJIZ10UR2VkstT27+vJM7sN1el6/HXmngOWx962O1D41ucpArzt/h+mW175W0xdL9I3vkaRXyCmfL0qgCDQ7pc4XMkUDCJSIe07iA0YCIQ1pOo7UFH/mSAM+bKy1CmcsXSYvBK6Xp5kYF26bA21Mg2Mu52IlwKOlfZ9SIRXiATXCyGFSpRMOWEsC52w/PMU3y2dSwEIthShHfj3a19Z/MSjzd5MPmoi2jJZZC0TlSWlSHcZwu9ACzGkSCdLoiYwE1I6hZBhICyT6TU5mHmQ1Rg8rQiZcAxOSIKsejCyGWGMEgvHkUgDmgTEZQtK+xIcO6ny2ssm1100kMuiZq9rX21+Z0EaE121DJbNEAtpyJFRdFwVfghkTBJSJITovw0DbioBZmWhSjYkVRKa/basQI6VgusxmJ4sDLtp3KcXyMnmEA6HRf+P7GYQSq7Bjw6ZdPLZ5ezhgZxjYZsvRgR4x/0/TDe98reY0gHwNLhEHgakxeObyqsEAsJrVXSTwSWVNnLzctlGQNAbBCgy5FPhf/pZEQgXsaADWeLwyCKSHkQliqQVgoWKZaV108+Xi2rfRDzWjc5cxOxa+sNU+4d/jCpNCKlpXxGVrFm5AteNIIVylEw5bgwLnbhiV7ozBSD4jO/W9R9nrnp0/uJLzbpadGthktOGqoXgklETGeOEGDhZIbqmmLmEyOROpZmKB9M0SbIcqhaG4SiwyBBH8XOgwuqUhYSqYSVJodYvx4GDlcdunDHy21tzydSdfOVy3PDEosZzrdJamLYkGBKEBeQ1TC+nQnoropfHFZ3Bik7+EB4MxxJ6M5ZhQeOaqC3YFlH5uF+sCGwgFeYhm+1EcXo9vjdt9O/PHRu6cGvOsbDtrh8B3n3P/0vXz/l7TMhEk3kMibBxeBKpe5I6pwJJDOq+rj+l5qmYTO9IfhDbaCXQIye9KQDktyMcsEn3glJMEoNCBWcHSCcjsMLTlpdNnzqZsRM3oUk7DY8fmWz6138jchMgm8KjWfWIiBFFipejdNrxhRXBrv9I7vwruK+Jf+3h9z96fnkOsMsGI+2FEFLCvrE2OZE55KkczLBdDznDgqKEEI2qQlrFMMhBTRf2p9QwRmYhiqaIuphucqit9Th0sPro9TPqTtzWq7t2LT/nof8tvNErroWlF8NSZZg2Oab5/sdC9IteXonBImtPco6UGLjDoTMJ4cBVUND4dD+tSybdEXBEvDRY6xp854CpfzhvhHzBtp5j4Xu7bgR4950/SNW/enucvEFd6iamh9+FK2d9LSFX9uXT8/6/Qm6CFgWU3tmY+uk7peVjsTEQ9AYLHwhcsXLldEybQWdRdGfLERl8wlR9yAkLNhfRxIcX/UmxF58rywlI3ITqqPA88lcjIJhZAIJd91H8bM98bobXPvlO/bPz2tNT0yV16GYR4ZGsJIFYyDdCynAXlsqhaQpCNodtkvKKLEweaCZORS2qW1EqSXYtSIk2VBtdOGH6qMt/OWnr2Ef9RYN8i297dulD8zvNaXbNeCQcCbpQUOTgiiQc08gzmWwmXSopk4EIsfYsDwqThXcx5XxTOZp4cRSHGXjrWoxEGj/de9IpJwxlu5x942f71Hxxjs6Tt52ZWvvGP+IkEUH+nvSgyBa4nIIr28I5TACBcASjj0/39FVGN/CCNhjL9JMKoq9tYjpDgEO7sZHJuFDlcuT4iKVl+9w8/pOiy+vvnpKof/XDkN4CmRObSAV3I0iyEhRPP6YABF+cR/OzuZLrlqTPeaux8/JFndlSrbgGmhcR6RSTcpiaDENlcEnT3aGUjA7HlchMDY5B2u0GQiqDlWhHjNuYXlf20KGjSm+ZVbXlwvBAr5Z6Cp5Yalw8b23i7NVduRI9VgxXDcGUZbI6gE2DvyKDiBXcpa5NQFdUmLYrupp1lUHhLuxsEkquCzOmjnrkG+O0K45ibPFAz6Gw3RcvArzrjjOSDa/fVQRaEZA9JQ3QNqBQvcAUs3+Z8vlU3BXuX/SbwBu7NxB8Qk1gE4cx0TRMMygbiCnwoMOyIujIDpo9+MCbD/9EIODPFHW98WQiqjVC8ZKQyPrSDSMhFYDgi/d0fkZXRLTN+Y3WMW+tajjho6bktxOMagJheGocih4DNPp/sjAmClsaYcUDzC7EeRbjK8Mf71FZPHtaTcUTX9+OANA3FO8mecWC9Znvzl299rQmS5q23pCR4SFwLY6QGoLGaTlvCY0jx7Fhe8TwMBD1chgel5fsP7zmyb1GF9+9v852Kb71Z/RIfOEPm1j39yOU7LLnIk4z/AIZubbYvvcfo6YvG4zJwmtbfITuTyAvsVF0+qwEKMWUXwX0dR4jECA/Y2IuyB5souKxCNqzQxbWHXTr5E8Kur32pq9mmua9GJG7IDtpSDJ54mlotYtQtd/JBfroF/6J3ckXOJvz6qYMpq1qcA5sauuamE16oxxJhUtWXgrjEY2tqCjRmyui8uqhxXjvSzG8tbO1+5/lfNyKNkxb0+pM60zYo1zLHSnbpiRxRw6F9WWyzFisKL5qcJW0YEwJ3hutYfVnKX29k29h4XADiABvey3e0fhcskheBVXqAqwMEKZZthB6A7VrERD4pvP0k9JH/t825o9uKSXU24KS6gu0L/8IQoPCldCZrUTRyNOma4O/9sHmTj296KI/IfHhuVGN7PSS/nelEnTzOpRMnTmOhY4s9BEM4L4XNilEoBCBQgQ2isCq1387d3BF/UGesQR62AIME5DifoEs0PkRhShRIBbLAtEM1ruZbJOQ9tQE+mEPCVaS5S8uHB0KNDCHqltl6FJGr6rY87QJjE3ahDVktN7+Ta/htadVoxEK8bRBXc4mDJQiJ09H6dijKlnRjAFpeH1eHoECffTzcicK51GIwG4eAavhhWkdbU+/XxRah4jaBddIQ5aKAB5oBYmxX/BGBwQEgiHEiR4qqsqbYgRzYfOsaAqDGRYsO5k8DaJlaE8CetUey7XSyb/QK6a/AEy0kX62oqP1w+8bXYuvLTJbENcccNsE0xVYnoG0UwkenfFCxZTzj9jVbmUBCHa1O1Y430IEvsARaF/x1/+z0x9dUxxpQ0hKg1k0mAtaj3/V+Tx//mcvaYl8WHoXhfOKoT4YbPj423BwOwshec3DvmaQZwFhDbZtI8tVZBGBGioGd224pg1dVhBTOVSnG66VgayHhRxGxtHgamMQr/zGNG3w1z/c1W5RAQh2tTtWON9CBL7AEeD8XbXh/Zefi+hrD1W8JoSlHFQqCgvZ6QAIKE1E03dhQrOx/XC+T2BDk5lPY+4LAqLXQBCPqCjtAqoCkCaKSYwlCwgp4J4Dgxo4dQ0eER9cCZITArc8yNS4qVLlQkHKiMLCSJTWHXSBPuI7f9gVb08BCHbFu1Y450IEvsAR4Hyhll4x969m+oMfROR6aFIGMtFGEVBHqdeAmQEQBDWDIB59gaDflBD1vbgeJFF70MBpFaBnwWQJPCeBCb0Toq/6fS/U0GaZaYQUFWBFgGkBigNPcZH1SO5lDLTI0ZeGx596za56WwpAsKveucJ5FyLwBY9AatnNPzYy798akhLQSQKCVgakFAoDkpQS6qPCV4CYP4FhTL6j2B/YgrrARo3HktAGEqkhj4FxUjO14SopQVmVLA0sVAIkE8LRT3Qvh1Q4ZgZyQF91bBfQZZiyBkOKoaR6/1nKoF9slRT75+3WFYDg83ZHCudTiEAhAj0R4KlnKjvWfny7lW44JhbKIqSkIKMLEpKCUspZVKRnBPXHI0cyDzI1NQo6J/OVRXvqC2J67+9bFJ1Jt4jMbyzywYFrWpAV6gcgOVH/uw51yEsyuKyBgxo4dTheCEwJwZCqH6oYe9w5LH5A665+ywpAsKvfwcL5FyKwG0SAp+ZWJhvf/VGme8X5YTVTEtYtuE7GF54LROPoJ+leUW6f3Mios10hjwHBHuolL9HjP08SLb79pMQ0kAcxZEoXEYj4hjeibY1pMF0NhqOBS6VOrKj28kjd8NtZ/MS2L0roC0DwRbmThesoRGA3iAAVk9Nr1x6Yy3R/Oa7mjrCSa6YxnixiJHwIUr+1oUgkt+JAgiVkKuj3vk0lpZV8M3o/cUSaWKrwOeaeBlkKwbJV2K4Ch9zoydPDkjnU4kVatPbuePmI+dFBtXMZ25u0dr9QnwIQfKFuZ+FiChHYvSJAKwWYreXIpKfkcskRjpn9kudlK7hrDOHchOeZpDE6GMwhehCnod8HAs44YywULm4gnw3T5qmQVtzKud4ViVa+E46Wr0VF5YfQwh2MHfyFmflv7ukoAMHu9d4UrrYQgd0iApwTJWgOkIqX9FywK9qAyQHJ56IyKiIAiHndQIozNiMwNN4tQrTRRRaAYPe754UrLkSgEIFCBApAUHgGChEoRKAQgUIENkSgsCIoPA2FCBQiUIjAbh6BAhDs5g9A4fILEShEoBCBAhAUnoFCBAoRKERgN49AAQh28wegcPmFCBQiUIhAAQgKz0AhAoUIFCKwm0egAAS7+QNQuPxCBAoRKESgAASFZ6AQgUIEChHYzSNQAILd/AEoXH4hAoUIFCJQAILCM1CIQCEChQjs5hEoAMFu/gAULr8QgUIEChEoAEHhGShEoBCBQgR28wj8fxCfKcpBxgi9AAAAAElFTkSuQmCC;" vertex="1" parent="1">
          <mxGeometry x="60" y="170" width="148.46" height="50" as="geometry" />
        </mxCell>
        <mxCell id="ffs45p9ADlgt0rEeM66C-5" value="" style="endArrow=classic;html=1;rounded=0;strokeColor=#6c8ebf;strokeWidth=12;exitX=1;exitY=0.5;exitDx=0;exitDy=0;fillColor=#dae8fc;" edge="1" parent="1">
          <mxGeometry width="50" height="50" relative="1" as="geometry">
            <mxPoint x="190" y="359.5" as="sourcePoint" />
            <mxPoint x="320" y="359.5" as="targetPoint" />
          </mxGeometry>
        </mxCell>
        <mxCell id="ffs45p9ADlgt0rEeM66C-6" value="Data loaded into Python" style="shape=cube;whiteSpace=wrap;html=1;boundedLbl=1;backgroundOutline=1;darkOpacity=0.05;darkOpacity2=0.1;fillStyle=solid;fillColor=#93afd7;strokeColor=#6c8ebf;" vertex="1" parent="1">
          <mxGeometry x="70" y="320" width="120" height="80" as="geometry" />
        </mxCell>
        <mxCell id="ffs45p9ADlgt0rEeM66C-7" value="Cleaned Data" style="shape=hexagon;perimeter=hexagonPerimeter2;whiteSpace=wrap;html=1;fixedSize=1;fillColor=#93afd7;strokeColor=#232B94;" vertex="1" parent="1">
          <mxGeometry x="320" y="320" width="120" height="80" as="geometry" />
        </mxCell>
        <mxCell id="ffs45p9ADlgt0rEeM66C-8" value="" style="endArrow=classic;html=1;rounded=0;strokeColor=#6c8ebf;strokeWidth=12;exitX=1;exitY=0.5;exitDx=0;exitDy=0;fillColor=#dae8fc;" edge="1" parent="1">
          <mxGeometry width="50" height="50" relative="1" as="geometry">
            <mxPoint x="440" y="359.5" as="sourcePoint" />
            <mxPoint x="570" y="359.5" as="targetPoint" />
          </mxGeometry>
        </mxCell>
        <mxCell id="ffs45p9ADlgt0rEeM66C-9" value="" style="shape=image;verticalLabelPosition=bottom;labelBackgroundColor=default;verticalAlign=top;aspect=fixed;imageAspect=0;image=data:image/png,iVBORw0KGgoAAAANSUhEUgAAAL8AAAEBCAYAAAApXXS3AAAAAXNSR0IArs4c6QAAIABJREFUeF7svQmYXFd1LvqfqcaepdYsecSTbBOMCYMhxsQOOIEwJU4wxkNyE5Kb95KXm/vezX0BY0yGL+NNbuZckAFjh5BAAiYO47UZbQbjAU+yLA+y1JpaUk81num9f629q05VV6tVLbdkger7pOruOlV1zj7/WnuN/3Jw8tFagUceSXPfr8y8eO/BA+ccODC3bqZa/fGdu3a/brpS8+Zmq2jGCeB4cF0XKVwkDpAkKVLzCY7jgP/sI03Teb8fyXJ3f0b3e/i5fPDZ91z52UWCJEngJDFynovBgRKGy8Vow/q1nx8ZKHx+bGT4udVjK5/42ZcPPOY4jj3lIzmdH9hj2nfqB/YS51/Yv33loQt2TOx92cGZ6gVPPrPnlbOV6Jy5WrUQRkk+9Xw4Xg6p4yJKPSQAIv7nePC8AI7nIo5jNKNEnguFgoDQgjELfP6dgmJfy4I6+3Ov99rXCWg+rGB1v6/ebMDzPASei8DzkMYJkjgUIaBceA7gIYab8u9NIImavu82B8ql+mDJe2zj6tFH1q5ccf+mTevve+trzr3vhwgG+IEG/yc+kXr7nHteOzF58LKnd+551eTU3FnNMB2I4AzDdeHAgwsPUZQgSQHH9wTkYRKLZnc8X8BPEMeC7zYQCWr+S5qNeX/vpbl7CUgvoNn3dj/z/fafFZbEceEHeURpAsSJvG51uu/4cFz9PU0iAT+FBGksQkuh8H0KeATP4XE8MK4UA3dqfGxo+ylrx7+yatXol1580bpvX3baafUfRKH4gQL/rZ/75pmPPvHMG599bveVB6erZzcSZ4WbLw80YqAZu0jcAKlDQPuAS+A7cNJYAOI4npgvBL6Aw/Ph+b78TPOGB7nERxq3NLHrpPBTRwBlwZ3V4vybAM4IUD8AsuDn91vN3/3Mr44cHxRVh9IrO4R+H/giAN+jcIfmmjwELgVcBUUO83x9jiMg4c4QwnNi5NwEgZfCDetVD9H+saHiI6dv2vBv5559+peuff3Ln+7nWl6ox57Q4P/oF7Zf/N1HHr/m6V27rth3cGqd57oj1IRxmoqpQhOd2tGhlvZ9pI4HWhERNXviGNs9FpOCv4u+Nxo9TR2kEYXAgEnx3zI/aGPL7/JPtXLWPLE33IK3l+liAZ7dFbLane/h9y+0a6Q8b88x+5HbuTOYO6uC7Ml5J0kku4Q1oVSQ2z4D/84dQf2HWEwoCribxMgHNPtchM06fYvK+Mqx7aesXXvHS8/a9Okbrjz/Oy9UgB/uvE4o8H/qWztXPPDQwz//8CPbbzhwaPasJvzBpDCAZurC930BbhRFiONUwM6bngWfXYislk6cGEEQtN6rTmoqN56fVcoXkCJGEsUCCC4YzXhqWtrjec/v0Pq9bPNucB/2hmSc5qxwdAsFP4M7UsSdwXMNuPWTHZdAVROu2qi31oYCDdeR33nuYRiK6WcFM2s2cS2zu4/sYj6PdkSA+H4/iVBKmvDi5tzoYPGhs8/etOWC887+9NWXnT15IgjDCx78f3fH/S96YOvWX9u+/bkrG5FzluMVEMWMqnjwCyXU0xQNUfGqfQl21/Vle1dnkSGZtlbma3JTCd40AtyIFhBgzJ2Y9rEL5AOCxEOjXpXfXe4LSST/4jhEo1FDM2ygWq3K9/B77T/+znPhMwXI/px9zoI5KzAWdPaZQLWv828ENf9mtXm5XEYuyCOfL8L1KMS09WnKeLL75QslRFGMRsjzoZzoe3nRSUx/gJ+vO4MIFK/T7GJi7pndUK4lCWWn8wL9DC9NUKTC4RohhZ9LkYR15P306dPPXPeZC884fct/fvMrHnqhCsILEvwf/Nx9Z37nvsd+a+uzE1fGXu6UGAHC1EVC0MvNCwywEhq1aEa0U13k83mxywV8SaTaSWx7dVRpm1stx+Pg0CRI0WhWJUIiDmwSYW5uBtNTB1CrV8wuEKJRq8nvadiEwyiKz1BngiDwENPhpPA5agZRu9KfELPb/L37WRxRc3z22b7PPtvjRFhp22c+n9ciu1zqIo54zYAT5FAslJEvFuG5AbhXFYpljAyvwMDAkAgH14WCks+VkCQuwljXjOahmFlGcUSxhmoZ4aLOp1nYcrzNtblJKo4z145KQZxrL0XgJPAQwo0aO845bf0dF55zxl//2tte+dgLSRBeMOD/+J3fP+MbDz1w4/Zndv9kHcHK2C1grhHD8UtIvUC2cC6+RjUUxB5vVhroDUki0VsOAeJqaI9WPJ23FBE3a9A6TpJQQFydnUOtPovZmUOIoiaazaaYAQICJ5WdQ4WBn0PBUdu49aDTKEhMRAj4KkXsWD7znBw5LzrdPc5PTDRGdHRnotnD32nm5XI5+H4Og0OjKBYGMTAwgHyxDJdBARFdPnsIY0qoLwLBv+kmqnkOWRYvRsz7kepuTBNMAgNJBCcO4Tshck4MP62hFKS7ztww/umXX/jiP3rnT1307PEWhOMO/hs/9B+/+MRTO967e89B0fDwCwgTD4mT5/4q27UklFxCS/+J5vUc+I6LpM5QHTUP4PMYgjIJkcYNiWvPzh5CrTaNysw0KtUZhM2qCA9vHz/L95y2Nss4rrz99mFvtHUO5aa3XtbvPC6PFvi7v92cT+a8uh1ya0pRu8t10cF3PeSCEkoDAxgaXIl8cQAjo+MCfkbIKAwUMomWcQU9hoBTRI6aVFYAuLu4CVcwEeXjpjF8pwkPTSTNKs0irFu36r4z16+98aZfuvLO47J2qjKO/eP2e59afc837n/ftud2/9JsEvgztVC27kJhQKIutFEJ6GykIyHwnQix2KTU5roDFHkfkghh2EC9VsHc3CzmZqYwMzOFsFaB6zuS8KHTSiOX0QwRIuMHUBtmbW6b/JTjzSPNgEjtYFrC+vCocbu17rFaUkd3nexDzLnWo70buKkNuXYKuygTY+8zsSf7nGh5Y/7UI/ilAYyMrcDwKE2nQQS5gppPLsPDHlInAA09CoTDBUp9mxKRMxHfi36Tx59pjkZI3RQFL8VoLn3m9A3r/ueq33rrX9zkHFstckzB/8mvPXv63d/69h9u27HvZxqJi5lmghoC+PkifDcQ0yMOI+Q8XzbeZr2KgOCFOqGBn8B1uRPEYqrEUQO7dz2NRr2CSqWCRq1CI1gW2s/lJDrRqNbg0gZn9IJJH7nRaqCIPR1ljG8JZ5pEFr+H99GYWN2g5+8EmpP68nw8Hhb4WeHsvqGeieZQqfBBM0l9DPokKRy/vR6qFmhCMixKEzEFHeowjOXeSKbP85AvDYiZVCiVML5qIzw/D98vwKV5lNKHYOjYRZJ6cNxATCGarTwF+g9USBIkaNYRRDUM5Vzk3WT/maes+qufeen471922WW0YZf9cUzA/6Xv71395bu/8ZcPbn32Z2eaDuqxg2bqoVAcFBjKzptqCM3GpQu5QIDopCHStIE0rCFuzqFWOYi5qYOYOrgP1cqMritj0RKSUS1OBzRkcioBgnzOGEsUGvGGiWjd6p1Uoh+MY4s2ZzlCa8lVI3JnUHEwNq55ThwHLsOifMUIzLLfra4vEDyn1LyZvailPM1ZM2wr2Vsbz+dSq56m5mZST/axljRriJPKh8dEzRC+lElkfAqza3JNmmGM8sAwRsZWYXB0BYrlUfiFATh+GUAOcHNohBGakeZTRMDSWEKmvusg5/to1OcQIJKdYCiXHrzwRRv/9A9+/e2/v9zruezgv+l/3fl733v4if+6b6qayw+OoMnITUyg5jTqwOBaGMH1GZvWRAxDkClDh0kDcVRDdfYQpib3YGb6AJL6HFyH8XXAD/SGaBhOw4ui1bjIIggeGoxlS5ELNb9mM0W7ERC8ibT/U9kH9H0Oi8M6k1ZqE5vvIghEa+qtoVN9vDS/Xks7CaehIGsGGf+nO/lGzW9LJbiz0Uk1SqPl50g4V5NcPoMKrA9islCUga4NV4PPdJzjKEU9ShGmDoJcCeXhUQyPrUVxYAT5QhlBwDBsTtbQOt3cUKmk+P0Sek2aCLwEQdpEfeYQVo+Wn7po87m/cdMvv/6zyyUEywb+v/rMfW+85/7H/8eO3QfORFBEMwEaTb1Y0dKMoqRAzg+QSoiMIcQEbtJEktQwOz2Jg4f24sDkHjU9TNEKNYa9CWL5E/QMq5mbYzU4o0IUomK+0IrD0+bnDeMNlcpMx0OdOwHPyX4+n0WzmVqZTJVm+yao6aDgO34PifOYLLOeT/ts7Plp0k72p1Ymm0cyBGorQFniYXMTohS4G9JM9DRpKKAVEzDVUg8TRaJyiZuh7hRcT9eUgFCYoPmDoeEVWLliNYZGViF1cpJXcP0iHDcneQhm20U5mcga/bc8zSDPgRPVsWHVyBcuvfjcd777TRc/74mz5x38aZo6v/23n/3r7zz67K9WQgchfDQjBm4YWvMRNRui7QPWziDivqo2vZOgVpnG7omncWByAnFUF/vedWKNb1PrEOCg7ehKTFtusInWSC0Dt/zUFSBTSEQQGHKjqUr71mznvNniWDNTGeT18wgSmgAStqSAGUNe4vQUVAKg/SzRDvmKVhbhmEuBuJgivHrd3ecnO1MreaVaW8KjrGNyHXjceeOmrA3tdRUKRnD08yS0nNkZpIS7HeYyn02ga1acKyGKSpSMrj99uVo9QpArY/WaTVi1eiPyxSGNHDkBEpdhVApCrLtAkNN6qiiURGPSqGDFYP7gS8/e9Bu//ytXfuz5XOTnFfyf+Mrjp33xG/f/08NP7X5ZA3nkikNS+qsqUuPwvidBYDEtAjdE2DyIqQMT2L9/vySXwAIrASrj9VpmkFlv/ayWCdK9FOrIdsOxu3pdnVqjzcRuNvZsj2CDJpl6g//5vBFL/Sy9Nns9ncK54Gdmrld3DpuhyIZwzVJ3IUQzGp0PTRhm98D253FHpsCIMPCf50uybXx8HCMr1iHIjSFMWHCo4aBW6NWYqKK0kga8qILzNq369Ovf/pKrrtq8ubnU9cq+73kD/y2fu+8N/3H3t7dMHKytTfIEvYd6mMAPPFncwLX15E3kfA/1agV79z6LqcmnEYWzsr1KYdUSqyCfj8U4+RnLtwLddUK0AvxgECMrT8P4mlNQKpbRDLlF++IfhAnzChoVol81lHfhRhWMD3iP/NTrXvnGG658yTNHe7bPC/j//J++es3Xv/3ArZOzIaqpj2YawPELJrAbS2lsEtXgpRHiqIrdu3dh/769cJ0QUWNKnsWAyDR+ZIvPjvYiT77/+K+AzaXIPmUadJKUYe4R8HnV+GqsWbcenl9C7KhfwJApeyok4oQYeS+C15zFmtHi7te+8hVX/B8/86OPHM2VHTX4/+Hfv3/VF75y7z/t3D2J4sgK1GIHjSiFF+QRRg2x26JGRbauman9mNj5DOqM2CBFWJ1Gvsg0eiahZKITtrS4V1Xm0Vzwyfce2xXgTq45g3YjkD0D2vhhJURQHpbkWr4wgA0bTsXgyDhSNw8/X0a1loiZxBwOC1xGSj4qU5NYOza86yd/4jWv/U9v2PzkUq/oqMD/ia9uO++Td37ze5OVJD9TrUpjhOPnJcZOQOf8VMoJosYMdu94Egf274LPRJObIKVDUwhQr9e7MqydGUi7Gyz1Ak++7/iugNZKtbPorTCrCZmyDbRRD+H4rBtigZ6DFavWY+2mM+Hnh+B6BTheXsKp7JsIGEmKmyj4PtaMFe57+9UXvWqpPsBRgf/X/+Rfv/fg9smXVCJNMDFW34w0Tu+zuMwJcWDfLkw89yQacweRY6g3bqgPEJiSY6kn7mzEEJ/WlASfBP/xBe/RfrvkcjK9Afy8tgnEMhOWoLuSRZZonpcHk8n5gTGs23im+AP1RiJ/99lbHTEyxQSZBz+u4OJz1/7tn//mm//zUs5zyeD/s3/6+nWf+9r9H55qFNB0AxQYokqaaDQqKBZYqjAroN/73NMoFVnuWkNUryBgnTw7gsIGooS7QNABfi6MbUzhzxJnPvk4YVeA97K7tyELfhYhMtMbsBc5ZoNNCr9QhucVxeRZs+l0rFp7KkqlUTSadIHpJ+QZk0Vcn8GKUogrL7v4it98+yu/1O8iLRn8v/wHH9/zyNN7VzecQThBHo1GXbT6QImRnGnsfHYbJid3wkeEKKpqX6jPmg+ty5GmjFwejSZr6gPTiWToN7KZROME93thJ49/YaxA1uyRzHCrTZSNRyHyOU9yP/TtWGLNLrRmxFwDm3ZK4vSuXX8G1qw/HUF+EM2I+Z4AnpuTfoFcMofzT1/95b//7asu7/eKlwT+v/zX77z2zru/c9d0w0NDyhXIFZMiFwC1uQPYtWMbDu7fhZTxWcZ/HSaabEmySUuKbaOJq2ypcL8XcPL4E3kFNMs/P0/OHAzLSHzETMq5eYyNb8T6TS9CoTwmZhGbm3K+i1zaxHA+xlt+/Edf+u6fvvh7/azGksD/+x+568Of++bD19Wg2VGePOsykrCKg/t3Yu/EU6jPHYQnFZgMY2YTIJ1JEgX/yccP6wq0E5C9k2Q0c+LEQ2FgBKvWnoYV45vgBCVEiek9TmKU3RBXvPK8X3vPda/7m37WcUng/y9/8W+PfP3BZ89LgrLJ7FHzx6jOTkpUhxlban2WJkhziTmjDi1/mKxqPxdw8tgTfAVY+y+PdgOOtRIITilnYS+Ck5OM8NpNZ6E0uFKoaKRvANT+Nbzs3DX//Be/+far+lmNJYH/P/3e7YcefOrgiFMYlBoMoAkfIeZm9mLi2SdECFwnQsjElseIfsa8aTV+WI1/HDuh+lmpk8c+/ysgWNAq2RbblmlaknJ2BszjBIFfRJL6Avp1m87GwPAqRGkOkEpRHznUcc6a4qNbbrp2cz8nuSTw33DzbZXHd82Vml5Ra3bSEAGamJ3ai4kdj7XAH8V1uGyIZkGU2HDWvnfhSmeDKcE9tg08/azPyWOXcwUy4LfEYLZVVXmREiQRG+RzGfCfi8GR1XR14TgFcZRLuQSnrwieu/Xm6zb1c7pLBX99655qfi7UWmzp8HSaqM7sxa4dWzF1YCdYz+n5bDYk45lteNbuKSk+a3U/ndT8/dywH6hju8AvhACiCKn1k1afBRNfKQIMj63HhlPOQWlotWj+iIQycYzBXIKzVpd23XLj1Rv6WZ8lgf/693+s8fhELVeNA3heHi6Y1GogaUzhwN6nsXdiO+qNWQQ5lg1HxuanLLPiUhW+tgByMzieFfH9LNXJY5djBZxEIzvS+ssvyHSiER8k3202EhRyw1i17lSsXH0m3MIIoiQwjfQR8qhj86aBnR/6nXds7OcclwT+a2/6aPOJPbWgkQ5IG11izJ7Aa6BCu/+5J3Dg0ARcjzU7NsSpNr717lnZzIeaRJTyHlGfHnQc/Vxc69jDNZj/sJtcz9PadPAQdZc991zjdh+19A4Y0787Msg+CpY9jI2sxbqNZ6E8uBbNNI8kyUnRm+NGQPMQLjxl9Nlbbnznqf3gY0ngv+Hm28LHd1f8WlyQFrWwXoPjMGFBENcxdWgCExPbMXVot2EKDiUlLWluNoew8cRyypBXR8x/Nqjo6bQZxPT4ttBkTST9jHatf5fwdNzUXoJ10udo+WAdDmcWPpldeR6ATaGaUWLtxvg2p4/eZN7TRBqHLBmAVLS0zBrLrKfN7ZLVp60vOSAPaehgeMUarFt3BkbH1iNxCqg3+JkFBAUWT1aQS6vYvGH4qVtufOcZyw7+626+Ldw6MevXUQRC9m2SzyVCnNTguSQwquHQwd2Y3L8TszMHEId1IGaPptbrC6OLVPpFSNkdLRueabUjFYY0PygXDLl5OsDftTUuCH6RjCzoF8on/BD7HK0ARC/IHA74Ct7sTi7glzsrBIetD2RXmHCbkihXuuQsyZdhiY5UKQpBmER3UkmaMpLjBQUMDq3AyvENGB1bCzga9fHconSCsT87yLnwUcH560ae/NB73vGi5Qf/+z8Wbt0959edAtJmJDSBdFAazQrZA1HM006bkxLmHc9ul/KGOKwJmZRIvHDFaLeWlLqaPTOr8ZWFrXPSSevC5nUNLXzJtue05xFseexntX4AjxUIH8b0W7w53ygnsd0zEUuzVtIeaihjhGIlYekC21YNrWPKcAmb4sXFFTOa5owXFKW8YdMpZ2BoZBy5/ABqDZIaOEKsRQGrNRtSIOmlVVywYezJLccE/DR7ds34DTevFNYSsVRPXWTfibUfNg1RnZvGoUN7Mbl/N+q1aTikriNXDClJSGfn6i6gD0MPYnpjpSk6Q7vRgb2ebXPznWcF/8JOtfoaP6wiMJ/0qlu+e/pimXvVOr7LdxDfju2fQo2uJk+LHMv8LFSKLG4UOsoAUUQhIKXNMFaOr8Xo6GqUBoblNc5VoGMsSrFFH6M9xUFawwXrR7ffcuM7z+xHPy3J5r/+5tuixydmvbqTg++xUI2TP0gTnlNqb9KFOA4KZPP1gVp1Ruz/yQO7MTszKd1cXBiaQT6Bb3hzqA4s4zF/bjO2ZbtyO4Ha6h/l4meZ1eZptG4fgfXh5N45CX7lHDX+VisEbdY5w/fTAazD9lFbdaLKUHlCtaitg/+HPbssZyZxU+pKF9fg0EqsXLEWI6NrUSwNSUt3PSQ7tgM/p2zSIccrUdGSah0egqSB89ePPLPlPVeftqzgvylN3advvi3aunvOIduaA8NanLJ0laEbU3PBsKYMbIukmyt16pibPSgCcPDQHjRqM8J4LOAXu5D0hMqbw05+YaQxXUCiu7ON5hlN3d6WtcYo++ig8svyVhrB0JCrTa/3s2w/KMdS82uDvrA6ZC+ry1+ab/6017ttWrZLFOzxyt7M6Tdq1wvbc2zNXVfAT2ZpMjqMja4R4A8MjsFJC8LTSlpEqRCgcSQ7iRIRR3YajpMT8G9eO/zch993zfImuT7xzeeKd3z+ruq2vVWhGkTaELpu2mpCl52QQlw5WzSqY4hjSWLCBhfWANWmsG//bhzavwdOFCJpNKUBhuDnxUWmGE7YG6StURMebfMkq5Vs4kxdLT46SGR74DRrCv2wGjx2WdrqIpt4nGf8tKsPWi8p3aEonC6WOP5N19g4smSQFEoZMmpzJyBTXgCXbHqej9HxNVg1vhal4giSmHMFlBHa9noIrw/TpcLskcDxiQudh0BziJWd560enHjj+dduuuoqFpQd2aNvs+fOO7flb7vnG/WnJhuoJB4Cn/SYytMiA94sZbYhSRLtKkF9ujUN6cSHS94ccrPUMfHs06jOzaJenUOSkpGCQyNIXBWKoyRsypIHWOCGHEZzK4flYaI880yjI1u0H6ij5tVadeydLU7T3tdsTMkWg3b7KLtTi50ugQsfrpNT88rNYaA4gOLgENZuOlU0v0cOHzq7tBwcKtVAaCzbQzyo9TUnpL6EmlHMBRP8Z68q777h0o2b+uH57Bv8nHB4xyO3Rk/sqaDhFlvErnrZWaDpRytoO9PWyoOjwyEKLlCtzWL60AEcPLgfc7OHEIZVkLBX+lgS5gjIsqbfIDw+psVRBCvD+CBYtozDPIaukSFjst1D7cU09VSt3aXz9mYpvU9ksB/uOoQIjMC0sXrTa9taI7JAU1cZwi9Z/wz9of3dUkRavlQeQ7omIbhyOUiER3oIAtr0YxgeXYkVIyuQL7M5xcxNY3hbyINtLb/UAsjS2wkxGdFq/civoMN77prB5Qf/33/3u8HX73i02Qb/QtAwiazDIodyq2xtbHhJwlCc4+mZg5g+tF9+Zv6API6cicU7Idw+XFMTGyafp7KrMRKgtqWdjNKi28sIZpYSRVngTmRoH/25S5TZADqrPKz/ZOd36WQYu752valclHNVAhVmYJ8MqGDFJWnMUxel8jCGR8cxPLICpeIQHN+Xaky+lhqu/8OjqFuxto+mIj1m4L/rrrv8LXc/F7bBz4iJPRmrQtpdW52OqmoAVeEanRFSvFS1O80jVvJFcQNRs4qwWcOenc8KdWEchvqPuYJYRw7RO6ApxfeRbVkKR6UFzkxKNFnl7MJKjbjl32Q28bCJgKMH1wv7E3Rskx3XpGHEzocA24xDIp05Kc9penAMkqRowHC3tqEq4VQANyAhVQGen8OadZsQ5IoI8mWhMhd6Rxkxxe9h+JKCYCN19tvnO85ZsuDsjkC/I0grOHf1wMQNr910yjE1e7wO8FjzRjYr+aedXjbbarayTCSBNCaMCNnEl/g29Fm4OglLJlzUKrOYnjqEmalD4htwGJyMEEobWtshbZJGg5nYcqtXVPoN9DUpGjSn0+KjNewR2VveWxO+sGG80Nkd/lo0zMw1sbU5lgPVKgj2V9vpi22uT7Nj0t9K2U9bENIBP19AsTSA4eFRDA2PoEizhixsJCkwgyxoDil1oXKGMlDSeoiP1ulEK/17Jhzd8inb5hAzvMcJ/JllP2zmNSsEWVtDM4D6MIPdhMRKQ6DMh7Ud31TqiGbnpjE1dVD4+Rk5SqUWRFkeuHOQM4gzdLlD+DkZ3SLgV7Ja8112wJsMbf5hjfm0k092AJ5EY8y0GjqrcYMsw+RjMtNajPagL+U4Lgr5IeXnHxnDwNCITIUks7+QDDJry9toSldIekuCXFt2InTlHXZnt/LMinTmHnXkGDgkqXZswM84//abbo2t2cNxlH0/MpqfoM06qdaJ1bi/J1pex0OYWVwycE5DXQQ9RxFVKrM4NHVARhJFzbrO3CLQOcGlUTPbOt/PCAEZmzWkauuHWmZQ1iQyP5/otImWzr1lmGbse008qRmooNd6Ki0w1GkqnJojo4dkeAVndhVQGhzE6MgKlMuDMukxNfF7rcmiE81ggsb0czmliGfupkVTKOTaWr9lAxKqufrDkj36OIE/L7NY28ml9vakUwK7H/Z02xcp5ojY5mY+Lr2AiJNV1K5n3VBrAhb7gQX0yghHQSEFtmp8HRJNhjiyPc/NHJJpixxdxDGjIWuL4qZ5H3cK/Rxmma1Z1EuIs4LRt5C/AN5ey5kYAAAgAElEQVSwkPDa62J2leaHS61sAOt4OTNQIhA7PV8cxNDgKMqDQ1JX49KEkeMl+p6ZXMNcQXuQB+VMsv9GkXE8lM3dpLHOJ+5cX4uZ+dhpj17q9id91fxrBnfdcOnGU5fV5u/U/FrQpkmozhPvDX5j2pjECMFL7S5agSY+N0zGgzkHVsJeneXMOpRO/m9HdCRFqTsBz8UWzEmy2I3RrNcQNqqoVGdRrc7KUOlms46IpFmcDUBzydEb0flPxxfRlp1fG5RNDemrNt95zJ/pPPaMWOn9ENKvDF2ghnztdHVGW3QkqR/kRUtzaHWpVEa5NIygUEQuXxKtTwqRlmaXHA7j8VqpySn24MhSKVNXc8g+pGnJaHkqJx0Zq9M0OTONNITtRw/wm2q5BcEPF37aODbgZ5z/3x+7LXps1wyaXqk9ysl0Z0kCQpqPFeitea0S0qKfbkyYVpOLxttVizCVTXtRk2UUIO4sMtJSRg4p8BOXldTqKPHvtvJnHgcMj5fRR2ZmlzF1SJYkBLhJEwcPTiCKGggbjZYjLcOUZWfJzPc16XSaWuJTWPMhM3zaVjVKeJuVig53JtWQrWYPWRONV/R8bg2MM2sSab8DF7rjc8wcPZcmiZlWo8DW+hcZN8TvYXmAjGpSM5IzePOMvhRI/1fC2Nh6STrJRHVDHiZ3jiUIsm6m/COj3LrDw/NSiQs1yPTsCVjE3+qq2VJBUeUjeo9Vnm4D564e3HX9pRuWV/MT/J95+KOs7UEUDOj0DoIwsQPazLbUUUtjaSb01DsFwIBfLsZFbPp9teiM4GaiLDXmlR7LYyLROp3g72VlzN9azYR20fShUCuywpS+BwVCUugykyoUX+HQ5KSAPQ6biGIOquaOESGx4VYjBJ3mhd6c+XSLR2LTdoLB0v11O+XWXOD4H4ls+WQ48xHIZEROomSDt4PRlStFQxPYjL+zrEB6Kghqx0etRtNDQ5XdvKi91q7XGh+vv2Vt/nNWDew84/3XntLPONO+UzyM83/orh2s5xfwawhRZd923NvFUA2hvbvzR/6qxnYTavnUtLElsntyKxX7M6XGp2CZVheOy5KJKkqHogMEsxGC/m+D7gyZMURmlJFeF8uvGeUww+5oWtlhdeJ/UPDZgKGVrRzXaSe5i4CYLX7eWR3OseuhNQlKAtpOTtfp6VpDpcrEaHlqfM7Q5Q4g83Fp9nDnMDsC48jm88XZz2r2/pfuuL+jA/zj5efOuPm6U5cV/Lzi697/sfTxiVmwmaWzaU2TS3ZbVNArUPVhtZrRjExzxNpQEgvgOfAskaZ2u5W2m917OUFHt/4KGjOrKvNR2XyAbbm0W23nWVgB6KThbrESMxlE82reYyHDZ/6RMqnGTFDMDo1rlxlk4uSmVaj9KTpUTmghzaTK7A6iYV+da3wiPjqiPWsGn/3oTdcegx7eD9ye0uavJTmpubGDm7mA2bZCtbZVQ/d6SA9AyxJQ8Lcc2i5xac/N0tleUiAnt05Znvt9tMwU2sQZZ5efoxMf9TOts2bTA3bQmn6fhl/lPDIhxPa5tKebd57fQi5yDzGxM4O7Xso2hmRfEkfU+hOm+cNSwDOUyZ9tnZOAnxlzkxjsdw2P9/GSEiNnv1NnG+Ox6eG9/ubbVPOneU0c0exp0RKqtremTsuXt+WvLQYHNYVsfssWL0l0oIvbU3J+3NIFjYzqMCOsmVtmGJkmX+iRtVuzMW8LeA38c+hZe86sfpZ2DWlsuj1cQdL7Jk7dKrPNfHkbWMblN8m3pQLFxsG7BdR+HiMmcoZixvA2UC205wi3ufFNs4plwFaJlYn17cn0bWG3Av1CDvWKd8lwuNdkJ9dTH3rPO5a/gf3am25NJcmFQjvOnwG/At9oIInGUEtHLW0tt4GTwykkLscSma2BI0QTnWhuk2eSZeTQUpavmsYLEmJx8IWYRMnRaH5GqVk6LWLYoeltvEoH5LWHZ1BIJF5jWCU4CDur9budxAXt/iOUhla0xZZoZOYCq0PdlN1WWlEYRxfl3u59tmYXo0K9hJ/CLDql57zhIzzJ43RYVvNfsGH0qS3vufqYgD95Yk/Foeb3BbjaZaOdU9apoiMr3qN0e5HMnNpa9RQpSVgg5SP0coilwMmAzwDfN5ljER3HR5Oxf3sMIuFm545zNG2I0kBvEmfdpos045jBy21wtAWkdb/NwGpbVWrNijYejiTCczj0tE06pf7gDqXmi/gh0gluNsGu7K0974UqNyXCY+L3xwm/R/W1stMxkpVWcd7a4Sc/8r5rjgl7Q8I2xjb4aetHrSgNy1UZqqQWJ0jdpIJiLsZQ2cfwUBkDpQGEtRj7p6qYqqWYacaok61CBlVTeGK4cUMskmYYwy+UkHhFhJG2xHmpgxzNHgrI4vQCS17gI4ataQO0w6CX/IWLvXHB77Gptd4foOKz0NX07y8tdprH6vWsw3vButEnttx49dn9fHffoU5++PU33xY/PjHrCvglCcGEToRYojRMcSv4fQ6ajmtwkzm8+NwN+IkfvwQ/cuFGDPjA1Azw5LMz+OSdX8K2nftQjT04hQHMVmuSrR0g1WGziSCfQ7UeynhTn3QWbgAnSpCLG/BcB6EhvernotuqslcIVvaAjo+TkCorVPv6kucbVAt9u432dJ7zPJ3QZ91MX5d6nA7uAP/60ce2vPfq8/o5laWCX9kb0gJ8KUlNEHuhycCqwxvEHnxmRSvTePlFZ+KtP/kqXHgOG5PVPc05QDMBHnl6Dh/950/ju09MwC2tQIW8dY6HEic1zk0j73MAJSNGSk/nshaFZEVRQ783F7TLpvu5csE4cwmdoUL9iAzQKNgmMdeZ2bTHLADyw9EA9nueYr8sAP6e55/hz7FhqgW+s102sJSTOr7v6dL8j2658erlpyhvMbYtAv5ApmY08Lafeg3edMVmjBU0WSWdnCnQILWPD3z4U1/FHV99CAcaAWpgFaGPIiMwUR1uGkrpVAISk2q9DxkfCk4iJlKFXKFLne4i4F9A/lugyYJOk28LmxAWDEeg9W3avvv5sHjqFoB20sq+bf7VHH6/OpE72Y47+ANpOE6QuGHL7LGan+AfLzm47ufegCteuUZAT0Znl7X0Ibt+HDRc4Iv3PoxPfPF7eHzXHJBfIfUaaXUaBaeBwYC8LXWEjgs3V5RZv4gTuHFdokWRWxDH+egeCwOkQ3FmbW7zhfP66uXvRwD+BUvhDncl889TCwiz39d5zOLgPpJzPbrVXa53HxfwX3/zbc3Hds0EDRTRCX46vVrHQ7OH4F8z6OKGn78SP/ayVcilCYoSp2cNgwKW4P/cN7fi9v/4FrbtrsDJDyNphhj2mjhr/QhKbgNBIcB0M8auyWnsm64hZcmtq+ZQmpLNa6k30C7fws7gIlaDct50PBY7l8VeX8yz6Hy9XT2b2ZGMkLbZK0wUbl796ZEK6nLB9+g+93iBv/HYrplcmBYRiM0ZI/Kaqvm7wF9K5/Cun7kCb7z8HAzJJlFBQGqKOIcK+WuLwO2f+R7+/Z5HsW8mQq0ZYWzAx+UXvQiXXXwWLjxrHH4O2HEoxt3f3Yr//a1H8OSuAwgj1pqTNKtd1dn/Ulp+mSygMuDMcnm2bPjOLjQ7TGFBbX+0tv+CjqoFtN2Csox1nWCXEHQvM+sI96j+1/XYvOO4OLw33Hxr49FdlVyYMslFRMdIXI32yINMuuT04XTtxhRedfFZeMvrfxQXnDUuxQgs/yahLQsVHtkBfOSTn8N3H3kKzZSdQh5e96Mvxjt/8mV40RrW/mgOoen6OBADX7hnAp/8/DewfeckSuUhVm5lqkTtorfBLMw/rQK7HjfFTAKZB15L09cB3l7+gSmsWxTkCxYxL1TcPC/q1HH2Vii6v7dLWBbbRxbbh44NjJf+Lby+XNrA5vXDyx/qFMa2z32pum1fE6EzwPyyaVQ3jcdGm0ijClsUozpyXoRXvnQzXnfpq7Bx9QDYVps0gb1TIT5917fxrYe2ojpXRc4FhvM+fvPd1+DHLhyA1wACidmFoPonLfvuKvBn/3AHHnhiJ+Yi0wgtdf3sAkgxNjyMWq0iDe7NKEQaBPJeERHTm8oEFqsuSZKrG3+XFl3oXvQC+JGGEBdycBf7+9JxcYK88+jEk51oBaeJc9aWn/no+69dXq5OMrZ97J6769v3poi8smkcb1cpWuJYbWhJkA9cNKsVFAIXa1aOYeP61Vi/dhXmpqfw4KNPYOdsglrMCE6E4ZyDszauxi9c9VPYvCmPskRRSVXCkaYeGk6Ahg/82Ye+iHsfeRaztURKdkuFPEbLeaxbvRJnnLoBjVoFu/fux+59k9gzVUGNM/P8vJRS2Ingts93YRbiEwQ7J/xpHgX4qTjYoJNU8aJVxaduvfna5S9vuOZ9Hwq37Y59qe0x9HFt7pX23aAAxFFTJmUHLMBqNhCFdWFv9j0HlUaEhldGUBhAXJ9FkNRw0Xmn4hd+/qdx9vqAoy/gQ+P5QIBKwjIH4M8/fBfueXA75mox/KiJU9eP42ff+ga8/EdGJOnLMpVGE/jyVx/HF756H56emELoluAGeYQyIyCG72nrop3lesJj6IS9gIWDDT0vqWv3ZcGjl1RxzpqBhz9287su6GcZlpTkevcffXz/A9unVhL8JIm2j15hNQ4PqDNrm0Qo5gPkfF8YFtgp5fgBIrckrAFu2gAas9i0Zhi/+M4341Xnr4aTJBhwEzQ52cUvoOH4mA6Bv97yRXzjgScRN2OsGfLw7muvwos3r0DgAEOkeldDScrpbvnk/fjcV76HydkYbr6sDddpKNTq2pK4tMK4fhb55LGHW4GjBT/gRXN46RmrP/v3//1n39TPWi8J/P/t7z5z793f2/HyxC232L7Ez5V6fltJos+0rdmBJFWDHENEloWIbM1ALl9Eval9tuUCOWIqcOMZvPGKV+PNP/EabBzVbDBBzBOtAvjGfXtx2yc/h207D2KolMOlLzkV1779CpyyMicdwD5bEsnm5hRQA7B1d4r/+cGP47FnJ5HmBqSnle2IvrHV1SE+0d2+fm75CXrsAv4WsZXUp3DZS8/6v//wV17/J/1c3ZLA/8cf/8rvfPar3//dZqKcLHzorF11H7WRn+6nVt3xnx1QwPY7Yo0CIHqXDmmi4cokrCJpzGDjqlFc8vIL8YqLzseq0TJKBaDSBB569Bnc+aVvYtuO/ahEORTcJn7hbZfgJy45H+ODAcrCTh1qZ7NbQB0u5v7/nt/3/sm/4IGtEwi9gtQHhY1mi3y1HQ3qZ9lOHnvMV6AH+OlTcgenufyWSy++6Lfe8ar7+zmvJYGfZLXfvPPJA0/uOjgolBaE7gLgl7oc9slKH6pqWBlWQMB7jkRlApO1ZccdTZewMovhUg6nbFiNs87YJDQXk4cO4vEntmNicgbFoRVS6DZ7aCeuf8sr8TNveBVWD+RQlJlPrPak2OVQc1wwafz7f3kbHt0xiSYKyOVKaDZYEq2cMZY5op9FO3nsMViBRUPHWi1AktrT141+4WM3XfP6fs9qSeDnl7z/o1/5xbu/+dAHa4mPmEmrHmaPpdSwJ0XQUxD8gOwBrhIa0VThOKNI+2GZAEuippg7DunJEQrplOuzf8uBR1MpSoXaupSLcf4pg/i1696K09aUUCJdNbl4PNLieZhLgW8/PoW/+vC/YNehJniupNPj9+bsvCgZednvsp08ftlX4IjA30TZqzcuf+Xm173nXT/+zX7P6ahu+ztvvH3XU3tn1sVuoWXWsGGaICZPI02azgbu+c6N7AVCvGTmYxm+Hp3NR7hLBY/2CkjcxxfeHkb1vTQEjZu3veHH8IZLL8CaESY8mBsAaiGwbwb4h3/6PO5/fBf2zybwi0Ni75PcthQkaDRIdKsVRycfL8wVYCcdrQNrPttQtfAMJXWcPl7+6O0feNd1Szn7owL/TR+59+++eO/3391MfTVlGHYK/NZQOULdN8Mj9OTsUAqTbrcOsgE/haAVdzfkVyz/FPJZ66ByVL2hQhE+H6QYLgCXv/oleNVFZyFAHYWcj0PTNXztWw/i3oeexZ6ZCLE/BD9fQjMk92cdeT+SfgHXK5wE/1KQc4zeY31K5RpSa4HKlb/nEeLySza//v3XXPKFpZzOUYH/1/70ju33b9t9eiPNCf2FbZa2zdbKDpCpe7QTWTIZVZYvZ4cWt+ZltcoOuutuLAGWZneFTSGuI5fWsGasgI1rxhCHDUzs2YepSohqlJNknJsbRMzml2ZNZoPRUWL0ibOfTmr+pUDn2LzHEgpbzW9JBfh73glx0Znr//Kvfuunf30pZ7Nk8P/x7V970133PPyZg00f1Pw6Ut7O5+IYIWUAs5LbycjQLicQ8LfOIltopsOp21WTyj/jCCe8aZDnTuEzWkQHugEnqcNj3YRwdnpISBXo5iXyE6YOmjEdXXJEMnQaidN9EvhLgc2xew8NBzueViwLIRTQv+WcGMNuHVe8+qWv+a9Xv+br/Z7VksF/3U23bntmz+yZrKenA2q1PtkE+LAjKC0FXgc7gK0yzOQFrFlkn3XwmPJdqu5XmhMLfppH3CVIckuWtKGBQeQ8H7MzU+JrFItFVCoVcZTJCS+hVrjIBzml424q9YkV2n4X7uTxz/cKdPUhmGZ8glxH0irBraVvFMqSwEUQ1XDm+rHPbnnvNX0luBRRS3j87We/cf6/fPa+71fTPODnUW80hAuSoUzaZJb30Toqra/oQlpb//eqNzdEpC3w66fIYMdMqTFH5VDAavWmgLpYKImDRGeWApCIg0t+GiWQIhWIjNphZalPk+vEZCtbwm17gb8lUynQxUIhiSxJkCprNjFGZVbIB3DjEANeFL/1dRf9yK++7ZKH+7nIJYH/Ax/58p9//p4nfoP1MixboLZnuJKgmp2dle8vlcsqsRn5kjbEriFwQkAlGt10JEnoUdvzlKfH7AXGByArszJ2GmpEKVcgBYkrddIUhJDzfxM6RQF8Q3grNOaxjkASnhvOl/J0dvDJx/Fcgd4av7XfmwQpd3E+BofKLcfX93KCrqIT4fKXnfOrN95w2d/1cyVLAv//+T8+9cC3Htv74tgvA5x55UTIBS5mZ6ex67lnRSrHx8cxNDgCL2A0RZ1a+eeynIBgVXIqCWkK/nSQtYyiNByfluZQmdosTaGGPi3TM8Eb5HLyeSxh5rPDSSFWmMIUvuPp2HuOL+KcEY8ClsgOIezFJx+ZoXCHW4zFKjDte488dKxcTxkGGrnpOqWTjR9kxZ6ZncL+/fvheh42bjwFA4PDCENlCkkTD2U/wcVnrb39f/5fb3pnP7dySeC/7gO37t+6qyKFbdSk+VyKOKpgbmYv9ux+FtOTe0GpXL16PcbHT4HvD8D1ykI+RfCx/yUR+4UZXVeKd2Q4BfnszdwmGzGidmYBmoZJdVaXAl/fTwbi7C1p1+no7qFtiPOniy82hPGI6IDsoIxeNf0LJmkWA8YCAFuQvaH78zp/X+w62utgm20sfMx5HGbOmt195T5YTlHDCC2TW8yYo+5IDY+XZD8bmqTKlglN3zByk3suQhzNIQynMTm5E3v27UQchRgZX4XxNadieGQ1XLeMRqiT3IOkjvM2DN9/y3uvvmj5wX/zbbNbJ2YHLEuzJ325FUwd2oVdO7aiMj0J13HhuzkUiyswMrQaIys2oDAwJA3odD1DJq6Y7SUfD/nkaYKkpN9Te85yzsv8Xaa0TDOtTF6RK9Sbow7xYQDQNTGmvTjZm93pc0hzyxGzK2iEiiDrfG63yHR8ujHn5h9v3m/4gWxHbvu59/e0rqcXtXkWCQu0McpKyoIuDfwyyM4An+Yno2zCFUoSAhKXBZoDkvotKXHx5V4qrXsTqWEq9hKjoKIQzeocZg5NYGZuP+bmJhEldSRpgvLwSqzfdDZGRtcjRRkxmTtYH5bWcMzoCq+/+bba4xOzBSlpJpdmVEcQxKjNHcAzTz+C2elJUCCiJmvxfeQLZZTKYxgaXokBTt4uDWqIUuL0Gc54My6H2tyGIDWvq1QnyjUZt6Auo4h6ckwupl3VaW5z4XSC384b6D1waL5u6TUxpTWJxVC262TxzISW1t/NJPh5vzOxt/jxeja9O9E6m+/ni1NHWUfHeiykP3vvSgQ57wNfbbFEG/5/mUxjpue08j92iKHsKkqUm0QhGtVZVKYPYmZ6EnOzk2jWaecn8PM5AfrQyDhOPW0zCuUxNJuuFClGaSQzuS5YPzqx5b1Xr192zX/9zbc1Hp+YzVnwczxoMc+LbGBi53bsmXgaSVyB50Yy+E1relJ4uQEMDo5jZHQVBobGZN4TB5xFpDKRMmRXQ6ZCG66jLDVU2oND3yTPBPu9GrT7WYXMsYuxNSzO2bPQFx+BQHa89cjs60VphxYp3ei7rim7g6haUvNGRh+1CXLVFNJ6La1nTCQ4wqCDDgJkcMJBoz4nWffq3BSmp/ZidvYAwsaslrVwp/ACxDSJ/AGsXnsq1m88U4sWG7HMDMuAf/eW9169rp/b3rfNn6apc8MHbg/J2CbgF83NShsSkkSozE2KANAESlCB49TgulpBKbtfxLE5AxgeWoXiwBiGRkYQ5IsydZGgZ4U0ozVkZ5PfY637URsnyy3vScRHB9H1UKOtVbAgWghMTJr1WIZFpeDIwLl0YbEX0K/QLPK+7LXKNWr8fP7Dfm/X92e2I4maub6Zt5uZrmim1kj5iZ9KYSKdOlbxcq4yR0A1anWEjRqqs7OYm5nE9Mw+hI1DcIIIvq9CRKsgjvNwUcbo2AasXX86BgbHkaSeDMYmSS+HmlDzn79udNctN169YVnBz2mMz3zgdtIVOgQ/ohj5IC9DnzmnyncTzM7sx66JrTg0tRPADDyPURVHuOOjkFWbATxnAF5QQlAqoFQexNDIMAbKrL8pwCUtoZOT0fTi3tJDFpvWWvsaFu0eg9Rx4QswrnUujkaY5md5FwF2h2AciRAcyTGHA+DhbukCwrGgSs8ez0SiGfg97yu6wL/Q55E/SSa/0By1E2p0xgI9O07FTBmdi5uIGRZv1DFXmcHM1DSqlVmE1TrisIo4nYPjNeEHIVKaQQmBz3szhNGRDVi/7mwMDo2L+eNw9JLvoRE2GCERluYL1o/uuOXGd56yrODnQLo7HxfwCz8/2dfU6VGnz/OonZuYOkQvfTsq1T1oNqeQSk2NJ6PqnSSHJMwhlhGXCZzAR75UxMDAkISxOMI+YIjUzYm/QNkW/nwmyVITNjXh+QxDd8d1d0TvD8OwQKr0Xg+914vkAKRW6Ug083KCfwE7fEFzp2uXE/D3eHRd10ImQrt0iwOl6ZhpSDplyUkaSi1VkjQRN2uoVucwNzstc5IbbG0NOfwvlf5uPx/BYbFhXEPIkaVuHn7A+b/rsXr8dIyObUSa5hDTbJKbzsrhCCmH7Cn4l38ySzf4C76HWq2GwKM540upgUcPPqlheno39uzZhkZjClF9VloeOQyBYS1hbOO2Rs4f2SYdGX9JloZcsYSh4RUiDBxt73h5GYbMqBB/piC0QpodN6kNxEVtWfO+XjdV8wqLAdY4mZnPaXNYLDBq1AgLcwzqAC/wnIm92BhMr2eFrIaBsw/LU3RYLXjE0Sz9lE4rsGttpImIMR4+N2W0K4kL0riBytw0KpVZzEwfQKNaEQxIPtKMTGL/hox2dajxI7HhGRHMF4ZQKIxi9eozMTy8FnDKSBItkw/jUIIpxTJLa0hZL+DfdsuN7zzrmGj+R3dOI/KK7dg7C86yA+ccJqIaaDamcfDAHhzY9xyqs4dkOgtrcMRoSWIxh+IklGHE1obUSL7DdUKhPIR8sYTywAjKJf48KMOSPbZD+uoTUGDURtSCJ7lZnCruuqxqaM2mlayxed3C0+UQgda0RR3n03LcvExhnhnn0202Mcli645kNGprSmR36JO/s1GfK8DEHpmn9Xf7TDzq771Cp/p5LMazr1P7Oa7O1OoEfztAYIsL25W2dsSS2fEiy3Oq4iUBBmOz05Rhd50OwtMdQmu4NK5P0LLzLqZJI9Mo62jUZlGpzqAyOyPObL06Kxu2zCWmcHDUq8PQtY5F5e3QoeOJFB6ySL00OIrxVRsxsmINcvlhJRlI230XqjS0zJ0eH+v6X7xh7IktN75zefn5O4dQF3Q+lkkkCTd/6y4oqDhUKA4rmJs9iJlD+zB1aC8atTm4Dj1+F81GRWqCpLeXY3ZM5EeTXi5S7gZ0flmq4OWRy5dRKg2gWC4hyJeUsz/H9kTdeWQEpwyYsyRVtmxCdwsZ30PBkDKLRDQIZ7gxz2DH9ligUJdlQ6kdQ+dk9I/ZxVTcDsO81o8+6oDxIp+rdjZta8bV7TC/7nO2wixVkQw8SKmHTr0PgqL6UxKa1Hi87CSmnIQRG5ozOtmeoQXG50PZ4cnCEYU64b5WqYpZw/sZxQ2kdHLjCA4nrYuQqmDRB+CD+ZyIcxbyZQlw0K/LFwcwMroaQ4wGDo7BC2jyWp8sSy2m2JJL9nz4cR2b1w4vv+b//IN7yh/71BfmZCaXSxNEbTyRbYlL27i9Ji04MI1SmsQNNGtTmJs90AppNeszCMwERrGwRXW3NQwHK7N8QSp5tFxHy5odH27AQcuB5A04cJm7QV6EgP84szYP18/B5bYqDhlvnAz51b5duc+0N+lDtB9tgFMNqwYVMBnzxmZEbfEeb2LvfEA2rt4J/t65iV4THTvzD72+J+flJHpiwd8hOnLu7eF0orlb8wYMCEN1Us3EUtHQ0kBk/pHmhW2lLDPQOcN1NJp1+Zn5nbmpA5J9TUIWFlKr0/anNjdjCWXQjjJ06NahO7Lc78SRUvNcYQiDgyswPDKOgcHVyBWH4Hp5UVa0CGyPB0fUtid/mrVxPQH/eWuGdnzkpnctr8N7573bhv7xP+6Z3ra3ihoCdXJkJld22TlzS7pwJcKj7GisO+MmVUe1chAHD5lTMMMAACAASURBVO1FZWYStdlpCYUJjw8b2I0HqxPRTdmx1APZAXdsiKeM8CaRsYvF+eQLdeF5KgSFQgHFwiD8fL41kTzIFRDI2KOcZo8d7jQeolBr+rMTDEVT0oAxLZnWjKKwtIVDNb3j0mdZ2ExpZ3IXyPgeTnQcrXta6PMVQGagnBQEEng6UNuepySfWA7cOvf2zGDet5zPnVJ7q7nmzLqGYRMhtTp/jgj6Ghq1Gur1qoCfZo7YmAQ7zRjuDh5zMjQxbVJSP5MP1k9xvXlOkVFgDJFSaTHrXx5aibHR1ZIITVFAFHui6GQumg52E0c6y4htfRCax7m0CU5gf9P515561VULefDzd9++4/yf//yD5Y9988G5J/fVUEkYssw6h9b2NO2IksEVcVdNItk8btEh4qQuDtHBfXtRr82hMjeDen1O48E2/JZQIMximiFsyrKm8X6CIgxJZWhMG0GDamxmlrl4BL0VCO4G9BUoBPybVAV6Ja0PCVhmQfPKCJkIrZpPjC7YKeeS0JFRn/yOCPQZCLr5GV3dYbRQT5/5vvnHzc/wEvFtI8pmetUnyr5fAor0ecTcpGGtkbcOm92MUVUlRftdp8UT1FQuaVxHFKsmJ+hpu1PL1+v8W12EQEKVMnmea51xsNMEJCXjLZL70prnqwEMVe9UXOoPauOSi0JhQMLbxdIgxlat1oAGo4CczJnQAaZAmgI32azbZpjZPtpIZoAEdZy9qrzrhks3nnrZZZctlLiYh/4lgf+2ex6ao+avpjldbFNdw5NkpWb7BPlqe8q5MqSxJEFJq2Tzixto1KqozE5hduagRAfCRgUxO7LSEK7MyLWL3jYNrOnQKpoy9oiaOKn4DmrqmKyxLbSSDYM+hppGpdKIaCb+7AeB2P6iqWS30ePEVuXfJCvpt9s1JR6tGml++YKagQSlgt8KQzfYbdSnV5kDUcVIiA767gC/qT/i+Uh5gfhKWi/FAILwIvF36XlNxPSQwEKslZKsaOUaVyvTCMOa9saSYsZkau1uIKEHRzvzdK2NMnJ1d7E7THanaYGepQ2Jgt5zcwjyZYneDQ6NoTw4IoEMeHmNV3FKD2P4MjJVlVt7OnzbxpcmJuNbSlWnkyj4x8s7X/3Tm09/98UXmwHN8zV991+OCvycwM48q5gF1IatpvN29IEXw91PbpyZBUucarGTMiVTK5HzkzZkozYjYbGZmUn5mREDGTxtBGCevSw2d8ZelvZJdZ75fcwjtDS4ScOr2aNAboRmC+d1cMEpGEHemEhKdcJMM8HPXYHPKiB8PxMuTMQR4tyimcFk2Ta/WfsR5O/8LlPQZqNB7aiQRntsFEef1dyJqShokogypzuqTTniiJsKVwG4sOApsOVfEmrSMYnQbBDYIaIwFNBL+Ms28DipdLaJySNmT6y9FQbk6iATvKR2VOGyPdm2L0OEL4MiuzOTOoYJxHxhAPniEIaGVgroC6VheH5BHFmeCpUUZH3bO4goSP6Z/kKm2Uj2NVPybpVJxFIJpypmzy++7pTTllXz3/HdidIn7vhShZpfklzSV2sDwWZLbFEBtgKKJpKikQaJkkhXFcuZteZD2tXcBAHXLGHquyqRg4MH9qEZVqXIqd5gmWuoJQ0yc5lhLlvibArfbBjOaCVGkjRUZxxXo8FsXygX3mpULaJTYRYblT3IFC5xdtuvWSERx5umkxEkKxRyI8WnoKakFmsPerYKoFuILcA6tanhEyXwxAcy4Db8Rymd0dg4mqJhMgkro6F9KQnX94uSYlLRlovwPsXaJig7nQQc2uFeZUto+whyPdbE0cComCg6IYdodcTHKhRKKOTLkq0fHVslNVxBjmXtedBKZWRH1swLdI3N/eEOxYpPOb/Mbt/S2LZHQ3o/DN8So0npnID/htduXF7wCz//5++qMtrTdIpSg63r3HZ6rWOSddT0AjrrbJSmxDakt4sX2jX7KgwE/dzsFOYqU6hVZlCrzaLRZIaQpFZqGliNpWE6U+vPv1OYKCxC32xDl23TLElVc1vHUgDSqhQ1UYmOv/WKynRuqArg7HGZLHB3RrgrRt8pFG2hbeUeOr6qNbtegZ2pcG075u1duCNUa+ejZW14M2legaVCKxg0wqsqXoVErEwSjJG8wNdIW6FURLk8iNLAEAYH1KzRaI0Fq21UsmgwoXG7JvMSi92JxvnryF2StT3nrh5cfvDfddfThS13f63WBr9JKpnasuwW2Bmos/Xo3RfUBr8uSWe8nJEgRlRcWRhy7dRQrc2IMJCHn/5CRBu2TgeuKW+XMJsJ1UkTvKk7sdlQcVmlujCFH5RaYUyLK9HCJm7OD5tn14pDSpMnFfPCPiz49Hizg1jeol5lEItmkdtJuyy4syDWkmGmzdqJraw/ZCMuNL3mh1iVH1WCEcylmA46E6RU0JswMQd7SPBGSlhyCAo0DfPIFYYl8Tg4MIRieQA56dxzITSWrMqVAIKdjmPUX+a6j2Y+gkWSBf8lbzpveW3+bvBrAM/004rtZ6SzO+2fcfiyyit1u2pLutLuNFu0FJbZP2Vx04wst/kQ9eocwmZDSiwYoWg0avqvXkXSrJvIj0YLeJM5uDrLo2XDqR3AYIbTgL8Vk+4Ic9Imt+D29djMo1MD62vdWrdzr+hWCO11tN/f6zN4PUmqVC3Z4rzsLpEFf8e6mybxdhunmh+xCRSoqcf0bgqXOZRCSfwf/pNQcrGIIJdHoTQC0MRrJaO4a5jAgOMjZChU92fd+2U52td7JJVRnWvV/u2Yg5+TWf7xW/fUNcnF8gZtJm8/jANsQpx65y04ukKSjN0yPX+YsUDUamKvi4DRJqQdrfFkIcqiSJg4tY1kMB4tu0JDQ3Uauw41vMdkDJ1tiZbEcMRuY6iBfQQ2FKkurC17EMExml4cPZ6PAYnNKKs5wM/VsK4+236EhW5fJxA6j9IdZ15EhT6WuCD6zOyuzb7acxOHONHmEq6XKOzMlqwhV64cS0g04y3nS0c+yIndrqHfnISK8/kC8sWy2PISLjY+AoMGsuNIppv+nP0ek+hkQMCYYp3gt1c6vwfvcCvV/VoX+J+75E3nnbGs0Z5PPPJI7o5P3New4Lda39aX2J5RSdx2tBDaLKm1oxldseBX7dDWDJnLFJuTUQcThTBaVCMUkdQGtW15te9t6JXP1SrT7U2hJdddoSFCQGEgo3OzMYM0aWriTKIZGo5VzWeXV0vWeB89qW2xJkbWh1Hwq32spFl8ZLlKu+35w9/oTrOpbXrZcGOnzrTnpFEbgrsztNohjIxoMfbu+QjyQ4DJcxD07Kugdg/yOcmDlEpluTd6pW3n3Z5PTIeYlZX8PCNEUloi56G1QPMfmZz6EZh+R6j5n7vhtRtPX9Zoz3zwq/bSiI9lYlBmBlkuE+Kz22jbRdMYbXc9eXdjecDER4t2RJeBbpIUWHkme2k0toQ1DbmR2P0SSRCSdN2AzC6i/aMEeig9oqxEjEMmdxgOZPzbDLhIUxEaCgWPF6p12zgvWpkOtTHBsnco01nGqE934VlbCNTv6H60HEwrPB3+QtvEyjqk9jOpiW2vLJ+ZzLM7kFC5BJmEnptDaXClgF96a6W+Kautuc4MVVPRaLyLICfYhYmSsR6WIJg8Ar+bCo95FAkDSwNTS+dnLnNZwL/jjZvfdfqyZnjJzf/1Ox5tWs1vIzo24mN9gFayy6YkDTubFENkJqF0OzyWysKuFKMFkmRi5FycTzUcrTkgxVhSPGUysSbcp6FNNRvU+W2DxiaDKBjFgq+x9ITD7ZgUihFJUZZWMpIvRmzhqKmsb6ZOhbsJHewUDcmAts7H7EiabOPntk2bLNDl5wUiPTabLIIuO007NNzKYUgeg4LF7KjfLtuQhJwnpQN8L6MvFvy+rzkKAl2TeJ7MRWNziOQ+REubnVnCo7ajqt2jy/ugZhVLFTQ0yZ5rmlf8PMlfmHCpZVvrFO7nB/hZg1Ec3jWDz37kfe86zbFZuCOwn/pOcnWD39rz0kpoyKTaoUqT/JIT0W1Y7M8W+F14sS2p1Z1DsJIBhQUChcSGEFX32zivOpPtUubOkB+BbYGpApCJc8sKZtPypnxAqt5Uo8vkGDl7w/iWakWiZEmjBlyZ7WUyq9xRYtaza0y+5Wwaoq1eNnwrY2qEM5sTkO81pdkswSBorYZWzepJHQztcMlQ+7qW8j0GxGHYZtDLCpWGKzWx16pEMFEqVRwG+DbMaT/XYNeWNlsaQetT2Pcx/yMZWjm+a3c7ClMni+kOm3/N4NMfvena048A861D+gY/33n9zbel7OQidYk4XrrkWtrcETdm4oo19aaqj7Zh4KMZJQIOViT67MySQdPthmdWglKbCO25dSJM9EF/zWhx+XG+6dDiq1lkobtdrvYo1c5lbrnsrfINfZ3NF3JGxrTNhhkVvPPPTd/ZK8KT/U6rgc3qmsO7w67cCTofnTZ2lgF7frsmb98i59FVzTofXAu9P1vV2r3K8wMk/YDWHms/hc0sF24Y27blvVcvbzNLN/glDd19fzMLSu1H7clwYCMilQltdd1iaS8mYax2pHwQt0yjMc0u0Al+c/syNnA7dNa12EdAxaFh6842RivIrdy0FWjasj0Aa0ulpbxDMsO6B8rniGmyEAXJYtQk7RLxrAMrGdhWgZuadN0Fb9mCOhEzqTqd3ySjUntkXKUK387MzeICbGCa8QXbIG/r7aUAP6s+BPzr2cxy9fI2sxjwJ7aBvTcjmC40nVzagroxsJ5GQ4CWdFT/rgRVeiM0fBfRZCAfi09mACNZHbR23RGEXjclG63pvbxaGNXtg9hl1fdbR17Jcbu1HHMQ7UIr7lbzIbIQqZUFZbszqzdI55dC6+hW1g5xZ9WpNQuRZskS2+rSeVWhViMvtgvxU3qDvztA0b3Snfjo9T3dO9eRi0KH5j+G4I8fn5h1pbanRRhrAalg15IBkx2VDCuBoWBiBxfz5uTWBMmrPHbqq20uzMksfEsjbUPMRkN6apAjX6zuI3njrB8ijreN0mQPNELX03qRHcjsHH32xLa/Yt622fuCep2fIX06bL+xIctS5dLJRNfmST26NTzcu9vgXyiRt/Q01/Eye8jeILw9lj6kzays4G/F+4XdgU3G2viQ9xwMl5Xd+cDUNKKgIA3LErYzu4UA0kQaWjettcLZ2LrVSEd382xJ8uGSbYt+Q7/gX7CeZYFvWkA45+9G89/f1s7dO2QPk3XRC52n2xd4x5HsJkd3/zrAv3HFk1ve844X9XP6S3J4r7v5tnDrxKxvwW9BYxMhFvxsccy5DqLGHMZHBnDOGZuwac1qGTjNDq7dk1P4zradmK5R67PTKyedPlJMJR1aXUxtLV9iIS2yRPNHdhQtQe4wH1p14wtt+t0O/mF14GFePNx5L2y+aZi4nVHvZfvrl+p6ta+vXZ6xOFgWsvWPRGMvdp8W//bDHdEJ/rGntrzn6jP6+cTnCfzZJbbJLoYGQxkTtGKoiEteej4ue82P4ox1AfIAmk1gcraJT931fdz7wFZM7Nkr1IUsiGJsnHFqbULPXo6NjbcXtR1HONxN6q2F2revVzOKlux2ltl1N6XMP5+FF/9wYFka+CV4ID3TGnFTR7vTAc7embZwtK+3LRoLnfnC69ra3Re86O72VtNplzW/+kFr17GdZs+Kp7e89x3LH+q84eZbm49NVIIG2Mmly2ftZ7vYXkoG5hBozOHy17wMb/+p1+L0VWofs+6PP83GwJ4qsOWf/ze+ee9D4EjTxCEpqVZm0g+QtLk82sVRvWxcuxDtHEKba2Yx06DTnl8ApJ1NynpKrZlhncLVq7Ctdd8WKWnuxsLhs8HslTa9Ai3wUxZseUOvMGv7XO0lLaYaFhQLG4s4DIBbodReVa2yhkdqHvX+Er47SKo4f9PIM1vec81p/cjSkjT/9Td+uLF1XzUXOnltfmAXlmuGybG+m1X6MZBPQhSSCt59zdvwEz92GookKzItEFI+47ioucC/fO5+fOrz38Fk1cUMh+wGpDdnW10IJ0pQzHO8kPZ/1up15IoFqdHR/lEtjKOWbpr5v2RvkNKGkAy+LN7SBm7bLSWJK8eRLq4jHk6xxJLkfm7Gko7trp6V6E6bDGtJn3kCvYlK0otr2LxuaMeH3rfM7A1cl+tu+khj28RcjppfOuwz4Jd+zQQIYhf5pI61AwF+4eevxI9dvBakHfI9AhFASElwUU2Br3x3O26/4zt4cs8sknwJiZegXt2DQs7B+MAwwkaCSiVE4ubQJL1doYgG8wNkDDDgl6KqQHkjpak9TkQAcuxmSTh6VNvkSIwkCsdOijw5ke4Egvr8U2WEkD28568f3vHBG69ZXuoSfv31H7i1vnVnJd9IyaCrZkLspiCRgLR5JC58TstLQozkIrz7XT+N175irQqFS21s4uMuUAVw51e34ZP//m08N1lBQ+g0YqwZ9/GS887E+hUrkfMKODDVwJPP7sLWZ3dirhEhZr0Lm8mdnHA7yhRI9tAGWpcuIVU/L22IdKCZaWZdC4+TAjUzyK5F4HZCQ+CH9+R5L3NOiPM3DO340HuXmahWwC/DKeYKbGN0WQ8u4NcO2IR9rez2YV1MEiIXTuFtP/kaXHn5xVg/qrY+30G7ngbLbAJsuf3r+Oq3tqIRQajuzjljLa788RfjVS85F0M+UMoDjQS47+EZfPne+/Cthx7DbJ1ecQFNChpZojneJokQ+OodSF0NC7YoHCynMG1+wkCmm46ZGt+bqPaHF04n1pVzpy84TZy7fvDZW9579an9nP2SbP53vf+25uMTlSB2SsLSzIeYPpItNeBPIA6vG83g9A0juOLSi/CaV2zGCpaHm+DbbAh89bu7cMcXvolndh6Uvw/4MX7uLa/Fm157HkbzQME4VZEDVBPge9tq+PA/fxqPPTOBxBtA4pLSzoEbN+AmDQQuS5hZaEaOAh9uriQsz4nrSxg1jRrCc8VsM4vTWDLdq+aln0U8eezxWQGJ9JFeJqnjnHXlHbe+b5k1/1133eV/8Cs7649NVLzELcI3GVhTadyqlaHZweLXIK7BiSt40Wmr8JILz8bGtaswNjaKRiPCkzsmcPe3H8HEvlnU2HGYhjhr4wr80tVX4hVnD8EPZxHQlm/EiL0yooKLAxHw1x/+Iu598ElUQhepNyA8kaVcjHVjgxgdzAmT2PRMBfunZlGJfKR+CU6uJDMcWZrsuAlybJ8UGo92rPz43MKT37rUFdDuCrI31HH26uJzt9987aZ+PmtJmv+amz7WfGTXbJD6BH/TECqRblwJikQTi+lDsqMEaaOCwItQzvsYGhrA6NCw9Nw+tWsvQieQEKfn5OClTbzkRWvxrrdfhh85pYSiUyOxiwLULaLhctQF8Lcfuxv33L8N05UE1Xodq8ZGcPHmM3HhizZhbCiQcuSJ3fvw0BNP45Gn9+FQPUEdBTjMJktzeojAIWcQfeGT4O8HMC+kY6WBlr6d08TZa4pP33bTu5Y/zn/tzR+beXTn7GDiFUTqbKiRTqiAn2zICRMv7PQhw0EIRA2p6aG9rdw7jlBb1KVpmkVvAZyojheftRq/cNVP4MWbShhwm0AzNKxePmoeUHOAP7/ly7jne0+gGSnZ1aUvvwhvecOrcNpqwAmBQqD+xKNPVbHln+/EkxNT2DcXwyGXDIvlwrqYSELOyoaQReZWvZBu+Mlzaa+A1fx5p4Fz1hTv/8j73rX8o0h/+Q8+vu3R52bPbJLYKbbg92TOrh0gbU9RKpVNQVtHMokMCUJi6qEZMRSZl/E044Mufv5Nl+Ktl70IJSYw6BiHQOhrdPSpA8Df3PJJPPbkHjFhztwwiv98/VU4fW0JVPpFU6IbOR5qAL56/z789Uf/DfsqKSInL1QaZBXO+4bJ7aTZc0LLEwWg5IXYvHHo4//w2z/3jn4uZklmz3//mzv+8asPPPPz9ZT8laxjZ3mkJqFsmXAW/Ppzu+BNhjEYyhOds+siyBURhXUEyRxeuvlUvPnyV+Cic1ejrNQxIEHHjoPAnXd9G1/62ndQqXmIm3N42xUX46qfuhTrhx0I62PE4CkTCiXMhC72VoHf/YuPY9vEDEKnILOcSMrKkCubaGTyY6atsp/FO3ns8V8BMnoUUMclmzf8yh/++lv+vp8zWhL4//JfvnXxv3/le9+ZbspoCjUdUia7TLGDpKy1rbFdFWBrUFIZP9OiPIkYesxJREbs8biKchDjgjPW4eLzN2Pt+GoUy2XsPnAA23ftxtfu/TYmp6vwnEEkzVlc95ZL8ObLL8b4QIBcWpf5vypreVRTH1UHeM8f/Sse3LZbJsmQIo/th4GQzLKBvn3e/SzcyWOP/woQQzknwVAQ137ydRde8OtvvWR7P2e1JPDzC66/6faHt08c3Bw6RcZ0hGHXDnZWVoZQqaUtbQ/HFtnKKg4tk6K3BIEw8/qoy8hRFrTFQFhBLm1gpFTCuvG14hvsmNiFStjAXL0BJygirHkoOCHe8OqzcM3bLsP6YZpgIYoM20sOIUDoAE/uA/70b/8Rjz6zH2luQMDORpm8r22Swjd5UvP3g5kXxLHSlJ9G8KIqzl6/6p8//P53XNXviS0Z/L/3kbsv+8q3H/vfM1FObGnI2EhbqKTgphBoLbndHdQJlol9BD9JU4WyJwCd56Zw5jQRkH+RTeSNhkSBWIszV6/RskK+yCmOHuJGgLIPrBtNcfXbLsfLX7oJZZfjiS0pITDbBD5711Z85gtfx57pBpxcGVGsjA65gGUQoZZOn3yccCtA8DPSOOjG4eUvu/DH/tsNr76334tYMvj5Rb/yR//2yANP7T0vYhgxVX4dJYTlKEla6eSWl34hIM23dgY2t8BhiDSFx1qc2JE4fOw5Mo2bPFQlNrGHLEZjSUKEoMQQaowmaUUiB4VgBFGtgpJXwcU/chbecPlrcO4ZZRR9ob5FNQbuf/ggPvnZL2Prjr0IOdAsKKERsUPMkTAnSx3mN4D3u4Qnjz/WK2ArXYOkgZectfZ//c1vvfmXl3IORwX+3/ng3X96133f/y9NAX+O02k6NDs1v0R/Uk7TI/iNlpVJjaFkYskcxmK12M0hJZ04OXDIxMZy5gTI+UWt4Cx6CGWiSxM+AuTdIdSrJFmtYbDk4ZwzT8WZp6zH+NiAcO9MHjiEhx59Ajv2HsJcg8HgElKP0/9IyW0oBU8W9iwFM8f9PRb8HEf0upee9bO/+0uX/ctSTuqowP+rf/ypRx94ete5UtdPzSo2Du18prk4sSRr8gQZ+kK+riM0WXTm5/JSu9NMY5nMKDztpDZhTL7JEfbs5Y0E/Pl8ILMVwlqCQr4khFEka43qcwjcBOtWrZS5r7VaA7GMLspLEVzq5JGYZnpqfqFFkajTycfxX4GFm4nmnVtr9BEQoIkXn7rqE3/33976c0u5hiWD/6Zbv/aGr3/30f+YaiSiUWMW38Q6U1VMf5nEqI3prYYM9vMKMxjlg2AmL4/mBghMpeTRYh6bE7A8OrblwXIZtHlAVdiETFZIc/nQz1ASVSVNtc+9FnMpC/fD857Fmk0WUR+H4f2RKWVxJBM72bREfifl+lXaQ2ZvmQeSwIRBKiexSA0/p3zGDYwWPLz6onN/+n3XvuaOfu/JksF/7e994vGtO/afzQJlNqBbpgYdLJwgkbIEpdvjpD5hCIuY2W3PZGVDCQ2jfrh6W0vdk5cne6Pa4qKLYt7ZakoxjX9H2UnU74KfeMcfDvwZ4C/Ck9S7m5d3Xmf76kwundrju4EOHGT235CECY+op5W4OqGR2q2JIE1wzinjd3/k/73qsn7Xdkng/5tP33vhv37xOw/ORgHChCdFvkvVvkoGSy3MbnBO9qCmZ9096aztALMUCflmOJNLKPMMpUYWpN0/z+uksl2r3a1wC92sbvCbpToJ/n4x03F8awe2YezWq5kwdwffkbk/5p6T71PwIb3I9MUMFaWQl5lplzIFUoaFyetqrPqKnzTEcC7G26/40Zf9yptf/t1+LmZJ4H//B//jzz5/7yO/icIootAMJHM4u7UiU1MI/nKhKBO148gUuzEPQBZfn8Ki7MpMNuWz5fQdALdapUu7LHR1HSBeiDXANFBnP+Mk+PvBS+exwmLX65HtE7Y/Z+6JWXP+hdPXvaAogY+UYehIJnzJOFoOIvH8BLXaHGr1ihDhlorDCHLlVvCEpF1eOIM3vOK8/+e9v3jlH/dzMUsC/2/8ySe+fe+jz70sCYaBJK98mk4NlblJ7N23Q8KVI0McOTmKgfIK9mYhjgOZti0k97TXhMY+RiARIrMwWYKlnlfRZV/22Qze8ZH98ub0s6o/iMcu1IDOa80SC4tFsoifYI5n/0dkWKjF1peGixSBkyJwGQ1sYq7KyZyHMD1zSNg9Vq06BeWBlUBaMIOqQ/x/7b0JgGRXdSV44i+x5lqqfZNK+y4wSAKMAAHGWBhjDMhGQkgyjT322NOe9tIzHii04HF3Y4/ttj22G5CE0OIpw4AQCAMyAiQ2LawqqbRWSbVXZVVusf4tmnPve/F/RGZWVWRVarEyuuWkMmP58f59993l3HO8eBoXnrHm83/9h5e+s5+ln5fx/9af3bLt4WfGj2+2S1rlYVPKbWFyche2PvMImlMHUBwYQKU8hOOWrUWpRHGyEbRzeUEoh5bxmCIJsaqh2MdMkoTDLKQtn9o3OFJPvmj8/djJDN0yefEcPEpHxIbBLhCHn9y2xvVJDj5IXMAIJ0DQmECzPo6xsZ2oUYSwVkN5cAmOP+FMDA+vQhQXBFOWtEOUnCbOWj/yyMc/dMVZ/XypeRn/b3701r2P7JhcHqECUGRYxgcDVKt7sfXph1Eb3y3D5OTeKRUHMDi0FMMjK1GsjIgcZSI8+0yCc/AJNst4lZQ1OMvRaTvFvUcoKRF7Be0WY/l+DOCwzz2Mx0+kRd9dXEg1F4w8ke4U/b89k+K3oQAAIABJREFU9zpAU0XJRdiC1Z4GmtUJTE7sw/TUGJqNKRUSCduoLFmBDSeejYGB5QijvOgKRLkIxVwLZ6we2H7jxudgmOWq62498ONnDy6BNwgfLqIwQN6P0GgcxPZnt+Dggd1wKDnEDm8zhFMsY2BwCYaHl2NgZCmK5UHZBO2Eo+wllSO16imyRh0WHr03ApOYJXYUWsRF4z+sAR/NE47I+LMfoKGpTWDNDTRPUEUXffB5EWI0kBOEbQvN+jSqk/vE8KvTB5E063ALBakAxW0Xo8etxrr1p6NQWoIw4ux2ERHJeuMazlk7sufGD1+2qp+vOi/Pf+W1t4w/urs2ElAVRACcxOOzXNXA2J4d2LHjSYTNCeQLObhOWzq0LH3m8iUMDS7D0PAyDA0tR744iJxXEUVuPqygg5ZHVY2E1QDlpDeiEhmqERFU7pX1sXVl071NGaAPV6/uZ9leOs+1AhuddezZDFSb71ZgNwKCUrkxivTkUzJiHZZFQ+531ASSBur1g6hOjonRN+oHEYV1+G5OBo+I9m01E+RLI1iz7mQsXbEejluSKiMTYIZMBQQ4a83gvps2Xr6inzszP+O//rapR3ZMDYYOQxYaYCxTUazr1KYOYO+ebRg/sAtROAnEdfi+fhFieKIW6/xlDA2twNDIChQGR5EvlUXa0nN1mFxq/zEnGGMRR6PZirqg4e5UTVhVU6RItX10mmnmBnXpXR1pLtDP6r1EntstpGdkVc0akyKJTSlVajGKLozGha49Ecfn2b+Ldloisk8cYw2aVdQnD6A+PSYhTpzU4XssfapOckT5KRTh+4MYOW4tlq9aLyE0YfShcDOq+ns+aeKcNSP7btr43oU1/na7nbvy+tunH9kxWRF8PPHzRmuVgsi5OML09H7s270NBw48A98lgK0lYDeR50pY0uKQeQFtKrNUKihUKhgaGkK5PIBiYQAuGddyee380uiFtpkjkkSF+sh5fqdTnMS1WaoLqXB07417idjrMfuaqm7ZLfXUCVuoWeCVjJIl1XZCkUZ1bCOTsTwTWDaxpLTdVIOvVzE1NYVWrYZgelpmtxn65FxqnAWqqJnz4DolBHEBS45bhxUrT0Rl+DjA8RAm1DSgCiT1G1whSThnzcjemza+d2U/X7xvz39Nu+08fc0t1Ud2V0uxR/Vyqq0IgFOSGZ8Q4STAxMQuHBzbjrGxZ+G06yQTBDeHnA+RhyTWXRvTI/ue4HuI1SmXh0S+vlIeQZ6SmF5ZZoJzIHBOpoI1WRbaigSuNzPh0pulR4I9tvtZlMXn2hVQ1js+ulUjU9YL9nHsHId4ft5VMmMI1XaIOGyhFVRRr02jWp1Esz6FZquGiEzFYQSfqjxk3cuFcLy2TAZSCDuik2wXsHTZBhy3bJ0UTOgshYPJUe4llf3Kw4sbOHvdkt03ffjXV/dz7/o2/k2b2u6XHr21+siuajEkEpMoS8+TsIQ0gWxN5z0mwVXUqgewb+82NOpjaNTGkcSBlLPkiDQ1/cSleLGyqqkyS0GMvlQcQr5YwsjwMmFeY37AEChHnp22o7tfhNdCxYKwf5CJR1M5z0Xo2iENYs6SbzdUpDeEFEdESDr1F6nGSBw6A9QkRCuoodVsIIxqmBofRyuYRrNRQ9Cqo53QWbKJ5SiLnnCpqqZykosF6uJ6quxeLI5g5cqTUBpYAi9fQRDGEgq7eX5mW9TdGSGQt+ectSM7b/zwZWsX1Pjvuaftffq+26uP7JwqcIaXiMqCRywGcffUwXXge/S6hC80pXQ1cWAX9u/fjsb0uGwWMi5ICEQv4ap4s6j5tYn0zyEhnVuOoY0H1y+KCjhPhFK5gnJpSJXAiwW4HhtnPAGsdqzBEMlJrQlXVtO2n4V5yTz3MMZvtYtlRd00/JHNwEk8hzKtLYntqXxPz07h70a9iiCsy1y2aCO3Q7jipLR4QVYPKWhEhJiTWc+QirV9FAdGsGLF8Thu2Rrh9M65pJxxxOsT10NKSl4Xh5E8twg/aeLMNUPbb9x4+cLy9lCE+q7PPFR/bE/DbUipUo8gIaxlOEKWZXXiivXhBogaaDYmMD2xFwcP7kK9Oi6Q54LvIgo0FxCBOpcjhipcLNwOIqLGTDoniyOK4b6Pok2QC4MoDy6XxeHvVaOWIRJ1Zfm/syLIs5vzSz0noAfXG9ZbDdN/06MLKLGd1RpWw2N1rzG9FyE9e72BRoPGTgFvqvCokr1ivnhC6OlApjyrZ8yeDjlTeYrnckWUKiMYGVmJgeHlKFeWwPMrMh8u/4l0qqpbElGQIz8rfSRcGXk9fVV5x6euuXJdP06r77Dnru89MXTbl+6dfGosBD2/ED9FPK7UQKX0ZWq5guYh9KEdynGXSCg0hvGDezA5dRBhowqfFRzLnGyqORb5yVNB0H6OXiY3F2GvNHBuFJDsqjAizA+lUgWFUklCo3y+gLxfFPrxzqQWN6aZL+gskJTjZnJ1zkbF38+ivlCfO5uumE1oZ3ZrpX8qhkxFejJeBIF6+EajJtWaOKghak0glzSNpppKz1r5VdFYo32IprGpAJHowBiIJKwMmQplDA2OYnTJSgwOLYebp9FTwZNHjU4IquEbYW/O7spmchHGbSl1nraqtPvq1x+//uKLL1Ya7iN49G38d9y3ZfD/v/uBqS27qxCi2gwuZ8bnZRpTit+hJcdotRqYmp5AfeogpiZ2yKZgF0/SWXoHLhg9TaQ05JIkM76nAokkQub4bTuIzByA5BGeD9/LI58varLsMzTKo1gsSbhEanOiS0XRXE4GLb+ygmQf8jmZRpsVVebpw0eXQJ5Erz1SnnM2hfrNPeboS/R46KywtHhqq35pVNDTWF0bTF3CGQgFOCYbIKFnJ5sd7w8BilUEzZqMepLTNGg10Go1EYvANp2ZlprzXH8j2C29GPKgMhmV+xWLWruENQ6LHCxf0xk6oBp8zitjeHQ9ykNLMDQ4Io5LQV+s7GWY9A6B4eIq0fOftrK055cvPf/4S886i/OzR/To2/jvfHBX+V+++G+1x3ZX0XJK2uSa7WGZGzpq3gpn1t3bVhVzJkb1PWjVxzE1NYFadVKqA9wkjC9p9/Q63OVyMguK0NWf5iaHMctkvKvWg1s2Bs0FuAEcbgoiB/0SXMkj8pJEO15BTgzP0yF5/o6nDR+iNMPrDM0wjhh/Rh3GfOfesCl7klhMuj71yI0/NViNh7PJpm34ZTdrdvl1pZh46np7vuZDHS3vOBE0LcMWGnajScfTlHWPIoYyIcKoIQbPWJ4/VcXeDgzp+0tzkVoJLuWj9LNEFEMU3dUohBtDRMgNLSS9vFdCuTKI4eERFMpLUKiskDq+FE2MbehPtZPe3k32u1oNZg8NnLFicM/Vb7how8UXbyCL2hE9+jZ+ev7P3v3A1JzG3+OZ+AWy5TJ6A22IMEyKkUtaiJp11OqTqE5NolqbRLMxLchQtrxlI5jkiEkSH6LYzqPQClybhNkOPuhwjH4Gk+d0iovHqGKOKH7HeDNfoCg2j1BPfseNIDfCLchUWrk0oPkDNw2Hdog9ZwdahLOtgqTeKL0m6/X0WiU8yxj/4XKMXuNmfCwbX5J3XcvOacR/CxBSdYtliIhhSqxz0Pzf9OBJEqIdq4aB/BcH8pwkaSOk1kHUlt8l1DiQ4ZH0P4580sPb8MjLNLPEwEOVjJV7bLrv0vQ35eg2vbaTR94voVgaFLDjwNAwBiojcOnpXaIzdYOLrkKneKHh0oz1ypwCz7nxb7pn88Cd33ho+vE9tdk9/yzGb2+WfkGjjCIdQDLsJkacmvXdlhy109VxVKcn0GwyR5iQOV1y8rTbDI00wVYFdzOLKzfM1KNNbKi+J61RW3E7KbFaLywD9qRRUXFsMTLHBafReDrwpxzPRDAxf3B9UXiR59D4ZUO4aLO5J+U+Hu8s4akXs7+zxqs/BcvdEXW2/5ZqF9P8zk/dPFafmGsXi0GzmWQgBEmssAGGiHGEmJsg5u/CTsOJ3pynZxwG8pNhjT64SxnyGWxUNkTlHJLZbB3MlQnv9ARJT7Gc2dxyfTGvkd+Ra8BTNI9KZViMfnBgBJWBERQLFXEsAmRnDicsf3bIifc1PQG6PL/15XMZ/8rB3b9xwas3XHLJKabxdHjn37fnZ9iz6c67azOMfw74QCe5McYgnttidWiInPtltYf5q3QDmWAFiII6wrApxs+mSL02KcIVQVAXCnIpJnEDyRww68aedTydsIobLfW8vNc0Wi2pWk/Do5kGaD2qePCM95Z9ZUum/GkmhFmhlv4Ch3N4Hcb7adkufb+s59L/bRNCGWTuUjZX76plvM697pwoCRLG0AYjY5NI5kWynvTOBjtp423RIZNKnG5E+7/td+fn2Gu312lLm9a8uZG0EqdddTkTGMZInK9z1zR26cKbMLNUHhTPXiwNqIf3i8jny3BcdvY5gaU9MElihY5S1yG9hnQzzHlSGulYrqGEPc+F8W/6zvbSnV+5p07jD9wyHNbkxaXNHvzLgmWy/ewi0+hkcJldO46ssWIkp6eQT4unZ2gURgFajWnBdTM8EnaGehVRQKZlHYJWrE9bQhgtvSq2xBqS9SL286XPQKOh1zYq6p3YtQOWMw05c0qpU9YyrMyeihiHhh3pa412sBikkZXMOKEjC3syLxBKRR0CUuyMNnisQXfgw0wkWRI212WvUzvcem86m8DkS4K6NRuge7OZpqHAdjyJ3eXk5H0UZ8ATkqOpHhiVuYWixPGVyqCEiZXKEIrlIeT9gggJagbsySwHTwfWkTqlbaJ/5Ro0PLTraDflnB3658P477rricLt3/9us2P8nWN09mOmM32fQV/a08AyOegXJp47PRW0XkqxZC2XisPmGEwUyklQq9UQ8md1HGHQRNhiksbQiHEi2+SMZnQ8Xt5HNoK+pxpCGpPL55sBarkOG8KQU4htePFLxtObkqlcK+nXafhOalw6h5oeqNlk1a7QoTZA7/O73kuqZQzbTB4gdW5Wqsza0SgZWkqPRE8CKlMyLOqESnbjmIYVjVGNrpMqG0NU/IBUacTwlYieKyHVtHxR5KAIVfcLFZTLZRQLJQkXeU1cakoGSYhkDLvj+ExoKjmZ5CmZ9TOLZO+BzXlmsy7rbp87z795c/7OTQ+1jtT40zBH43S7s8WgHKojkjWNQnWK6LQboWNwcmN4RqrgMwcfeHvFC8WsSDQQh0QIttBsNaTLyDo02+lR0JQQiTvIZfOLxmp5hYwnZaInGl2SwNrENVV+5+usQdtrk1NEjJ8sz3ZDdVdzsuHebDfucH/PemLrtbvfR0MFbVIZnLzpoNrvIXMQXKeOsaXVNoaEbBIxybeDRZIDCKMGCwWGZDVH3FURhSKRtxVpMLLDXiiwWlZEoTCItlk79d6aU1n4iryfreuLE1OHQai6iMm5edlY2ZNpts1wJMZ/9esvOnFBqz3/9OCD/re/+GiwZde0hD1MWOf/SJA4qqMrHkI8hR1O4ZRW6kHFUXe6NMZTUGiIxm28OhM6hkIMk7ghWNkgxoR9BVaQuDF4ckjSLTckhlfQxkl66qQ3Qm5Ip1RrG22p19VnpkY/m9fuGOKMRepdt5ml0HQzZuY8ZyAsjXFrQ7wrfGBPIhtHdy7B9CwEkkI2O55qNFzHlWoXjZtJaoFGXyrLBhGYiV+Al/elEGDzF46mptRfeg9ZXVPnoJ+og0jGSdjJL/MEGUbqowycXUbNPygx1ZKY/8Vn/EJaa1fKNDYko+d/aX06/dKG1MqELzTkTmjARU70ZGD7W/hgolDw49wMWrsO5aetc7OylLBqErFiok04HgWCqqBNCHkuIbmaP0ijiAm2KTlKBJIJdXpDmq4NYSlaMqxjvR4+C86bzePb95OffD8mjKZMKGAzswHk+tgsYs7Fr2UzVeYMLsu9LNm6GBwYNX2OgjQIbQ/EzRdkvoITd5pnsH+iyb1mPDyMuQ5KQakbwIQ5GQuVLT6b8ZvnHK3x8238XBOnrxh4boz/3i9sDhj2hF5Fqi1p1aKPM8CQHKlXSEuVevPtQmolyDKw6SJaj2lPCy6+PSFEJsMkhCZMMnG/Iz81wWP5j8YvlZPIhlCR/C4ImgLICsNAaRDDhtTEpQ5OklyWRm3uIJgUJn7dRbOsgWarTd3VnbnWqvsEyDLe9W4sQbVKWGdjaz05tSSb196Fz642m3istZclVmdDj9ACSTo9hYp4vinr0sDB/oWUH+T9eAs6oZHcDZtjmA044/6JxRuvn/2e1vunp15n3LHvYSOd6+a1uu06zlg+sOs3XvWaExe01Mmw51t3PBw8sbeO0CsZKdKM8R6p/WfQhGnBj6GOofzseIZsJSlj/OJFyRlEDEhaz2c3MvWYjPEtuEobJpromlIawwIqxpsbxeeKobOlz1xCmkXcBNo44imjz9HNwzIjgVwaIGuJUsuAWn3iJrAJs+QLdk65d/TSfNdOJSpT9mPCaisfWiBgbmL6EiK6TZgAO9nai7CgPmnISS9CN4FP8UB6dhKMmeqWgg+0QCDARK4Dh4ckYbaNQjMXYYt6nZI1cyg+MxO2pnFVB16ujajUOen9ZSGjJ8w7CuN3khpOXz6w81d+4/wTFxTewK9yxTU3J4/vruUCt5gxfvvND9PGnwP7Yuvn9qdacNbL2/fPxsoksLWy1vr3Xu8oBs+KguQGfKRdQ3muYE1sTK0dRvscGkW21GZLhfwd4RmSP0gX2iSfPcbP59kkX88vW3HSK5kt6ZXPsA03Uw2xPYQZxi8wY4VvsCvdW1DgZ+jv0gTeVnXkAiQBtaVZbTbZRFU72ClI0a6+XrPpKLBDz0k+G85ljV8/wHzRTFPMvlpyg+5cpvuez+VF0/tvPT+N/8yVQ9t/+awrNlx6qZXmmev16e/7bnLxpVdffxsTXp+yP/Qj3SRF/Rn/7BeQlTM6dEIt9edO59Qi/zJfsBOSpI2T7PVKu94k7dlqTrYqpTTrSpcnIY5sGjVmzqfaTZomt91GnhpOhrR3jntjS629f7Z18N4EOiL5DSn+ZB/rRpZYXL73zPq+7RHI5uNr6BjY0bVOqZO/2ATfGrtZW1NmtWVjdTaHO/l7WRvSbzfD/A97Asw0fpY6z1o1vO3GjZdvOLzJH6XxX3Xdra3Hdlfzsxu/ffOeTTCnx9fBlo6ByJrPZvAZlJ+5c/QcHJmznVF9Dy3/afNJfyM3KBuXd5igSairCbOFJshb2wSS7GG+L0hOrZ/reL0ai743hzE64UrmM6xRzF7nN0m7bTZZIW/52b1uabVmZu+A7y0MBxJGaLhII+Z1spPN14r6jOlA2/fKQiQcT+kms3w6dg34/rbPouuoMGd96CkpsGO55uw9s7VL8zM7Yde50UygbaI8i8nOMV+QfaaEVESIooFz1o5uu+FDly288V95zaebj+2pySSXgs26QxF7UfZGziZFmlYx7WvtTc+iB+3iaO04a3S2JSPGL0MzttKQEiXZOQC7YIIhyVwqjSHPakhmUMNuFmsw7EN0NpB5I7vZNEQxte0ZcfzMDdyp0Jj3mbUM2dMkS2/2bJsiTeKz8ABrvPypdXQju2rr7WZjMCQKmfSbcCf73e3nzmgOdjUJ6Wis8aerbDdHJxzKVLlsNUvDW90AvRUuXfDe9Zs9AmDXmHj+s9ePPDfGf9W1n24+uqtaIG+Pk6NxGI8g3UcXMWGs0nkkdidC0fPghi0kQaPTfmeiSt6Rdo6VlDa8/ADiOIHPOBKRANzYSGEdOYaLloQ3OiDtk+4zoZfTYWbtEdiTIVN3N9WhlPAq1QZToiyqxKtIRn+Pwx3z/b3b0T/76K6nv1f3rtWhwty0lJGeDgZAmOkDHM33Z+8+327grHXDz5Xx39LYsnO62HIKOsySi4SugqbJ3Uwx6pjGTc+TyyGoj6PixFg6VMFxo8MYGBjAZK2JZ3buRDMK0UpcFAqjCKVrGyjUOW6J8deZT3oFIE+qE9ppiBwH4Ykp4TaxMZNtltgjRX5PdRg9SfSWKcZEi+Nq/I5RiDmaG7D42udvBazxn71meNsnNz4HYc9V11rjL5tEiTGnDjNYlRVCVcX/07PXD+KcE1fjogvPwwnrVqJcLqLeaGH77v345vd+hKd3jGG6ySGTskFJJmhH5HBk3EqVRopQs6HD+C4RbiA3Nq0WRyevNGa1XWLF3aR9gay3sh1ki7M31Yrn7/4tfvJRrMDzYfz1LTunSy2nDCdRD8pQhX5fkxgmXyzYhchFdZx+wjJc8obzcdH5J2E4nx6A9TZw34Pb8aV/ux8/eXQn2v4gcvkCooQlRLI8tKU+HcSxMHRJB57IxSSG1ybuXrW65PM71QpTpZjV+O2RmybPknr2HfYcxd1afOkxXQFr/OesGX7mExsvO6GfN59XqfOqa2/pGD9jbe3HmmaSKaHJZD4hydEULv/Vt+IdbzoHSzm4E7M8qJ6Y7A+TAXD7Fx7AV+/9CSaaDkJXJUfzPodV2ggbJDPykfMJjeXwinZmvXZe8eXcKJnqS7ahws+QeN8Yt1QuBAmZVkVks85rFfpZ5sXnLtQKpMY/9OwnNl5+fD+fM6/bftW1N9e37KyVOMOr+BtG+zplZR80KCaTIwXgg+97J950/ioUY6BINi9CBDiRlCuh6QB33PMU7vjq/dgxHiB0yOSWwEWAoF5FiRDZNhAQf0MkIDn9/RJyKGpjlZkvg61Z+iVq/PJ/O9clwteM+nWQSSaJFo2/H5N5YT034/m3f2LjZQvL28OvftW1N9e27KyVmfBq0iggWMXPZ7aT246xYqiAK979S7j4FasxTOiwdIc4xh8Bfgn1HHDXfdvwmbu+i+1jVTQpRhM3MVwEBvIujl+5UuADk7Ua9h0cx3QQIXZLcN1BxLEr2l5yDbaMZyEE0ofqNmxuIjX+pDN4T2WQReN/YRl0P1dDt8Zqzzlrhnd8YuP7Fpa3xxr/ozunyq1cqTMxpV4/LZppuyZGPq7jd97/LrzttcejbBy1I+hLSph6mEqAL9yzBZ/78vexZ7Ih54frxrjw7BPx6lecheOXLUUp7+Pg9CR+8NMtuP+nW7B9bBpBuwI4pQ5cVnsJath82AYKK09Z63bllErgGZz7oufvx9ReeM99zo3/Ax+9tfbIjslyo03jVzCaTnOmhiddRlIWtibxxgvPw3sueR3OWlcAw33mCGQIIZR85wTwjzd/Hpuf3IfJBiexYlz0qpfhV970Spyxvowhyk+GAMc/d4638bXv/Qhf+Op3UI3KmG5SoJrgLQqZtWTIvZBXJoBWEAn5bcSSZmZgwiMDGeHLQUNo0VtkgphX8PfCM4SX5BU5DvykjjNXDuy44Zr3L6znl2GWOx+uPrG3nqfnF2oKE3ZIGyoTbtAT+7kASysOXvdzp+PNrz0fJ6wtCh9PvQlMVtv47F3/hod++gT2TpDgNMGK5SN47zvfgje9YjWWsrwvIT1Ze3NousCOaeBvPv4ZPPTITrjFUaXsoDKMSww/h1kaOrboF2XCKHKKSIQeQ2eJCWOg4FkUtsCNwBG9ReN/8W6bKElQcgKcvrKy+5Iz379uQYFtmzZtcr+4uV6n8RPbI8xnnJ02cb/U+aXR5cpAGxtSSXMKqwZ9nLJhNdauXC4ed6rawO79Y9i6cyemmwmaEakPPZx8wkpcfelbcf6JeSp+IScYelZsfASOgyqAv7npHtz70BOotfQEiVpVLB+tYMO6VVi2ZAi+72L3/oN4+NEn0UzyqCcu3PygdJLZO6DRc/LabtYX761fvPKoHaHiJjh1aXHnCddeuf4a4qyP8DGvA//q6z5Ve3RntdygUIQMihvjF+Zl7fCyXsMHsTNeOxAmXQQt5D1HOrwBPBycGEdCj+34CCKK1+VxxoaV+K3LfglnrwIKEUWGA4Ud+0U04GICwMdvvxff/9Gz2HtgHG4S4OxT1+PV55+Lc04/EccNK53hrj2T+MljT+Pu+36AHWPTwulJfgjyynAzkTGYpdTZgGdHuHaLT3sBrABL2RSkO235wNabrrnyxH4uab7Gf+DRndUlEQXBCDeQUqOWEIntIZOKxfbIBFXUgk/FRkEF6nxgSMwOS5dtyhb5aIacyElwwsoB/N5Vv4YLTi4g14owkGfCCkQ5oJWDGP/f/I+78d0fPi2UJyPFGJe/65fwulefiOGCInY4mM0qaDUAbvnst/H17/wEU4Gr4Q+RjnEoUGRl+53XEvSzxovPXcAVoPF7cQ3nrl7yo09ec8XL+/moed353/3Ypp8+8NiesyO/bKAFSg2i4nCu1M6t8fuOi3bYEmWWosdpIQ+tsI0Wx8/yvqq2sFMb+0AUoJRr4B1vuRC/+sZXYP0oQOGVUFJ6SGXogc3juHnTl7B9H8+BNl599jpc/s634OS1LnURUDacsyyAEnK3eWsLf3fDJjy1ewqxU0KuUFBRA6Lxhe13JktzPwu4+NzneQXY9Q+nccGJa276+//j3Vf3czXzMv4PffJrN9x9/+NXN9pUXy9I2MPWVKfaY2J+Xgg7skVfAWRMTGMmyG4eARkAmC8QwyODQUX1xq1xbFg1gLf+/Nm46JXnYM3SvHjyegQ8uq2Gz9/9Ldz/o8eQYAj1iTF84NfegHe/7QIsG9R+l0s2CCFV9VGPHVR/dmp86L/chkee2c/th1yhhCCirL1SHS4afz/m8gJ8rgsJe9547invvf633vzP/VzhvIz/bzd955wvfPvHP6lGBQSRIiQddm0F25OC26TezoqPSxx9oOGR60ktvxmr6ITfbiPvFdAKOI0RCw2FE05hzWgeG9Yuw9KRJagMDmH3vnE8s2cM2/dNoB5ydnUYudY0Ln/7hfjli1+BlSOETkTw2UGWoe4Cmm0P0z8Dxf3pn38aj++YRAMFJCSiiiIU81r90cLrYabP+lnRxecemxUwBAfpm3UPPdnfE1kwWnIP/Or5p5/yu5dfNN7Ph8/L+PkBV27Wl+9YAAAgAElEQVT85OYdY/UzGwlr6b7QWDP+ssMJ5G4hY5cd2LA8/vY5NiV3E8UGMXBKG1UMR0L5d7lYkiSVE1OBCJUZMbq2L5QVF565Clf/+ltxyqqCQHjK0vElvNqXytDmZxr464/fjqf2TAH5AUSJg3zBQ1CfVh5PgV4vGn8/RtP13DkH0Q9XdNE178xadN7Hls7NNLdQGVomjvSTCWf3cgnyuRAbVgx/4pPXXPHBfr/DvI3/L26757Vf/+7D906FnlRuOnQd5h1lSkdq6NkBcwXgtCk7abA43VP82QXT/01Ggq7ZWpOgsrnG8bUhr4nLfu0X8foLTsfyAcIXILTbTsHDVAu44TPfwFe//UNMRz6c/CCaQYiCTwE9FdJj+XPR+Ps1m8zzxWiNofLXM0gH7D3tdTDp5J6OYQrwRWctdLZeR93nNH4XXi5CxWlNv+nnz3vFn1z++if6/RbzNn5+0Ac/9oX7Nj+15+dD4WbUDm+2YSTD2J2EMl0g4nFSIFrvonR7jJThwCSmGU/DUMsJJ3HKupV4xTmn4aJX/RxOWpNDFANbt9Xwre//EN984KfYPdEACsNoe0U0mwF8z4Ev5Kk6wrf4OIoV6NvzZxgdOjxMDGl0llgmltRFmv9rPH+WsM8QFvgIcc4pa/78n/7wbX86n29wVMb/R5+47/+896Et/3fW+DsyRYZ3s9v4zZfqIp9KdVzTL5BBh3bmTruNX/gyhci2BS+JMVIpYM3KJRgs5MX7NFshntm5GxONNmKvgMQpa50/Jm8nJyhdhK0mHIpGHXlfZD5r/O/7NUdp/JY5o5N7dTruWeOnmaYnCENkhtM0/je+5px3/vkVF35+Pot8VMZ/2XWfe+zJ3ZOnhsLqpZyZXbDmRPi05LpyXeOFFgRHzFk6cN6XEZpF5xeQBUwC5EW1kcPsFGpIZFrMLw4KhTahE6zxW55JUpaQtlCURxaNfz62Yxy08eRHuobZzSKStNofEvZpsQVjkiYu5myH8CdZSzXPI9mYjwAnrR7++u0ffteb5vMF5m3813z8nnd/40eP/UutXZSY3xLGCpOyUUrJCZ0fq0Hkbcl8lGF8mHVy/wgWUZJow3LQDEOh4SYxlYrapcot0jxrNhXgRpIpOPCI3+8Is5kO7xF85nwW9yXxmjl1fOf49j0nReosM4av3lKcqTV+wRBIWKSbhMbPmL8QT+GNF5z97us+8MbP9rve8zb+Kz5y61NP75k8kUzNEb+Q1XLiMLtg9pXoyVJ72PnamSCyOWLuwxikrSKxYtOi9iv9h0zQOHAIWAvJvdlCseDDM99SGNQM0SrDHxK2amNu8bHgKzAHb1M6eZch4e7Q4Sg1iwqPWeNnbqA8oqz2FNt1rF9afujW6696Zb/fYV7G//9+5nvn3vH1+388zTJnriB1+xwpQDphjxLGalxu6EJkuJxUJWlWwItlL3jWR4/x93Lc2ASb/PlNYoaKZcDLo95sCd7IF05KjlZycKbV0e/iZnF9H0ErEi2txSZXvyYzz+fPYfwWA6a2wAfdmDZMWcMXqjBL7tVJiOn9fQHRFNwI+WAK73nb617/v7zjgm/1c3XzMv4P/92df3nvT7f+p0biIyEoLSSOnuRPISbHD8iFDw8PCyNwGHDn+gJriBPuXmJqyDLmCI04v6jU980X7JUI6nBvznISMLzizAAfkdClCLdDGjaS8YdzxJIY6yZToiQNm3gNMwhT+1m9xefOvQLG2MUBZvXYMnSHAoqRjj/JgtkIjSR8pdQUDZ94Fc93hDl7ampKwtbR0WXSKA1aCXzOcsQBSk4LF738xI0f/Z13XN/PLZmX8f/BxzY98ODju18ZUoRacDkxPD8n4nHbnnkKzVoVy5Ytw5JlS1GgEJlHfAOZw9RAyS1Js+fgioDdMnR92Xhe/EBHtmNm04TG7xn2BjF8eV+l1zZDjLKI3AA6bKP0WlbgWBtri48FWQE758GSsiXlZTEiK5hBkKGRPiIAkqEzy9c5NjjblE+NRIJqbGwM+/fvR6k8gBNOOAnlgRFEoVI1kinbS+q44PTVX/6rP7r0kn6+y7yM/4PX3bxt8/aJ4yPO0tKYqHSSizE1sR/bnnkS9Ylx5Cslwe2vWrkapfIQ/FIF7RxBZdRqcpHL55F3HcRRYLRks7F3apIdzz/Lt+KC+WZzKFGWTBB0Zne1FKq/6Yw3yoijVpg6rA+LCW8/NtPXc7sh46kD432V9Xd9hBT5C1k2ieERqNZuodmoigjhnt270Gg0ENQaKI+MYv0JJ2N4eJk2wxw2V3PwogbOXj/6+P/YePlp/VzcvIz/qmtv3v3Y7urKsJ0HO0pkFaHxTxzci927tomGLofQwUpMZRBDw6NYumw1BoaPE3kbig4HRoiMWlzpsZj1wxmPMcc3Yl7EWVyGLqLnKsmsrZal5KnW69u30YzEErtacqt+lm3xuUe6AimLc/YVhjsUMYKI03U5+CxU5GLErQamJg9gfGw3JifHEdamAWoPeEUMDI5g5eoTMDq6Qow/FIZqV0qep68d2n3TxstXH+l18XnzM/7rP733sV315S0SVkUJinlywweYnhzDjh1P4uCB3UI7yIkqYnIof5MvDmB4ZClGlyxDeWgYjkctpxzihDzwRsHQ6OPKhVkJnEPMGArko9Ne7+i3dGSOjmw8cdH4+zGYfp+rAnR2aMjkdib8oaoMJ/HoOCmSXZ+axMTB/ZicGEPYpHJ8DM9zxIaYNy5Zuhqr156EoaGliNt5mdMmCYKMMa4eHLvxw5fxSDjix7yM//3XfXrfY3vqyzh66FOTicMhLoXe6hjb+yy2P/skwsYUiiUfrPXz4nm0cWKLm4AnwXFLl6MyPIqcVzHgMqUUV61XAuJU/8ny0s/6jSR00eRVa0hZCm19hWV3zu7zmVJHR7xei0/scwVSjWIjFi5aZuZN2iGiqIr61ATGD6jRB426JLo8DWj4tIFmI4RfGsLa9Sdj6Yr1yLllmf+gPUW5BIVcC2euGjx4w4feuzRnNWaP4Drnafy37N+yu7q0lRCD7yOJWsi1GyjkE4TNCezdvRX792xH2KpL0sLEhJI4NM1WRMSlg2K5gtLAKJasOEE4OklKS7U/ngIp43KqDzvbd7GzwsLVyVSXIVCGPCsdpte5YhbTZOIsO3YpyfHiY6FWILVFZc4jxJ39l1arhSiqY2z3VrTqE2g26nJvOF/t5tiwDKQxyUpQoVjB0hVrsXzVBniFYYQhp0eKcL2CFE081HHW2uGxm/6v9y5fcOO/8vpbxx7ZOXVc5JRleiovXaQW2kkLXi5Ao3pAYv8DY7uEpZnq6kmkqiRdwDengNgpyyYYHT0Og8OjKJXKoiUlHT0mM2RoFhduyaVSYBQTpti8py2ZSmXHIAJZ0lTiKttbsLBppTfXx5Hg+S3uP/vTmssLYfOkfEkLZcTd73voz+vgdYwRq/JpJJNzjUYV05PjGB8fR6M6DiQ1OJzTliheRanlrlAsz88jjBMct3Q1Vq45AaWB4xAneaGth1NESJsiEVpSxznrR/fe9KHLVvbz/efl+a+89pYDW/bWlpAZgbR/woXTjhEnLbici20HmJ46iIPj+7F/z7NoJ8TmR4K7YTOMp4E0oNgjSBjeFAS6zC9LCfvBoSUYGl6CQmkQENIpHYinEbNfYCU2+UXJ1akK7Qp+ytIW8ndBrLpYDssI3EPClKji0basahcsW1lS5UZbgdKbLcrukmNky66W9bmfZT9Gz82gIjstIlGk6e5aZ+vssgbZv5s8S1RYuE4GPyhKlSISncLV06umBzdaXk5efs3w1or/sbzMO0Xqet7nZn0KU5MHMT01hlp9ClGrKeqWvBl5j6J/LHx7ohDJ+W+hmeG/HR8rVqzHyJJlYhOi1ZDkOvKoYazDU3mKU6wZ3nnjhy9b28/Kzsv4r77+tgNbdk0vqceqzMIuq0r5RHBcZu8sYTbRaFaxf+92VCfHUJ8cA5KmwolpL+TYifj8ohgzYfUiNd/OgRqw+fIg8oUyRpcsR7E0jMrAqCh+x4mLiEO9OV+1cI0COr29wJM7WrQ6SMOQi7JCVube1pmtyBuvISsM12m2iZTRTHh1url6psDs5NFz/bNHwskiHo1FaghplWvMT4EMGLkmSpbOtTaUNrLrY9dIjJrjpiIuYe+76h+znUPnl0RN1KqTaNYncfDAXgStGoJGFVHUFEQt43lRthdhkpZKQuV8UF8sYC3cKaI8vBRDI8uwbNlaFEoDUu2heAkbpapImQM5e+QeU5ZozegzN3z4uWBpvu7W8S27pkcaSV6AYuJzRZxCEXjcADriECFoTUsiM75/N6amxhC36hLTcV6XXzrklzXDEDlXvauEMyJPz5CvKDu9UBxEZWAphkeWoVIehi+kVD4ioipEkE11t+zUgPV2raApvxdYAxdZ1AnbstH4H0FxfFCUM+sRZyvRzUlz0iu781z9uxO2dfu79ARLwzRVYUxPMBo2H4R52LWR2jsJhM3asAJBFfasOJ+91/wb43caPE96xvG1+gQmJ/ehNj2BVnNKaObjmAZPNK0ZUKFemsgkyRmkFcEkloIImT9cvyTVHJbGh0aWIl8YMKcB95eyQ9FZ2j4B7YU6vGetGnrqpo9ccfKCev5Nm9ruFx6+efKJvfVKkNMmlyyE8SSqb6WEUOQPopdP4gaa1UlMjI9h/OA+1KtTQkbF5l/ed0XjVrw+fbejNWAZdyR4ycsrBxBDH1Z1ckX4+SLK5UEU8hUsW74ejgguq3FLXkEJI15WkhNaFDF2U0mym8IqqMdGYV02AI9+O1IpWKrugzF7QqTTSykFej8Lf0ye25Fi0uvsvr409LHCclb/Vk9LFepzcxrWZHW7JN4WX2IE7ag4L0hYdRB2c9C49+97Fq1gGvV6DWFQF+Fu4WI1aj20B+YAXFc5dROt4Ij3dlwJS+nkGOKUB4bkpB8ZXYpSZRieXxamD4FA8D+HJ0RmatChlWmH98xVQ1tvvub9C8vbQ7rCe+94ePrxvfVC5FZUc8y0rImNp8Ew/CGgTBjRiK0RCEOIOGqhUeNJcABTBw+gVj0IJ9cURcWOMUa6uCxxOr6naoJmeEE8EDcV+Rl9H45XQBQrZXmpVEGlPIhipYJSsYJicQAeu4ecZXf8TgWJM7x643l8cs6YaoUm/lc9T0UNynQju9d2A3RvBLmdEhYdWtnlUB3qI9kAc542Yu38LgoZ74YLqleV70keU1GTZJjCqyaXqeYzdBJuzjeGrzMWnHMQCnlKOSWhOK8oDtFsVtFo1tCs1VCrT6PRqIk6vedS0bKlotwMQ7L3qt3WOelEP49vTayO1Tdmk6rdLqNcWYLR43iqH4dieQCeXxRnRwtizicaPLQHY/iR6RtIlZtRRFInadW2W6+/amHVGO+55x7vhm9urz+2q+oTzuwZDkzrSSx4T5xLJ9uPlSFNZjJDmaCqTk+iXpvAgbFtCIIp6QVoSVRZlSUpJXDN5ckQImZimyOeg0bXlsWOaNleUfsEEvp4KsjsatnUdQoYHBqVE6JSGUKxUEbOZfVITwe6s4hxk4RbxnuazWzVDYVeRf5mqzqsQhmcEI2KMW6XFKjtHC/8TxH8k56Ihnu9JW4xcgkxbIxvCwOp3GrBzRvnJb1xtOMWmq06arUptIIapqfGpZDBsIbxuQhvs2ogWJwQiJrwfE+cEe8b76NsKkcV4aMwFqkpERJpxyaHYPPKg+uVcNyyk1Auj6AyNIxioST3klQ1Mp/UdhUXlkGE8pt08o+M5z9tWeWZWz969cIqszz44IP+f//io/Utu6a90Kt0eO7tRXUBl3jcEbRn9FtZ5eFDjlTGn0mAZnNcOsIHx/ah2WzIqWE9Kk8MGr7PBIkVpTgRL8TPsBuF87oSr3diSdMg4xFJ7EfOF2/EG8EQiiFTsWj6CvkChoZGBCPCv6sR6UZg5YE3rNkIVG/WnBTZYXeWYm35Vj1rp7lsPK0kQ7P+fq7n9/6eGdVs79vR4TN5VlbLmEYm1Zd2jGKRcJJI1k69vXphqea0Y9QmxxCYunuzWUcYNKXGznWXU7bN5qVWZCScZU5nCg3CoOCSWSPSQSLhQSWFpY6LshrDNReMOYsatGo4qFQGsGQpPf1ylAbYlGXexVNYz0KuvWCvaCWsgWTAcTZstY0yylLl0cTpyweeufna929Y0Dr/ps2b83f+y0P0/G7kDyAOyZXjivfUqoEuDh/ivU20ILh6lrQMUazEmNTdcnhjAln0am0SBw7sxcTkfqkYuH4OdPT0NuCmMPVfGoStUIhX5viihTKbao8FrtFw5bksi9FTEz5r8gMiTbkfmVAz8eVpwU2V9wvIF/m/8xJKyfcxr3Ms7CLTjDODeLNGMYcMW44g7jlk2ERDtOOjwpPK9deElXwvNNparSZlxaDZEmgwjTSMAgQtnqZkt2b9ncauBQApQzMmdxmXszgQa/nYSjsZ3TXZ1Cb84PKIZ+cVdNonegoTfcmyJRtSQ4NLcNxxKzA8NAK/UFRay1jDV94n5l9S5zexPSPObntieEynZhPzUBwDO7xnrBx85lMfueI5Mf7m47trOcoSpQPI9k7O3fSxcWnqpRRtSSAyF5k3gUlUszWN6ckD0iuoVaeRJCSrVViyJGkStqgX403Qej3FqBXrI/5F7oitLKQJnr1K8X6CSGUY1Q2lkC6ztOHN/HGO4nc8xlmN0ORaNoHLjVKU5/F33Dg8/uVIN8m3hHHmkXot9QidUCsTRmUrK3yOLTXSMMVwGe5FWiCQ3krUlDkK633pjBgiagJrZhj4/vT8HSy9VluYj3EUsJPzmOvMJs6yjkRdGqu2zNbMHST8Y9nT4PV1PQ2wUBJa9m2GMDTMBuYSCT+lOEGWP56mclpy1kPcWqcBqulx+rAnXyp+os8QQAvJCNqN59D4Nz3UenxPDZQl6sxgzjqpM3MjdOrkxpPoRjDuwjRFaOhR2EQYNhA066g3plGdPIhqdQpR0FIQEL2eJNKRhFE2YbYnjhoHy6697lU/S2+Yq7w9nPqyAxemeWMTwtQQdIOkG0XDIxHTtsP0diCnA17prcCkBt/r0e3n9P7MPq/3b+KN6RiMMIj8vVO5sUmmJpiKlUpzFXkua/Nk0zOhkK5U9z1j2CEOx5SJ+QxbHeLSafecLlrXhvPSlYERCSdL7NUUB2Smg0UJmbNgqGjDmg5jnmKw5N71dJ4UEdDD1pbJsbj2rPOfsWJw26euueLEhQ97eoxfoQKzXPwsG2K2c8GGSXpDtCpAmVERkY7ZCGkK1LXRnJZEbLo6Lglz1JyG5/E1QeYI1ipOxxuRjzNz42y4JLTncq/tKTJLV9QwT2SNLgXc6V1i+91CNqzxyR8s5QqrHRnP37sVZ/t3NlRqSwlYdmvnp90QAumWcuzsXEd2k0u3WoyzG08v75NZB9v4yzoQrp09jbKhpoabeURRDl6xgoHBYQwOjqJSHpHOfN6vSKjDfIokI+zbsJ5vN5KcWqaql12DmSNLWSIsS2alr7AD7c+b8ZNWPKvFNYPxu2cD9Bq/diSNF7XHMxNl8cQ6wU+cN4OZNni8BwjkRGggCms4sH8HgqCOsKXlNp3gMkexY7rGHeMwXt9pa3MuU8XpYErMa9Vw0uM+GwpYo1KflNJq9Hpz/jvbQT4Sw88+R/IjTiv1wBU61Q4eWpkua/YasyGW/l5j8rRSYu+EJsIRqeS7bp7+vcOYx0NGA0qZgS4VCvDyZRy3bC28fAn5Qgl5vyxYLBo7ezOs1ohzN9con+2y+JA2GpnT9T66NkBPl723wy6MHPT8Kwe3fuojV5y0oJ6fdf777nwksGGPGn8/j8y35RCKadTozWI4Y6oKLKMRC6Qtxc4HpIOHqvDebjfE+CU8qtdQb1RRr06jWpsCWnWi7uifFe7sJsrkIDVsYlcYC7PKY2N+LcfaY51VEg5ZGD8jPzqGyPCCYRVp12dhgLC/kzp3z2OuJHi25Fabf2m41Ls5JOcxHXZ9ns1T1AEEkfZQWAaWME1yHa3xS07gstnI5Fb7BVJmlI/UCg2CBCgUMVAZQXlgEOXSgPRSyoWyGD9xWdKEtDw7nbXQQkQKT6dug/b9LWqXCTm7/VkRQXuK9TpRa/TZqpZF7VrjP/FnHd4FVWbpNv6SCEpkE5HDb4Nu489RN0uSM43PxdilO2ghsJrQWqQnb5qU6SLFErke434+l89jCMSyW0u6jaxytBpV1GqTmJqeEHJaUbeT3pB8EHyZLWblyVwDGzE8FeQyjWxqz8khn2VKm3YqbK4NMFdsP9c6zfb82TZF53cMEw20w4aeFnRGT81EXZJJ491Z9aJRsrPLkmRocwZpgXNdfMFVDQ2OoFIZNriavHh1VmWkfCxSl8x3iOHSCprHKoxniYm1asPPtLmVoGslH5EtKhAFgVjIDHbWgaZhZHYDzDR+TZD5yufP+OVYY0LSi3a0t3fuk0H6TKKirouVTm+Z/F86sPao1sWzdWbpRDo65WNjUqlDS/Km3WWWHtqRQX3yf9PrhQFqtWlhA2AO0Y5Z/msiClhpYvNGMjxzQ0ivrt9LUZ58fw2HbFih0AvbNe6u4nSdFIf3CrM+43AJr6222dAmJQIzOVjMsMw4HCmbuIThougXZJqOgyGl4iCGhoZQGhiEz99JIm8aaALe4ettVYw9D3tStqVjKyEjGWLE4FNmblkje2qb6S01V/Z/TPPQnFyyVmYFuifwuuOi1PPT+Elq9Twaf8q2bBpX8gW4e9Vo5O+yOdJ7q/Qh5u8CgeBBrLV0qc+buVwLQus0OWSBFEFokYpcRPEk5kiX8EamxtQ7y2mQqYBkbwa9ThLVpMSqpUJ2jVsyMN2oV01dPJB5BLIEsPGjQBTDJSMYFcWddAB1Un7TvGOu5lTfvxfOI4OfMkZiP0+7rUaHiUtMo/I9FMSwFflKChkyH5BQwDO9DOYSTo4bgJN0KSyb8BSBEvB7yTyEbmilmzeGKB5bO8JcO9mghkFPw64Ua6RlaYt/ooPLsOQJk59xHBnjl43Qqfr0Gn/6b8kICW8wMf+Chz1scn3+9vtbT+1vgvAGOUVFh5dJKWvxpvBmFsp3cmJQThLBEz58qqYTt5EXiKpjIa1+Xvj3GdIIBoS+Vv63YrtF68tSkghfT2g21EwF9a7yaVfprucUklIhN5Jt2FjMi+khyAnNySOqyhCwp6/nRuEGYfs/ahLMpR1UVjQYg7PraP8t4ZQsCluVxgMYRuvuHaOVJ4Uga1ggBHQMwdhgk5/Mc1gqJPBMgWGstBTyypShPQXFVxGH7/o6CGQT+2wS3MkPMoafuic1sBkz0MZQD8t60Vvl60paeyMBY/wmjOz3gGRkYKo9W0+69v0LG/Pz4q6+/raQ8IZaQj4elRxVbhw90kSRUYzWQTsMUCq44BBjGAQIOYzsFhH71GOnmEROQhEKUpOfi8busRpj0IBCQmUE7mj8NB9+lhi/pUU8xIrpCTP3wzaCZj4jvUk2rBLjMUAxCdWiCAU6TZmQ4f83onw84tlhpWeMSIOu4ZL+1ONa9kMmdyCXqRySYpWkUeRmcCWW5r9Z+k3/rpuAf2+xQ00vbsq7TDDTWNsMnMiXS/FL6YbQ379YH/YOUaTkzJVDT9z0kfed2s936WkpHNlLf/Ojt7ce2TGZr7fz4pG0zaHQVZ22chAyHCEhERNLIjOjhumAFkASt3psuqKc/3UYUbviscTAOBAvUz5MbmlEDqIctw+9v44gZo3/cAZ+aOO33d+ZXWA57qUWrZWobFIr9Wpu8EhzAU548QhmEpfQqNkVpefmFjVNmZino3mezZDkp/xd+9/8N2NqnqbKaicIG31f7guGcDKLrJBrVpsElp2pOGkIqIafrTZ1J+UvXqO399MavwyzrB59/IaNly08b8+V194SPLa76jfbBbm5vC30xlJCFDZdD6EBg7UaTQyUC6Kny+6sAMiowSU1YMpIRkpJZ7aQdGtJWSdwWS0tchZXwiS+p/nmNH59HKubOHdirmGDmTPIVDGYbzhGmKMbkKY5js6P0FgFnKse3/y+NydIAXBZDy+QvJ7cQcM8PRn0vQV41oGVp/0L+zsJYWaUY20BYV7+78i85AI/y94xDrOcu4bG/xyQVjHseWTHpEfj9+ndhGNdL0XIo+AhJKtDTkcW6clzQV3ifhoSnxk72v0Tmd12Do2YelttIZgtkLYiakrIJIzLzCiEh5OsbHrnZbMZ4+/Fgujv9XoOtzXSRLn7TqUNo+7Ob2/IkMSGgj1j3Ax3LH6e38duAoY5yhJtwxuFIrNfYHMlieToAEzCHIeaM9j5gt5N5lCHyXzX2fsHh1uBBbbQBXx7OSnZw0hqOHv1yBM3brx84cOeq667NX5055TTQlHUFA34VI0fHiKHWrw6hEDMdy5uoewE4EwWvb+ELlRLyTlCPJRwcig/oIlwQOw/cwEmAdqxFQ5Os6ms8cuQtMTRpgw3Y5GPzPh7X9ZbU7de1Rq9/bvmAew/FDqVDvGwmflY7fAqM0H66A2v0srIbHYilC+dcm8vGI4i3plhHOPh0407k/eo377DAtruUb91V9izdsmTN3zovaf086bzOvOuuObmhKjO0CnDSciErJ6ft1U5M9X4aZouy5jhFEb9NlYvHcLJJ6zD+vVrceDgFL7/0A8w3YwwUW+hnR+SDVBvBJIslvIucoTXSh6hJ4rl4tQmkymfdUb55vra/W+CrIF0yq2zQAykaWO6lhZ60214M3E3M6/y8J652/hTcJo92WwVJ/ve9ne2Q9z7N/vvubrN/RjR8/Vc3llePxPec54r47/y2luSLbumxfiZkDEBpfeXuVkRoFbCWBopdZPycQ0Xn38m3v6W12PdirxUF8lHVG0Bt33uLvxg89PYOxXCKy9BEOt0ft5po1Wvo+AzyU29v40BurWcDrX8/Rl/rzHM5SmtcVkGAQmfDIpYOn8AABlZSURBVIBMB/nTZo/tgGtlKZvqZg8EMxbJ2neWfyXjzdNSpYUnEKOk2J/spjvUahzu+z1fhjyfz5UCgGFvOGvV8FM3brx8YQfYeZFXXXdr8siOyRzr/IxBtc6vMbitvCj9dyTzlT//slPxzje9Ci87dVhmdlj2ZS2/kQDbDsS4cdMXcd+DjyPyBhG2iyiUyhryyBiPJtI5z0czogRRUcFicYQCR+ccTyWHDI2Fdg8VAWT7BPNZ2Ozo3Jyv7xLW47NsvWaWfsJslCZdb9xV/zn0JVt2CHnWEfIG/Ttkos6WOs9eM/L0DR+67KR+7vW8wh56/kd3TuU4ySVYEUlAtcaf6mtAKjxuPI3/8Otvx7vefBpY2XdCsroR3UfKCg8NN4db7/oRvvLNH2C8kcNkg7vJl5MkL/wuMYKwiTYnxaTr4wlYiqU/GTNscuLLR4HUdcIZYwc9UohEPwvSee6cMjqZd5th/PZvc1eOjjzsOZL3MPnOEV/rvFbiBfuibNhz7prRpz754csW3vNnjZ8VGj4Y2/cyCDgIsXooj6t/421448tXwAupodREjhh8PpwSpuHgX7+7FZvuuAc7DtQBf0iaNwShyZQRAkF6JtLsoQCFzuEmUQ71eh3lclnKfVGgzaSCz7Z+WsbjLOkxecxhYFn1yZmfc6QGfPiwbfZnaE9l1se/Q0/f+z2t8bPOf97aJc+N8V913a3R5u0TLsMeG+bQ+BmeZMNVGv/SioOr3/M2/OKFa8TzeyT3ZEWEM6NuBVMOcO+P9uH2z30VW3ceEOppVkiGSj7OPHk9TjlpNQaHKnhy6zb8ZMtTODBJFgEKExSE7blWnYLrc9QupyVD9gTMPKrAAQT7cwwecxr/4Qy3N5yZI+Y/5CVmw6nu18+5tV8ixq+Ot07Gtidv3Hj5wld7rrz2Fqnzi/EbYifRvuqZ6OLv/KiOS3/5TXjXL56LZWQZSYA8bZVsYQAmAdx2x4/xxa/di0aLGIEc1q5chotffS5e96ozMToANJsJ/AEH23a1cMumL+OnW7aiWFmK/eMTGCgVJSHmfpJhJRMOSaIquCLjfc08Y+qL1YgM9nEW05vDo87YBIeKHG1F/1A/ez96tvfr4/VzGv1cp9Dhq03HwHUsyFvYhFeMf/XIwje5yNj2xUduaT22u6qe34C0umN+26pPENbG8eqXnYZ3/eJFeNnpI5rwCpQZmI6Azc8GuO0zX8QjTzwjYC4C4X71l96Id7zpLCwfAIpCc6IbpQ7gOz8+gNs+81U8u2dSxPCYaBNQZgfGSb8nfQQDlabsDR9CRGUabCbmOkbGfwzua9ZgjyR+l4/stMW6L+AlaPwMe85cOfz4TR9Z4A7vXXc9Ubj9+9+tP7mv4TRzRanI0Hdk6+4y5KAcC1LqRGsSZ5+4Gm9782txwc+tQzkPHJgGtmw9iH++4yt4asc+uF5Z0J8rhgfwu1e9BxedVZEwKYeGSIk2SVfoD2BfC/j7G+7Ggz/ZhmZCktwEjVZLOTcd5gEN2QiFUkXHGs1kkw3PRIlRE47DGL+1qUN7xiOJ6ufcHocKTQ67CbLXf7jQ61B/f3F7flvnP2PF4OM3X/v+hcX2CGPbN7Y3ntzX8AhO41BJlr5Ep/m1zm/xmLm4jlI7RCmfQ6mYR6FYRCtu4+BUDa22j4i005QnDeu44JxT8ZuXvhUbRoElxQiIa0aE2EfgVFAD8Pc3fwf3/eAJVBukyGshCRo4+aQT8JpXvRIbTjheWgE/efhRfOO+72JyuomQlHwCj9B5YelGmDkDNYtDmfBhjP+YxNa9Mf0hjPUwM9EzX3m47fk8G/8MYcDe6zXXZ793Z70NnKadQwEBTl5eevTW6686s59zeF6lzvddc3Pt8V3VcgiyNOtF2AEV4dE3V0D9jBwlZqQSpH0Ai89RY/RkjrZcKKBenUDJDXH+WRtw+a/9Al52fAl+HMJ1FB7Qjlw0KEjgAn978/fwrQcfQ63ZRLs1jdeefzYuffubsWGNBxaSuFxhDnhs6zT+6bY7sPnp/YgLI3ALFW2whQ0UZQLJ9ib6WbKFeG4fxr8QH/98vacgWZUNT/tExk46k4G88SpUkoor07q09yOopoTQwgAnLS/96PaPXv3yfr7KvIz/yus/vf+JXdWliVMSKdFe49cLMJgfqe4od4BFfFqtXMX+tJGLIlSKOTjhNAb9CB+8/FfwllefKFSIZSdBREi0W0DoADungP/n43fix0/skhh+1bCH377iXXjlGcPIR0DJ135Ds5UgLuTxuXsew2e+8m08ezBC6BblSjxSbwsXU2A2bT9LtvjcY7YCHeO3U4CHMf7OOKCltOREZh5O0sDJq8p337zxyl/o59rmZfy/+7F/fuCHj+1+JVmarcfPjimmFzDzyM12gPk81/MVM08i2qgu3v/iV70c73jza3DqujyoWFNQDlRMBMC/fedp/MuXvomdEw00G1N4z1svxBXvvBirKmygAXnuGDN213JzePZnSpZ/9rc345FnxhCzI03ZevJ3hqo8Ij2Bea1CP8u8+Nw5V8CGPRmSgJm2lIZm2Xsl1OckL45rOO/U5X/+D3982Z/2s9Lzuu3X3Pivf/Vv3978B6FTQUj2AzNcYcWeWfK0Q9P8mYUcCwK0A4RzMN1qYXh4VNCe7agJHxGKCPFzZ5yMd17yCzjvtKIcb7v2Afc98BN85RvfwzNjk3DLS9CsHcTV73od3vGG87F80JEEGaHOlLY9X/KDKoD//Oc34ZHtY2i77EgrgS2CSLkoMzR5/Szc4nOPxQpYVICVlO1F6KZ/Vy58O/vNwIIFlVhQBH5SwxsuPOt113/wrff2c1XzMv5PfvmB0+74yv1bJlseqklBUJw2rhe1QzPKqIavGHz+b5nAEgh0BJfaXATCFcpohJHMyDLyK3ouclELRSeHwYKLgYIHYtabQYB6K8R4I0CSLyPxi4ga47j0Ta/Eb77rdRjNAyxquia3CNseWjlg389oPjd+7NN4csc4glxB2IOFWDeOpEJElvOjmQTrZ7EXn9u7ArQVDYtzbXJ26vSf8nZK/1ZobKQg0cEzMVRmHsBptxglp4mRYrzvfa95w7pLLz2rFz9+yCWfl/HzHX/r+k89+OgzB1/RcIcR5fxZjT+FN9sdncCX0mgEn9TXTF1cD1Euh3yRyo4JgmaAXJKg5Llo1aZQLvhCUR7EJj73WTx1BBRHIbIzlpXx+1e/B2ecNACG+3kjyMb3bOaAex7YjU999svYNd5E3CZXja/Mz2HTeH4OmzzPFY+X6K6QCCBnJvI6xs+CiRX+oNETCZvG+GL4xvi9doh8NIHTT1zyjx//0FW/0+8yztv4//qfv33+3d/5wf37mwUETl4HWsTrp+muwpst64KZvTWVH53EasvgC1kbCFojbU65PCA5AGeD2Tgja3NexIjbqLeo4sKTxEHb81DmxFftIH75ja/BL73xAqxfpTxjgugEsOMg8Lef/Dx++sQuNHNlRG2j6EIsUNhQ6STh8F80/n4N51g8X+3FTuRx+ImGbYzfzDar8afUJ6qGqZQnXruJ5cW4+QuvPfvM37/09Vv7vaZ5Gz8/6D/+xWc3Pfj4rvcwnNCHzp+KMRl1dKuArpgfDXs6M7/yBflU0nvn0WiFQm5KiLIqssQo+R4ajTpcwwbm5YtohYGMPLJYWoxacgK84tzTcdGFL8fpp64QbeCfPvo0vnz3t7BtzyQa7Ty84jAaocKdVTKJBLY5pRtZfDwvK2BzP34476aC9JS0Xn4n1mnY+MzMSJYHKt9u4YJTVv3JX/3xuz82ny9wVMZ/TbvtPL7x05u3758+PeJAuuMhpDWLKEGs7ALUi5K+kg6AkwrQQg/Y0aU0qX5TDr7zP6Gd0t+ZtL9bA0AXSHSapI8cwDPTZEJpkpmH5anDQXr+x74CTwz5f0KWpAvLudpeydH5LOTia+a3AiJuQvY4svMliRDmCuc/YwnD4sdyesEj27OeFBQzIbX6hpUjX77tmvddMr9PttRa8301gH+480drvv6dhzbv2jsxHHkFhDy6RCZU0ZTCniYD3VpaZJNJKD1cTxLPXBR0KE8ktzegt05Jy/L4GyE5ni6OSYpEsZGAOsMMxzBJ5rnNI3aUzs5uKkKlqQaoyZJ2pheN/yhu/tG+lKELh5ESsuEpJotoFKnCkQ9KaEVdtFkMEarI0JCVBVi1YuTJiy4487V/8I5X7Z3vZRyV57cf+t9u/eYp3/3BTx+cqMVDdarokbddVP8M376hDZfdTWY9ennHRYHUelEgsb3wLhp1PWu/3USl6eCGXLQQpQKReZ1UmTgjYzy6PkXfUx4GfWrp8TR2XHw8ryvQJl05IewRyGkEJxGyYhkNFaENdm89qcz5DlUXQ/hOiKUj+cfP/7nzLvmT3/j5p47m+o+J8fMCbrjriWVf+9bX7tsz0Tq1lcuj2opRYAWH3JZWqIHpqDA7KDU5+S/ZaZXENoPZ0DJXt1pHmuiIJSsDGvmwSIMtyE+dJZ7BC9rzDW0IJbjTzvD74kY4GiOa92tJUU+WdApgkAmP9PSGEJjv6bVzEiaHjRqGCz68dgtLRwr3v/0tF/3KZW8+Z94e317vMTN++4YfvP6mWx7ftvtytzyCmojgUo2PGJ5EqArJRiZflvF9FEvZUcIjk3hazaes8Ss4wjhw89Py13SwRKwKdMYK02fnEjvMYoZA5DksnekwuUPKxcOy+8z79i6+8DArwDCY9kBHpgqQlCl1lCaelJVxgEHisBpVnLp+xSf/4SNX/YdjtajH3Ph5Ydd+4q63P/Dwk7ceqAWDrcgF/IKIk1mOdrIT2IkvngJi/PyrjgN3mflMrSZliujs3jarBEZwwp4YluRJdpAav9L/pSWzDqmVBU4dqxVdfJ8+VyB1VCSdlWEkFiLIQkcAohPhuEr+wAXnnfa7Gz/w1k19vvkhn74gxs9PpIjF17/wyJ1jU81fnGq10YocESsjHSFlRhnHEVcTmDq7ZYFgzC5xucl4UyyQxvD02Do3y0QX8GLdPMLkLJQpVABJx+iVUoT8P+b1AqZjVUmHQbqhzcdyaRff6/AroNUblpudXF7K3Yq6baHgApVSGytHy1963evOv+q3Lz5t7PDv198zFsz47WX84d995Ree2LH7pl37J1ezBEqpThkyiSO4+QIaFtJqKFA6xi9e27a6jdc2qoO25U2z9wUjIdvAzBGkTRKN/3XDKOenllT1nDGkWtIOY6PFhEWZEGguwFu6ufpb7Lmf3QtpPtJ/6zse7npmBx3qa2cdgLdQgnnPKvSoJ3Zq9r25VQLXYcOxJXirgucjCULRXV61fPiJDetW/vFf/d5b7zhWq9z7Pgtu/PYD//e/+P+u3LJt+3+tNtsr4CkeKEhyAo1gl5Ud3Zg8+An5eKjV6iAIgo4gG4fTbUNK2ZzVa2vlxy6qQWgespJDnJG+RiB3nVkDNf6OiokiSzqIz2zlqcOdeczuypEa+yy4fwP26tVDtisibYxM+TdrfgoxN+vR9V2yM8P2Dxqe9DJ08F4IP5Kw0Si1OvUK2IXhv1utlqjA895xxJTC1NQRYEWHesFuEqDo5cR1cShpsJDbf+bJGzb+5X969z8es+Wd442eM+O3n/97/+2ff/+xrTs31sL2Uq80iGacQ7PFbquPQsGXxJhK4bwwSYQsGZVRC8mqu6uC4qErNb1er9ebzxTRTldKn2tPhJkaseo6j7JSNG/vaq5zxoRTt1xndw41c/Okp+EhziWhhTdsYz1PY5myWMxLbV5EPMiwzYJGEonzqlR0nDQSSVgV8g4CBauVS74Yf9ysouLndp+6Ye2Ny+qXfviaa452UY5s2zznxm8v64/+7gvv+OHmJ/8szFXOChPF/7DD10oicOjc8VkhUjYGodo2KuCOkGSxmaWkVYzxswaaujmFw+oXzEJjO10EJNL9Je+/Tbrtc1MDYv4xUzlevalEXMZ7Htlyz/Ysez393wpHutkqCpLd1L19Ev5NIAMdWLBuAr7OtzV1ubROU6T7NFUpjLTz3nE4okiGKAlVbI5NRNHzMtoBoplGqIrR5mqztM1OLSfzQjjtABU//Ol5Z5183V/+r2//zPzXcH6v7H/F5/c5c77qQx//5hmPbX32H3ft2fe6HGV0fJ3vDeIcEopHUyXdtIVZAitQLZ1HpmFmcyVhtsbYAUZ0DD4llbLHNj24hkwRjV+qUEYutKMdpu+TKgCmFCfWk5p0uYNHmf+yzN/41Ry7jT9r+NnBIbs5sjw//A752FLO2G9g+f8Vp6XwYi1C6L+7TYa9Q/H2VIfJa8Oq1mzJ4pUKRdUzY/iai1FkXZvse2ELK1es+MbZp67/0+s/8Ibvzn/tju6Vz7vxZy//9/7rrR944qm9/1sT7rnwK6hHVDinQJevYnWcVQlbUg8u+B7yeU+SJfFrRsmkh+O1I3hmwyPx2DJcb2APXcMstuymYCp9ZBtnWRCcqqnQKLrzjj5vyFGc8DYn6dKsNWGQggszntx6654wjfMPvaGfyCWZnEcFR8wYape1qAoPJWJ5Qrc4k5FAcDrCpBFHiJoNVEoe2O9PWtMo5qItp5646uZXn3fy37/vkldN9blSx/zpLyjjt9/uv9/1ROGRH/7ww1uefvZy5CsnNCIWKx04bkFkNEUyVhRSYlFn7653ZGLwTgdXAXbyyCTHWais+WPXAtuuc9uZDfmZwiksZOJI746Ez13aXFkp12zV6VCJcIYRu3MXs99dN7j4btnHveuSevr0ujOd9s6mlDHxTAPRPluNPzGs2prsJgBlmpIAfq6NogskranHTz1+7dcuPPvs//LBd52340jX6Ll43gvS+LNf/O833TPw1PY9v7n5qWevGp8OX+YUBnNuflCwQ+wYK513apzZkckOTt+UTMWPZ7D7RIGyZU6WIX3YICnlwFQqltR4bGBlJ9OILO330QkjrEyRkyjgLltinI3VubcEaSo9zGw0IVVFGH1oMzCFAHd/C32Gi4jTbQaEaF+nGyaz4Tvv28twp56fSpO+UFU26eGDgSJ+eMaJ62552cmrb7n6nRdP9Ls+z9XzX/DG37sQ//kf73r/o1u2/seJavOMnFcqEUItai2ZW57Gt9n5YaMZkNkANHo/aYrxdwk1Wzy5UX3p7g9kPGh21G6Wqk+ai6QJsgQQpnpixfU60p6ZL5uVH5phDF0Mbyo/aiWc06pMKhVlFeqzToIrQxWdGCUpO3c2TGcTpaXNLIa+u7uuqpluOzy4ZKj08KmnrPuH1x9/2ucuueQUxqIv+MeLzvizK/pPn/3Wqp88ue8tz+45eOnY+MEz8l5+g18oohWFCIkb8gsqBSdJM5tcqiLO2JS3VurNkeqEZR/SBqO4RCY7tDJEUjfvPF/RqArEm1nyJExL1RjpSVOzSTW70k2R/SxRerTUioZbSM6lnuukx6Uer33INdprzzyXNXapxhgaR/H6RvXeZ8+F6DIpKbfhuYQXGOUbvj/aUrZkn5zavkkUJnESbh8ZGnpi3aplt5y7YfXdv3Ppa3a+4C19lgt8URt/7/fZdM/mgR8+8uRbtm7ffvXkZP20IEpWRjEGRR9MKM41nBEv33YQ0jW7eRl0oVCcek9BWBk0qopg0yj4V1t2tVNpYkRGG9gKzek16Ubg23ekTDlDYLRyuxLUrLc3dO9WacUqvJiUOmPkqu4oG4KVMPNQ0mD9bJUnNeowxrPr5wqbr3xfUj1GrboIAHJUlDkUB0faSSxkZHkRxY4O+q6zc3SosmXDyRtufOV5597/axeuPfBiNPbea/53Zfyz3ZBN/7p5yePbd5369DPb3rp77/hrWmG0Ll8srXIcb3iqESLJj6DF2QAqpTOBZreZ3o97JdeWk0G9rjkGMi5ap410I6WtMFWXlI1Bz0/VeR1k05+mU51KCSmBLt9fVNa75IzUQ6t+Y+r5pbttM50OktX0KkxfRMWorRYvv5POV5C1micBvwb1DwY91tubNPrpdhztLZW8natWLH3ohBPW37lyycpHP/iOo4cOv1A3yr97459r4T/x2R8c/9T2HW9+cveBtzcSnNhqNAbCMBpqJxiM0SaZtBhvjmGS0bzSSSM1dhsGceBaoNEyq6DLacMTSTnpgaVOrh431dVSCnU7bWOV4DubQj4zkdDMlm8V6270tySMY8JP/a/0VBI9X46LijSTbirRApZYL+GRMVXI+wcHBgbGh4ruk6euW3bnymVDD65av27H21+5mkTYL5nHS9b457rD7XY797f/cu/SaiMYHZ+sr9q1d/8ZtUZwfqMRLm2EUSXJuRUn5w234Qy30R5KkBuQiL+tsb0VfNP42xHjZewvehwZDy4bhP+ZGMgatRWjE3FvI7Qhs6s9AnemutN2yAKMqIY2puM4rDmI6gXfrw9VCgfKRf/+NcuXP1wpl3YtW1YeXza8dPzSi88ij9fiY0a7bnFJ+loBwrbDicpQ0GgV4zA3Wp+eXlavNVZNN6urWvXW8jBJllRr1XwStUthHOWjKC4GUeAmbcVUt2XEX+KoJJfLtZ2cE3u+F+Rdt+W6uZbjus3BgaGa77m7C8XC7sFSZW+pVBgfqJSn8gPuFFBuFeLJ2m+//ZUvKY/d1006xJMXPf+xWsnF93nRrcCi8b/obtniBR+rFVg0/mO1kovv86Jbgf8J9uN17cEcTjkAAAAASUVORK5CYII=;" vertex="1" parent="1">
          <mxGeometry x="560" y="290" width="111.48" height="150" as="geometry" />
        </mxCell>
        <mxCell id="ffs45p9ADlgt0rEeM66C-11" value="" style="endArrow=classic;html=1;rounded=0;strokeColor=#6c8ebf;strokeWidth=12;exitX=0.5;exitY=1;exitDx=0;exitDy=0;fillColor=#dae8fc;" edge="1" parent="1" source="ffs45p9ADlgt0rEeM66C-9">
          <mxGeometry width="50" height="50" relative="1" as="geometry">
            <mxPoint x="615.74" y="456" as="sourcePoint" />
            <mxPoint x="616" y="516" as="targetPoint" />
          </mxGeometry>
        </mxCell>
        <mxCell id="ffs45p9ADlgt0rEeM66C-15" value="" style="shape=image;verticalLabelPosition=bottom;labelBackgroundColor=default;verticalAlign=top;aspect=fixed;imageAspect=0;image=data:image/png,iVBORw0KGgoAAAANSUhEUgAAAO4AAACeCAYAAAA1zDbjAAAAAXNSR0IArs4c6QAAIABJREFUeF7sfQk81Nv7/2c2szAz9n3f16KQRKGFtCiitKko7aXubb9pTzeFaEFEaVNCVFcqbShbluz7vu/MmPXzfx1f7q97/5UhXN0783r1InPO+TznOef9eZbzPM9BQNwPlwNcDvx0HED8dBRzCeZygMsBiAtc7ibgcuAn5AAXuD/honFJ5nKAC1zuHuBy4CfkABe4P+GicUn+MQ4UwzA2v4qu3MWgGjfW1MkgIAiHwWIpAvzkchkyMYVfgqdqMgLR+2NPGdveXOCOLX+5o08wDkTl9czJqu90yG3qNGnu7RZBIZkoFsxG9sEoFgqJ6JHg4ynVlhH6bKggHD1fnO/lBCP/T3K4wJ2oK8Ola9Q5EJbbtvL15xrnz9WNM7uYEJoHi6RLCeDqMBgMo5ON5Wlu7yRTetvRMoLEDhNVlWRjGYHgBcp8f4w6IaMwIBe4o8BE7hATmwMwDCPDiinzo9Ly9mXUNpnw4DBITWHiZzUyz0tNPkwumY+/uwkmCJW09KrlNtRalNY2KxBQAjQDRYmX9pMEzs9WE06ZaDPkAneirQiXnlHnQEJJt/a1d9mP0ps6VBD8RPoUVZnIuQqi51zkeT99+TAA8PuNkGFkYua5pOzWmQQ2E3KeoRAyX0/qgI4YX+OoE/YDA3KB+wPM43ad+BzIqmmVzumAbS7/keLXAiGgSTpqiTbTFHav5UekfY16AF7/0tbV4ant7qXldYqTBZkVa8x0T2iqCd7WQiDoE2XGXOBOlJXg0jHqHCgvL8flw6SZr/KqNsZllS2TU1GqNp+qftZKERv0PRCm9PSIR5Sh3d5kli5mtNSSlxlpvlikJHpBW4wna9SJHOGAXOCOkHHcbhOfA2l1MKGE2bs89Nmb3c2dlEnGU3QeWk2SOWMt+lcV+e8zgWEYFVDWZfU6v8Upp6DS2EhNunq1oeRRMzG++Ikyay5wJ8pKcOkYdQ7kNsF87zq71obEvjiARmEF5uhp35ytJHbOVBJfNdTDYut6p74sbt/04NXnZRrSok1bZ8oeXKomHDVUv/H6ngvc8eI09znjzoFcuIkvsZq0OiD8+XlKD4vPfvbMCxaKgj6zpBDVQxHzor5b82lOg9v919UuqtJipbtNxbfY6AhxJe5QjON+z+XAj3IgAYbRZaUdiyIT87dW1XbNmWdkEDFbinhuvhpP6lBjP22gGMVm1W55mdm+QlNaonybodD6OSqE5KH6jdf3XIk7XpzmPucf4cCTqg79uJyyzS9ya5xVpBU+L1NXObxmCu7x94jJgmHe558btkanFa6ua2MpzZms9dpRW+CAuTj28z8yia88lAvcibISXDrGhAOJDd2iH+tabANfpV/F4wWpVmpaN0zkRC9aqyBKv/XAh+XtS+5klh36WFQ+lcjDU+9iaXZsoQjxvroIontMiBzBoFzgjoBp/9YuWQ0NvB1sMdlOJERugSACtQ+CeZlMuhie2oKTJJaaIxDMn23uCeXluHoMSe/Wx4KwT6X1itKiEtUmSqoPFsoKX54jhyj7cj7l5TDuM8xQ+6O47tTr6rqFFEoPZCxBjtw2z9DFmIxom0hz5wJ3Iq3GP0hLcjtVPruqe9XnmmaTvLoWzdpWqhidycLKCJGbFYSx6VNliOFTpXijjWVkJtQGHopl4CxXXl6edrmcNudeQuLFoo4ubWECGTIRlUoyVZe9LiGBTBfEMlvoLZBEbkWz0YvSRsvUyro5vVgIryRGztg8x2DNajli3lDPGe/vucAdb45PsOeBM8v7BZ/nP89n7c6u6Z3W0dXO6qNTWTxoPA7PiyN09/XAeB5kpxgOV6IoTkwz0paOV1OXfmqOQPRNsKl8lZy6ujqChIRE3/6Lty+8Ka2zahAVU2cLCkN4BAaC2aw+JpvWKSYkQSGx+UU6W7r5mqltdBwPg2KoKpI1Z5Ky52olwdiJOE8ucCfiqowTTbkwzJNZWGLzLL14XWIJwxpNFIWUJPjeSwkQ0gV4MK1IFJLdTqcotlL6lOpquyU6utvJ0pKEenMtxTBzEYEbxjLkCS99i7OypD9k59v5Xw3bWt7FEBQ0M29WmmlW2MmAddtpTMFWCg0LsXiwWBoBEsRhmeLiuHplYfQ7A3H0Q01B6eeTxSdmXi4XuOMEkon4mPCCDovnxTVbPhTWmDHZKOEpGkrp0xX5L2qScG/EpfHNuRDEEqlpVqhn4DQy6pn2SSUV88u7WoRVhQmf1itLnXfSl7+HQCDgiTg3QFNxcTE2IyvVPuhG6IGs5CwZKXnV2tnLVkZMs170qL6LotXNQsn3IlFCHZ09olAPAxYXIhbLSRPb5YXRr01FBT4jEAj2RJ0bF7gTdWXGmC4QTH/8TZlnQmn3ii4ak6yvKJw0X0/uF1sxxFfjcWMbYO3nRS1OT0uKXNi9PZjlsjKPbXRkPYwU+bLHmNQRDQ/m9/TpU+u7D+/ti46ONBXiF6Bucd1+xdJyiZeurlotGLQchnFdjRCqlwGxydIQqwmC2EQIQugjEIwRPXQcO3GBO47MnkiPetkOy12PSb6fVNE9TU1OomH3fB1ra1HEX9Lc/k5vRGWf4sPs0sOpuaVLJgtJV83RkA/aYiLoN5HmNUhLWlqubOBVvyuht0IW4PnxjE17tkXb2tsdnqakWzQR6R0uTVzgDpdj/5L2oQXdy6ITs/yqepGiBsoSt65aKzhxMjXP3M75wVGvnyIQJGixofaJs3NE3DnpN55tCgoKiGcvXLgf//T5fB4ICS20XRxlv27FoVlTp+ePJx1j+SwucMeSuxN4bI+EkiPvC6oO86AJLEMNqQsHTGQ4AuC9GljV+/6Tt010XrFFRnoePub8ByfSNLMrswVu3brnEXr/wSaYAUMLppvHbVq//qjxTOMJV8XiR/jGBe6PcO8n7QvsvxOvin5PKapyw6Bx3Sbq0h6/mCp4cDKdxw2wwtm70fHNLLLS3Cna5/fICP+mooKgcdJ3rNsU1hUKP70fvSHobtjpyrYW9GyzOcmbHJ1OWs+e/Wysnz3e43OBO94cnwDPg2EY4ZtafTg2Lfc3Jg+BYq6h6PPbDJljnJB2q6Zn8oW7jxNpaAHeafISQSsUMF5Wulq5nPQdyzbFxcWkjI8fl/le9PIuLi0iKuhoN27evvXouhVrAsbyuf/U2Fzg/lOc/4efe6ugfXFoQsqtWipMspyqG+w9S9x5KJLCYRiVn9NsG/4uMZzeTYPQ9ZXVJgRq1Bb7xR5TpkypG6r/WH5///7D1bdDQk6/e/lalkTkhY6fPLF9xlyL6yoqKhNCGxjtuXOBO9oc/UnGi2uFZa4/T416W9YxZYqaRs3aydJrHFUQr79H/r0M+uR7rc3B6ZVFU7BNNVD922ed+LJMqhIRU7Fg4eLnNgsX35lsYFA43iyIjY5YfC8i+mBc/CsjNAIF7XPbc9LEaEqIganpX2KRx5uusXweF7hjyd0JPva+VwUn4gq7DtLoCLShGH/WfD2F4/qqqKcqiP/fZn1WCBvE5dZtiq4rc+mmdkAmAjzvcPVFzZ8e3zaozcuSUFNTq1KQV6ibPt3o6Zx5VvcmT55cPh7T//Du1dTA4GDv+IR3Jjx4IjR79uwHG9asPDJt2rR/xbHPt3jIBe547K4J+oxrH7Jtoj63HSiqpxgR0DyQjpJ8tskkpWBRHDOVn0XrxhJgFhWNxOfXtujnNNCtcisbp9S1tMjqSosVL1aR3imB6m1JffVkSeK759blJSVSLS0tQmoqqg2WlnMfa2lpvzM0nP5MQUGhY6ym/+lTsnxY8B2v+w/Cl+D4iJCZuXn8yrWOBy1MLdLH6pkTZVwucCfKSowzHZUdlQLhzz+uj82stqnsweiQJBQE+mgwJCMqWi8jRqqW5EPWo1BMZCutj1Vc3zyrsLVHAI3E9urJSJUt1FHZtl6L9A6QnNvUxFeY+mH2q/h4x+TExGmNDXXyMAxDWhraVUuWLv19yhT9d0JCQoWjbWvm5WXIxccluHr+fuEglUaD5lnNfePktOa0peWCCVNeZiyXlAvcseTuBB0bhmF0SnbGzE1uv17OSstSJ0+a3jhv1caC2m76rFYqA2IjERAOw4ao1F4IyYOFECgshOHhhdRkZPrmTVFZtkmR8BTEKOfm5vLwSfHxyvHLtYOpvnnz0uLs2XNHk5OTZxH5+KDm5mbIYrZl5qZNrhd1dXUeKCgojEpGUXV1Ej76ScbOkyc9jlG7e3CLFi5Idlju4GFjY/PdyhYTdDlGRBYXuCNi28/bCRwFJacl6x48cvRebn6hspCQSI2lrUP8Yhe3i80wUiivqsG6qrVJnc5k4hk0BoYXz9ckISBcL0oWypXlx6Uuk0F8NzY5JSVFKzX145zXCQlLX75ImIUj4CEikUTRm6r/abm9w/UlSxbdRgwRCwzOmdPbISKqswMBQfxQhzzUA5L4wd9B4L/3lYuHbty4vaOmukFcQ1mpauvWrWfMzGbekpSUpPy8KzM8yrnAHR6/furWALQv/ngy7+bNm0devHprIqeg2G5na3dv5hxL/2lTtPuTC942wxLt1E4pJp1BRLDZaF4MrouAxDajkNh6YxkElRMGgJDD8vJywzdv3iwqLS01T05OnsRisSA9Pb1ynUk6CSYzTGJ1dXXfyPwtKR+UU81ub9Yra+pcUNnYoYkgEFk0Ko2GQUF0ET5ct6aM0IuOoiytiGA/+5yPH5W01dXabZfYXZ0zx+KGpqZmPSe0/VvacIH7b1lJDubxLP6ZWXzsk52h14OWKsirQHPnWcbaLLY5bWRu8oGD7sNuUlNTI5SYmDgvOTnZNikpaU5jYyM/H4kI6ejoFMw0m3V30mS9BAEFhU+aIiK9MUWt+iXN3Safq5rmVXV0mda0NMFMFAqPQvOgqL0USIpfAFKVkqiuzPzQVp2ZRCQz2+mzpuo8275x33ElJcHOYRP3k3fgAncMFhAkqINcVgcEgjUGw49oyORP+fLhd26ejrh7ZyUJi4UMp+qnOq1xujBTXTEKMcZBCnl5eRJv375d9urVy3V5BQXy5ZWVgiJi4nXm8+ZnzV287BZJzeDjy4KOXSkFVfat7XVioqJ8MB8vqwRi05FMmI1FoHiFGpppvDQ6GmLR2VBfXWndNDFmtvt2l3UT7TKuES3OCDpxgTsCpv29C6jfi2+DxFvambLN7V3qrdQ+OTQaxyLxoosVBKFUcxlyySg8ZsRDVFdX43+/cOXGi1fxyxjUXpSyrGzN2d+O2urOMk4bz0R4oEL/8eLF1pCbNzfnFxVKY8hibJaQbJuxnUtDPVpKt5vOhiTw9BZTXflQfWXh24Ki/C0IGGLVd1DEskvb56fk17nW9yJlSRg2ZCqDTlttobfagIQY94CPES/EKHbkAvcHmfmkuU81tbBqdXZ114yadoocGwETEEgUk8FmCvBisVQBHLJKWRD/xliO9NBBQ37cC2qDYmnhoXfPRj+PW93U3iGspa3xeefmjftm/0OB9+Al8jEzc86H1PSl8Zn5euUIKXHxqbPEKSheaLqu1isrDeFzisLUDHMSqeXLpQH3AKXTWeY3E3J8Wnv6lKSJyAYjGf4HJy1Ud0/kShU/uL2+2Z0L3B/gbERR98xXJcUbPje0zGjoYkvCKB6mEJHQyovlaenr62OwkEippvZOMT4MkqYjRko005K75qIhHvMDj/xL1zQYxvS1tOCoXSgkm5fO7BQT6/tSPS8pKRF9Hx+3KjAweGd+ebW8wQzj4pVOqy442dv7jxYNIx0nPilN511p4/obWU3bMBKKPDIipKSF+mq+v2oS7n1rTOBVds9o3ZJcVLO2trVDQ12Qt3eHmZq5uSSpYKR0/Kz9uMAd4cqFF3QtTsgvW/syt8gMxcfLqyAqXKYsLJCqQOTNE8BiWil9FGpbH6yc2dZrXtTcZdzVS0WrifMn2OkpXNikJfhDaWYJ1X3KJR2MSVUtHZIsNIxlI9kQAkYiUGwWS0KAkKsqwl9Pa6uGi1Pez3p27/bG7LQ0WQkZ+baVTmserbCzd5eRkeHIOzxC1nDc7WZGrfOJP7Kvo0kkaNlU2Z2mCvz3LcWJTd8b4G13t0j0x7LD0Tn1a8lojMAuUyW7tbryjzh+6L+kIRe4I1jIV7V9aq8Kak68zCpc0oPh4ZEUJCY7mkz9bZYsOlEegmhf2o3hTbBuUmXHmpdZVeuam5pIc1Qkni7Sk/NerkxMGO6jc3Nhniyo3TC9vHF+QWPHzOrOTlkGm82L4kFj2L00LLWzg60oI55vqqcW11VXxPvmUZhR+uMITW0NtdqN65xuLbZeGKSgoNAw3OeORXtQfD2ptMf59/cVPiwUAvrNWnveRk0xjqKeLqUVbAnNaN1D76UqO08V3bFAAh842pFZYzHn0RyTC9wRcPNqdu32uJzafQV1TTIEHmafm+OCeWtEMf0hgF/7PGmH5WLzWzY8fv3JVZSPiFk8RS3YQUDgsJYW5zecf2iFSR+qWpYnfa5eklVeZUGDYBwPiRfC4TAQxIIhqA+G6L1UCIYYEJGAgvo6G1oaCj91t+SkEc4f3HNm3nT9R5NVVGpGMN0x6VLQ3Ex8VdS1zPtjXXBnTzd0epn+LBdN0becPCwkr37Bnew219qamkWuhpJbDbUkbxsJCXVx0vff0oYL3GGuJAhi2Pc862Z8WccqGI2oWzxV6aKFnGC4uRDhu6AIqIWNAyMTY5u7WQIWmgr3VumIHJitiK/k5PHAtvNKb3F7m1u5p7KpUxSDRRdoqUndU1OWeyNIQjexqBAPBENkai8kmldeZfi5pGB6U3vjLBxEhbT5edM3LrK2naMoUD2eHuSh5lVXBxMelJa6XXhXfoqNRjJOLDWeu0EF/2aofg0wzBtX0LL6fk7zhpLSsqnbTFU2z1Ak3tH/D0VNAR5xgTvUTvnb9wntMH9wfOKbFzWUSUrS4h9/NVd1shHBDXkkEdcNi4Y8zryXU9dlLitAyDaTpF5TQfcWSeB463EkUicSKUAREED2SUtLA1X7L/V8nzfDkqEvc27k1XeYCZAI7bpyQvdN5QiXlqqI/eXiKgDwiBpIKamo3OFDWenGro42OW0R/vIVpjNslijx5QxzqmPaHNyg4P2ubMe5hGIvPJkIbbVQ3aRP7LllPkQ8c1obTH5dWrntQVbTqu72Ns3ds9UcN+rJh//XPMtc4A5ze37ohjXPR797GV9DFZ+irPgswU55ASeSDFSPSH1eciq5iuLW21bHFm39mMTTUMCSwvLWkHkFOvBCIlQMgY+B5UFSBQg8rQJ4uBaB4WM3YkXxnSQZqbCU4sMoHJFhpiEbN1ND4oqtNM9X6x+D6cS0wOqPUj5ty8ovcUDTYOzaeWYHjQRE7+grISZUhNHdnOYFZ17k3mihM0Tmaoi8XKAteWK54vfV5YQuWP1xatGep1mV80lIpPTBhbqzbZWFXw1zGX/65lzgDnMJ33TACpcev09IqGHKTVKSjn+9XGUep0OcSaneGZ7acKapuoIXnxtT15X/hgem9iIZVCqSwYSRbBQGA2GwbDyWhyWIRTWgiKJsmvRkppjhHFILD5+slDD5pct0VQ8nTbEXQz0ztLB6/uOkz7uyS7ssFxqbPrRXFTxorIz7RwNB/k5zUjVFKji/8XRCbrkTBmJQbWfoBturiB7RE0B8NYe3GIZJ4TldzrEpn+3rm9vVZ6jKtm+3UJk9XQBfMRQ//m3fc4E7zBVNqobxXvFvn72pZcyarKJQcHSeoqWpIKJqqGGSYBgf/DglJLGCYUdAMLuMeRpioNqctq7WJmJLQ510fXWlZHNbq0g7hcZHpTDwUB+NykISmTyG82GxqaYCvDJykJGqjIezNt/vpnL/S6P73ieutlUmPrd627P0pv2qUjJFG6fLOVmrEMYkJnkoWr73fVgV3eDsnaioHogoKUEmVlhqiN1ZNkv5El8HRMPyQ3RJBIIC1OrXzZBCVlXTyqe5tesrm9rE5YR5au1mTArYpEL2/K+pyVwbd4Q7bu/jrHsxuY3LSVgeyg4L1T1OupJDBjQE1TFMwl58eFpU00qcqaPycLm6uLsKjtIAdUFQT08dmUJpEaKzaAJUBhtD6aXzULppmCYani+zD6Nf1s3aSkdjoAVG2gf1zJTPcxID/ba+W+RNdfvmkJeFJ0gYnsZjCw0dbdTxwz6CGiGLOO4GXmgfM8o3RCRVbW/ug8XJJGSLlAA+b6qESAuS1tWAx+F6OpgI/vzmbq3ypi7jrk4Wv5wwX4WJGjbCWl/1oj4v738qK2iQsVyJy/EW+7+GgRmNe//IqzvS0NzGry6Mer94qs4JG02hb55Bxjb2KT4ubD/2Ia9wDUTt6F4+U9/98FRpr289GniuB+3mgJyWpeEJKWHVre2EZWbTTi2VFfTU5yAbJrayQ/FdZdeOux8Kd/Pz8JS7W09ZZ6dK5Oi4ZQQs+aEuwOH0tqRjx7viWrvc1hp5Oq0bpcpPbiGh0ZQ+CgXqYrP4y3upIlg0L6QhIFVgpiH7xFCKdd1UTuxfWwxuKIZygTsUh77y/dt6WDM+r9T9ecZnhzpaL2SuNzl6gZSUj6Ec/yd5fqgLqG5ZMMxL6egTKaIglDPKW+cllbZuamusJc+S50taoKey105FnCO19VFVt/bthLRb2TUdumb6uk8XqvCfs1EUGBKAN0o6rV6XNu9LKK4zVxUXeuc2SXLnAlWBzBFMd1y65HfBQqmVPfbxFTn2LQy6CqubWUujMoXYDKYIDy+GgCQgKcqiYh8MiBJRumLCMVNkEf9oOdhxYcp3HsIF7ghX4EFhx+zIlJzf46rqpggJiEDTicS3RkqqL4jCpE9YLETtRfYodTJpCpklLdM+FdSo17ZQJfRVZGrttAUOuujK3eL0sQk1rdLPy1oPvcpr3kwmketMZfmDTbSkLpp/w4EDxgUJ6ZEVDb/GfS7bVtFLEZqvp+G9Wlrg95nyE1+tfN8LS5b1dBix2Lykhrp2TVofXZyPzNNNFkBkKEuKRJgjvu644pSf/5Z2XOCOcCVBtsrzvNzNVxOzLrD4hCGe3j4Iz4OBWBgUFUIz+5jsThhiQYJoiATBfWxIiJcAOS2cuXayMuahMYKzShKANKA2B2bX2179IzeouRciWxhov7KbIe5mI/j1EjLg6sisqh7Fx9nlZ19n5S8WkRSFlk+fus5NnXjrZ3PigCQKSQjC9EIQC11RgRitmlUjXPIJ1Y0L3BEux5N3ydMCHsbtj36bZSU327pKSFKGTUdA/F0QTRhCsjBIFqOLiER3yQtK16uKSZVqSAn9oamFCx8OaAdJS2uGJUJT6vxf51bMZKFgnK6CaL65HF+ogRz/A11hQv9dr+CT0Q7L5VU2uiTlFVt9buyQ7GXQYePJamkLp6ocsBTG/ucyaEa4tD9FNy5wR7BM4Hji/IXzx64Ehq2pbaTw7j3qcU/KQC+jD4MmtzEpihRGnzQBiaEK8PDWiOH482TIvJnmCpicH5F44YXM5XH5FZuTKyv0aRCdT0mC1KQsLpggTODJxaHwVFYvJNra0atQ19ZkU9tQD/MhcbXqsmK5xppyIQ5aoo84CRIZASu4Xf4hDnCBOwLGJ7z4Y05AoP/RNy/faWupTC5zO+C+y9pmZuLgUB9aKdI4PB5G0iGKDhnqGA3QALUxO7tj5duq6rX5jQ26rT0dAiwGrVcYT+7hRRPQjF4EiUKh8KCxTJoYibdSR0wybYqMaJS+kEiMggJiVMqijoBV3C5jxAEucEfA2GOH9918/Dh6IZHE32lr63B95549HohxqC8FwFtX1D4nr755bl59/fSq1g4pKhPiw2GJZDQNi0Qj2JCYKC5RVULoo66o0LMFGuSXo/HSGAGLuF3GmANc4A6Twe9e/TH50JHfIlJTU5Wmm0wvDAy8NVNZWfm7yd/DfMSQzUGNK0p5n1QTnaLRwWRII1F4PIFFYhNxUKuAMPRRiAI16ksi/jM1hodk2L+wARe4w1hUUL8pJCTYN+LRg3VoDIayzMH+2pEDR/cPY4hRb1oMF2PpzWRMJ02ExWnd41EngjvguHOAC1wOWQ6OZZ49ezZ3/8EDNytrKsWsFyx47rbvl33TtKd8M0uHw6G5zbgcGDYHJgRwQbwqoZUqyKQziRCTzYDQyE5IgtipP8RVFcOe7Q90SEtLUw9/8OCXoJshziKS4p3rnZ3P7t+689wPDMntyuXAiDnwjwIXXD6V0AapNXVRdVraO7S6urqkYBodQ8CgqoXJApUiAnx5YgLEnG+leY141iPoGH777pqznhe8G9ubBO0cHfxXr1p5lSttR8BIbpdR4cA/BtysBpi3qLnF/E1B9bLMijrtZhpTFYXFEfEoJMSm0yCIyWgSFRYoVFeRTNNVEHumo0BO1Ef8Mw6XnLRipfDwu9v9/S/vJosTGR6e55bbLbKLHJUV4A7C5cAIOPCPADejGZZ8m1ew42NhtU1tG0O+mwWzkERCg6CIYLYQLx+K1kcVqGloFmvv6pAkkHBEGSFCs9Uk1aPTtSXu6iPGv4qD90X/AzevB/9W31BNWLtxdaCN/RJfY33jCVUKZgRrz+3yE3Ng3IELJO2bumbne0nv3arq2kS15bQ7VMRFCpUk8cnCZEwyAYmj9DLZElXtVI3CxlbT4uZmw9b2NpyqmMgHi0kqvtK6Yvc5yUcdrTVJSkvSCQ649fvjyMdW0uISHefPnbZT1FBN4sbNjhaHueOMhAPjDtzb5QzLqE+5B94WfDaRFhUvW6KtH6EvR46UFYfyNSGoFwQMgJDCjxDE29gO6TzPKHL5mF1k2U2HsFMVZRIc9SVOLlIUGzdP7olTv52Ne/Fye1NzJ9+CefMf7ti+xUVJSWlC1W4aycJz+/zcHBhX4ILMlevvmo5HpGe5dUF96BVzTb2sRfgvzxFDfDMh+mllq+az1LKj78p7bQVI+J6F2uRze2eoj4s3NyPjvaT7qTPPEhITJ2lqTS465+E7J1nnAAAgAElEQVS53NzQcMLmtP7cW5FL/XA4MK7ATW/qU/ZJqrj84nPJPFlJQeYOu+kzVpERKUMRHFHQNePau6oHVY2NEmYq2CfbLLXXTOLnH7Lu0lDjfu/74uJi7KN7d07feHB/e2tPJ2aZ/fKwq+cuOv3ImNy+XA6MFgfGFbivq9pMr32o9cyuaDQ0kZfK2rBQfaERATFkdf2PNbCQx8ui2IyyCqMZanzvtzoaW5sgEN2jxYSvjZMQG6d9+PixJ3nVlbIzLWa9dXFe57F4tuUP3fkzlvRyx/5vcWBcgRtXXLMs+FPbweomiup8BekoWwOpLVqiiJ6hWF4Nw/g9YYX3M8prFk1V5EvetHDa6jn831avhxpvqO8L09KEX71J3Hbk2NEDApISFBfXTX6r7O09JsplWUPRz/3+38+BcQVuxKeilQ9K+n5paGfKmEkIRa1aKLtdBYGgDcVmUG3i8ofqG2kllQ7SuK48LQHkg1mKYnEqQoRKNTW1+tHOgImPemjp5+d3NjE5SWGhnV3iKse1nnPnz389FJ3c77kcGC8OjCtwXxTUWd0s7PJIySnXmC4j9n6Lnd4qQz7EkLfHJTTB4t7x+fermtpnMss/0gpeRaJMlMUzpk/SemMxzypeSEosVVdeHnikGcNlHLhhQA+C0DX19URzScmWD2VlYhHBIb8GXDy3VVVRvnLfvl+Pak6dHq2lpUUf7tjc9lwOjBUHxhW4mfWw1uWUktuxGbmTlWXFauxn6q7eycFFT/4F9fY3PtRe7G7vkWZ+ekYpfBxCECehWhEMKhLLw8vQ1NRtMLcwf6WnN/XRpEman0RFRb+rfoOb7+q6Iam27i7F9p4uyeaOJn4yP7lZUlw8MyPp7Ypnd28urkh8Q9ywxPrlr64bj6gYGQ1ph4/VAnHH5XLgaxwYV+CW98DiYZ/br8Zm5i/pZPZCyqJ8sSuMdU+vlv6/CvudnZ2CZDK5bZDYe+UNRmGJaSfLqUQjCSJvyXRM1wNyS0VTW1WB3vtXL81KCksUmGwEnl9UlCYkLt6ipKhYMklXM3mSuupLmSkqHzRFNCmDJWNyYZgnKaN+XW5Vq2VFS5cGlcEU6aN28aAQLF40lqeESCKKV9dUkhuK8iFsY23x6W0u2xwWmHB0Zyt3e3E5MJ4cGFfgggTwjhrIJu5zmdsfmanGWF5Cr4GG2lsDRamH0yV4XyDxUINYDYQGDKhlQKRiSo9JXEXh+td5uQsEJKS7DGSlrrroSvxuTCa3vXjxTrW+onhmUcHnyWW1lepFFbXapVUV4hCbDinLSTVrykvlKSkoFkkraGQKKU3+gJZV6yztQk2PzyzYVdTUrs/CoCFBMqlDggfbIcCLQ9c1NXY393Rr0FBoiEWlQpiGpoJ9a5atWDNt/II9xnPhuc/6uTkwrsAFrCqGYWxSHsUq9lP6vuouinE3CwmJCfIX6EoIx8uL8icLI4ktvXSmdEVT+4ySlpbpmdVFGjREH2L6JNW4eVoqHutlBP7iJAJ5smlpSVof0rLnvvuYPKe2slye3tNG6qor529oovBJqqpXalks/Sg2ZT61Cc1vkF1do4LCYzqUZQQ/K4kJpygKChWy+2i9vT2dqo19NK38hk7N5k6qDLubhjKbpHFlviJ/kJUWeUJdllVTUyPU3NwsA2x6JpOJRKFQKDabzcbhcExwdSqbzUYxGAwECoViIZFIFuA7+BuLxUKBjCzQvKenBysvL18jJSXVgEAgQL+f4lNaWkqGYVikra2ND4vFMtFoNBvMFRAPrn8YnAQIvwO/YzCY/j+B+Q/wigX41dHRgVFRUckfyqyaqEwZd+ACRoCC3R8Ly8xCniWEtOPIQlQsH0RjIyE2Et2MweNZDAZDEBQ+44FpkAI/tmaSFPnJXE25m/YaUknfYySQ6HzZ2Ur5WRkz38bHzo1P/DCtsg9D5lM3YRA0ZwmTZFQhEQG+HiMtmSATOdQ9OaRg9mCJFxBmmdhCEftUTzd8/bl6Y2p5qzUZi4KsNARPWU6W9Z4jTWqdCItYXV2NLykpmRUZGbmNQCCwe3t7sWw2GwPAh0KhGOBFxmKxsBAEAUAzMBgMDYZhNp1O58HhcDCLxYIZDAaSxWIJzpgx45Genl6slpZW3kSYGyc0vHv3ziQjI8OqpKREC4fDQQwGY9AhCXAL4mX/sqfZbDYAMJLNZmNhGAYo7sNgMIAHiHXr1p0SFxfP+RmP+f4R4AKQhMUkLdl//tI5lIIaRlBVh8AiCJI76HQMAscDIZEIiIzHdKpLiGRMk5YIlplMujvcxIKsrCzeXhjmj0gvX5HeBq0ooGL0JaVkoJkaEmetVER8rUQQ37ws6kp27/wHOdXXPheXyRrIEvPXmU/a46BA/oOTjTXWbUpLS2WfPXu27tChQ8cFBQVBwXSITqdDLBar/3fwj81mQygUCkKj0f3/wP9BGyKR2P89hULp/7u9vX30ypUrfzc0NPzuC3Gs5zSc8cPDw53v3LlzJCUlRR6Px0M9Pd8PAwBzx2Kx/fwAH8AnAoEAkUgkuo+Pj4mkpGTOz5gw8o8ANzElRdc/JPT0vZg4I12zuXnzbJcnKKpqFLV1tauhUZheHjSyg5+X0MCHxVb1yZGzhgvaLzfCnTLapMCEj3cLWns0taWFkrabqmyxkRHM/t5mAefGkTWdO2M+5JxFQTTm4ilKZ46bKLgPZ4ONVdvy8nL+qKiobQcPHjyloKAAaWho5MvLy1d1dHQAVRGPxWJpAyoxUIuRgA4kEgmAi0EikQwKhSJQWFioXVlZCTk5OcUuX778zLRp05LHit7RHjciImLlvXv3TqampipqaGjUSktL5+JwOCoAZL/IRSCANtEP1AFpC36Hwb+enh7eoqIig+LiYjIOh2NEREQY6OnpfR6PCp2jzYdxB25xfbHIy2cvXc787uFOpbEYTq47AxbMX+JlPlmlJrepia9JRKTPfBRtrvBmeGrQ87RnFR3tfGbasv7+s9TdOGHi3TpYP+CPlD+qm1uE5ugq39ugJ+VmKMo35JkzJ2P/SBtg40VHR+84cODASSUlJWjXrl3u2tra7xgMRv8Vf0gkks1kMsFmRYH/s1is/6VbAYOXxUJUVVVpR0VFbUlOTlZydHSMdnBw+N3Y2PinkbgRERHLwsLCThYUFKjPmzcvdsGCBVfxeHzXt3gK5j5o53Z1dRGio6M3P3782JaPj48ZFBRkbGxs/OlnsvEH5znuwI1LeLHwzt07+8Pv3zeYNGVq/v5fD+y2tbZ+8yOb+Xt9bxT3LXrwJi20lUllWOqrXjyhL8dRZtHzXljyTMjLx1VdvVOnaSs8XmMou8dajL90rOjkdFzgmLp3797OgwcPHlVWVoa8vb0XW1paxnDa//3790ZXr171iYuLM3Rycoqyt7c/Z2RkxNHNgZw+Y6zagffP06dPHUJDQ08WFhYq2dvbX1m1atXe4ai6x48f9/Tz89srLi7O8Pb2nmNhYZE8ksCdsZojp+OOK3BBedPoJ9EHA65f39Lb24twXr/+yqrlqy6OZX5rUFb74piUz9e7ITZy5iRFX/dpMsc5Yc6LHljsbNjzl7XdDK3p2srXV+hJHbYUJ45r/eSv0dnU1MR3586dbfv37/cAEtfb23vBvHnznnIyJ9AGANfHx+f68+fPtVxdXe87Ojp66OnpjUmqIvBgl5SUoOh0er+Hl0Qiobq6ulg8PDz9+w6NRn91/w3+nclkwiQSiaerqwupoKDQAfpERkY6hoSEnC4rK1NYuXLlhcWLFx/iJKqtrq6OICEhwTx+/Ph5Pz+/nXJycr2+vr6mQOJyyruJ1G7cgAu8fQnv3s0Mu3Xz9IOHD2dM1p1c87vnRXMREqlaRUVlyHjlkTANvKGjy2iWYa/Sbzf2IYj6qlLBXpZymzgZ62ZDt/bNp0mfapp60ZZTJvlvn6u0i5O4ak7G/pE24OX3+PHjrfv377+gqKjI9vPzW2RhYcExcD9+/Kjv4+Pj+/TpU6NNmzaNGXBLSkpk4uPjHYuKiqbRaDQSsDepVCo4o2cB1ZVOpyOAg2zQHgV2OHAkgQ+LxQK2OR6Px/cAaaihofFh586dJwaAuzogIOBMeXm5jJ2dXci6des2c7J/wEukpqYGc/369TNXr17dLSoqSg8MDJxuZGSUzVWVh9iRv58/f+Xm7bC1FAqVvmql440T7sf2jbVj4H0zrHY1+t39nAaGtoayfOb6+YorrMiI757LJrS38yeUtK969Dr9FIqNwi42nOp/wkx2749c2vUjYP2yb0NDA294ePj2X3/91UNRUZHu6+trM2fOHI493hkZGfre3t4+MTExxs7OzuGrVq06OxYSFzjRwsLCLr548WJ9c3MzOLbp92YD7zYALrDDAVgHP+D/PDw8wMHU3xZ4foHXWEhICDI1Nb199uzZ1aBtRETEcn9//7N1dXUK9vb2l48ePerGqaoLjtICAwPPXbt2bQeJRKKEhYXNRKPR2fr6+sOOcR+t9RzpOOMmcZOS0nS8fS7cS0pK0jQwmpb36/59K4z19ce84BoIc7wbn3/9eX63FZqXHzJWlwi10CD6WAt9PQ/4YxcslN3cNS82q2rdp9wSA105qar5k5X9t0wWvDpSJo9mv+bmZmJYWNj2/fv3nwGSxsfHZ8lwgAsk7qVLly7FxMRM37hx44PVq1efGQvgAm1n//79Ye/evVvR19cHSUtLN5BIpGomk8lCo9HgPBk40IDjDIAVSON+oALNDPjY2Gw2ITc3VxuA3crK6rGfn58N4OOzZ8+W+vv7nyspKVFZtmyZj7u7+6+cAhdoK6GhoZ7Xrl3bJiQk1BMcHGxuaGiYxWn/0VzHHx1rXIAL3nQ3b4adfRgRsRU4+WbOnHnvko+X448Sz2n/O6XNjvc/NmzKq++chEEwmYtnTb49Swj1ACdHTP3Sg53bRpV9V0dd+KGyxSmrpF4VxWa0LdRTjZ6uKBZsKYv9zOnzxrJdcXExKTo6evuhQ4dOq6mp0by8vIYF3E+fPhl4eXldioyM7FeVV69ePSY2LlBNf/3111svXrxYISYm1rl06VKfqVOnRoFoJ4BMIHkHI52ApB2QxDD4CQKeysvLVX18fPyqq6sFFy9eHHvp0qVF4Iu4uLhFV65c+T0/P1/dycnp6qFDh3aD4TjhOQBuYGCgp7+//zYpKameK1eumM+YMYML3G8xD3hCbe3s06qrq+VNTEwyNm3cdGjuXIs4Tpg9Gm1A6l5FduP2u2/TXYvqOzREhYWhObo6QdoyojH8GFqVMJnQhoAgwZJqypLnOSVOGbmFckJ4XJ+pttLtNUaap6ZLICpGg47RGAMANzY2dse+fftOAeB6e3sPC7gpKSkGQOLGxsYaubi4jJmqDEr/BAUFhT569Gi5urp63aZNm/YuXLjwHqc8KCgokNy2bVt6Xl6euIODQ5SPj89S0PfJkyc2AQEBHoWFheorVqwIdHd338apxATAvX79+oXAwMCtIiIiPf7+/gC4mVwb9yurklOSIxP3OH7rZb8rB4BatGXz5vP79v1yYLztxdiODoGU/JbVr3IrdzVRmIo0CtyBZjEpYmQMgweBEOijwj09fTQyHYWEhHixDcaKMs9nT5K/aC2L+8ePgL5k69+Ay7hw4YKNpSXnJXUGgOsbGxs7bSyBC2xx4ASLjY1dr6amVr5+/foDCxYsCOcUuNnZ2eo7d+58V1JSImxnZ3ffx8dnBVCjY2JibG/cuHGqqKhI3d7e/pq7u/tOLnA55eow2j2Ni7PYu8ctvK2lXcjS0irJ0XHlifnz546btP2SVBAjndjUuLCgsWtVVlWLdmM7VaKH0odFoFAQi4mAyLzIeh1pcr6urPCzSRLkZ1ZyQrnDmOq4NAUBGFFRUdsPHDgAJC7zwoUL4ByX41pYwMb19fX1A8DdtGnTPUdHx3NjYeMOABc4wZzV1dUL1q9f/+uCBQtiOWVSbm6usqur6/uqqioxGxubh76+vvagb3R0tH1wcPCJioqKfuAePnyYY+ACLSAkJOTigMTtDQoKmjVt2jSgKv80SRaD/BtTGxeoO89fPHfdu/eXo1IS0vDRo0f3mprOCFJRUflmpAunC/sj7Z6VtpkU9zLN6nsZOh09NH4EGtvLZqEgQQKyQF0EnSzPh/kwU4LY/CPPGKu+PwrcQYn75MmTaRs3bry3fPnys1OnTv1uCOhI5gLOTa9cuXLp4cOHzlpaWoUbN27ca2Vl9YTTsQoKChR27NjxtqCgQNrGxibKz8+vX1V++PDh6tDQ0OPV1dWKIABjwMblyCvMBS6H3L9z545DcGjIiazMTLXZ5hafXF1dN5mbm6dx2H1Mm4H0QioEEVAQxCBBEKsRgpgT6XbAb01+IOQRBGAA5xTr4sWLi4cTgAGA6+fnB7zKRgC4K1as8JgyZfSvCgVOyOPHj/uGh4e7amtrF23cuHHP3LlzOQZuXl6eyrZt214WFxfLLFmy5E+v8r1791xCQkJO1NbWSjg4OFw+cuQIcE5xJDH/Dlx/f38zro37t52W1dDAG3L+fHBwcJCDiIgI/dCBg7sNDAwe6ejoNI4pIv/lg4Pz0YiIiK0HDhw4ra6uPmxVGQDX19fXJzY2FhwH3XV0dPx9LFRl4FU+cuSIT2Rk5FYdHZ1sFxeXfXPncm4iffr0SXfnzp0vysvLhZYsWRLp5+dnC5YWZAcFBQWdrqysFFuxYsXVARuXI+AOepUDAwO3iYqK9gYHB5sZGhpynVNfYgaoNHfu3v0t41OGqpa2VtHBfQcWm5iYFP7LcTXm0xtl4I6ZxAVHgL6+vsCrbD958uSSzZs37x6OxM3JyVHavn17UmlpqaitrW3kpUuXbMGYqamptkFBQcdLSkpAkkSQu7v7luE4p8Bx0N+Ayz0OGty1QCXxuOAV+eRp7HwpCXHKmlUrjtkttff7GROWxxyJw3zAQJKB66DE9fT0XGRlZcVx5NSAxAXOKUMQgLFs2bLzhoaGqcMk47vNgbStqKhAX716NSA8PHyNnp5e4fbt291mz57NkRMNqNkZGRnKbm5ub0pLS0VsbW2jL126ZAdBEBwbG2sPJC5IMli+fPl1d3f3rZwCF8R5e3l5AeC6iouLgwAMUwMDAxDy+L9Yy5/oMybOqaiIl0svBPgFpGelCM82NUrz9jhhp6SkVfUT8WXCkgoCEoDdePDgwTOqqqp0Ly+vxcNRQYFX2dvb+zIArqura4SDg8O50QQuiJgCYazg5R0YGBj48OHDNZMnT87bsmWL27x5855zwlig0ra2tqrs2bMnoaSkRMjW1vaxr6/vUgCwqKio5cHBwWdKSkoUHRwcAgaA21+eZ6gPOEoLCgo6f/369U0SEhLdISEhJmPhmBuKjtH4ftSB217ezr/98OFHiRkfzcWlBDvtbObd+HXnrxzlwI7GhP7tY1RWVgo8fPhw848A99KlS4PHQREgkV5fXz8DjFtbWyuPxWL7kEgkFQnKkEAQiB8G0Ux/7pOB8jD92T7IgWBj0JbFYqF7enpIZDK5QUtLq2pAVQ6Jjo52mDRpUj5QlWfPns0RcIFHuq6uTulvwLUFL4QB4J4GqrKDg4O/u7v7juFI3IsXLwLgbpaQkOi5fv26CTgO+hn3zKgCFyxWXl7V9J3bd8R0djURFi2em7DFxXnflGkmE8KT/DMu0N9pBgCLiIgAqvJZIHF9fHwWcQoIMNZgrDJwTrm6ut6ztbX1FBYWbkpKSlr8+vXrdUwmExSbY7DZbDSbzUZiMJh+aTZQe22QHLBvQI56f8wxDw8PKFRHZzAYvGZmZnfmzp17rbe3lxUSEuIfHR3tpK2t/cnFxeUQpzHV4Ay4pqZGcc+ePa9AAMZXJO6fwLW3t9/JSVofIBy8EHx9fT2vX7++BajKQUFBQFUGNm7/i+hn+owqcD/klapE3r6/P+bRfXsBErp77drVgZummZ6Bpk4F8ak/HXMm4kL+KHA/fPgw1cfH53JMTAwIwIhwdHQ8jcPhWqKjo3cHBQXtAUAcrFNFo9H+rNX0N+D2s2awxtVAckB/vPG6detCNmzYsJtIJLK8vLz8nzx5slJDQyNz/fr1Rzg9x/1C4g4JXGdnZzdOfSdAfb9x4wYIedwmJibWb+MCr/JEXOehaBo14IL6RgGP3645fWD7BXpnA3nR4vlP1rqs9zTVN38/FBHc7znnAPAqR0ZGbh6UuBcvXlzEqe0IngKA6+3tDVRlI1dX13BHR8dTgoKCTY8ePdrt5+d3QExMDFJUVMwikUi1oBIigUDorxwJMnYGfva/gEE52MEfdDqdmJycbFFbWwvt2LEj9NSpUy719fU8np6ewXFxccs1NTUL165de3DRokWRnMwUaG6NjY3Ke/bseVlSUiJiZ2cHnFNAVR60cf+UuE5OTrs5rYAxcI7rGRAQsH0QuP8Zifuxq0uIQmMrwO0IMWYfBDMRfUyYgG1r7GYJxcdG2t09tddJXlak8ezJo2dmm1uFiYiIUMc655aTzfBvaQOA++jRI+Cc8lBVVQVJBovmzJnD8W0LALi+vr6DEveOg4PDGWFh4ZbIyMhdly5dOjhlypRCKyurIB0dnUSgCoPcWGDLflmzGNSuGuQnKPlaU1MjdvLkybCCggKcm5tbsIeHhzMASUBAwI3Y2FhHTU3Nog0bNhyytraO5MSDC/p2dHSo7N27F0jcvwA3MjLS4caNG8A51W/jDkfiAm/1b7/9dsHf33+HmJhYd3Bw8Mx/vcQFb9vkVkgto73eurCxc25bE02e2sfAs5AMKp6XUNvRSoGLUxNlmt89E7afaRi73dnpmJ6exoTJquEC938cGLBx/YCq7Orqenfp0qVnBQUFW588ebL9woULB83MzBLXrl17zMrK6gWnPMvJyZFZtmxZaXFxMcbNzS108+bNrry8vCgvL6+rsbGxa7W1tUGs8kFra+soTsYEx0lpaWnqe/fuBRJXdEDi2gEB8IPARR89evTCtWvXdv4ngFtcDGMz+3oWJFaUbkosL51a29EmjIF5IV48H8SC6VQEColnMNEQmtoLSbF7ctbNn31Sc7pC1M8QQsjJRppIbX5U4gLgenl59R8Hbdy4MdLR0fGEoKBg3fPnz53Pnj17ZubMmcmrV6/+bf78+S85mTd4oRcXFytYWloW1tXVobdt23Zn165d2zEYDMrb2/tiTEzMGh0dnTyQ1sepcwqMmZ2drbVjx46hgHvN3t5+F6fOKXBU5e7ufuHq1au7xMXFu0CSwb9W4mZ1w6Jvq3tXPXqf8UtNV7cknd0LacjJQao4/nhBLCaHj4DtLKytnlfZw5xR0dQKIVEISIIfX25nNu3UDDHiIz0BRH+RL+5ndDgwCNxDhw55KCsrgwoYw1KV09PTpwLgxsfHT3N2dr5pY2NzkUwmNz99+nSDh4fHyVmzZn1ydnbeNxyJm5WVpWBnZ1dWV1cHbd269eahQ4d29vb20sGZ6aNHj7ZpaGjkbtiw4YClpSXH2UFZWVnag8C1tbWN8vX1XfYViTustD4A3OPHjwOJu0tYWLgrODiYY+AO3JAAau0MXnfCUZjl6Kz6/z/Kd51TgNiQyr710Rmlv6UXVckTyby1k1WkU/SlReO1SXwpRBZUzouBaHW9FM2i9r7JOQ2tFh+Lq2ZSmXQpI23V0nk6MgfXSmMfjBXx/8Vx8/PzhZ48eeJ6+PDh08rKyn0+Pj6Lh2vjXrp06erz588NnJ2d79jZ2Z0nkUhNsbGxrh4eHkfNzc0znJ2d9w8HuOnp6crLly/Pq62txWzbtu3mnj17toCrTgIDA30ePXq0UUNDo2DDhg3758+f/5iTNQMAS09P13Rzc3sxEPL4F+AGBwefLi0tVXZwcLjm5OTkxqlzCoZhnmPHjp0LCAjYLSQk9CdwwfNaWloIPT09DHl5eXZ9fT2aRqPxANMei8XSwe+g2B3QIqhUKgAvDRRUp1AovAICAn0iIiK0kpISfF9fH5mfn7+FUy83J7z4VpvvAjeltVXmYQH1fFxq4XIGpQ+aNUXn5sxJMtc1JaCMyQhE75eD9te8rWboxWaWub7PKXbBkgWg2VNUg2y1cfunkSbGvTs/wqiJ0rewsFA4JiZm86FDh06qqqr2gbrKwwHu+/fvQT7u1fj4eP3169c/AAEYIiIiDQ8fPtzu4eFxGGRvOTs7H+BUVQZ8ycrKUrOzs/sEvMHbt2+/tXnz5o3AxvXz87scHR29Tl1dPX/Dhg0HFyxYEM0JH4GNm56erjEUcO3t7QNWr179K6dpooA+UK8qMDBwh6ioaGdoaOgsPT29/KSkpMk5OTmzmpubBdlsNpPBYOCYTCYWg8H0378EzrSRSCQTOLfAPkcikX1A8jIYDB4UCgVADO5nwvb09PDZ2Nj4T5s2DSQucBTNxQk/vtbmu8CNLKq2u5PZ7J5X3aajLkQsWWFh+IuCDBSvj0BQvjYYOBKKrGSa3XyVElTSzpLXVhTPcJgk7G6rJMixijTSifxX+gHggmr8R44cGQQuUJU5diQNHAddef78ueGGDRvCHRwczgLgPnjwYNu5c+eOAOBu2rTpwLx58ziycb8AbkZVVRVh586dN8+fP7+pvr4eNXBevE5TUzNv/fr1h4YBXEx6erq6m5vby4FY5a9KXABcFxeXgzIyMn/ep/y9fQAK7Xl5ef0eGBi4WVxcvCMkJGSWlJRUaVRU1JqwsLDDWVlZ0uDqElBpEpxJgxMvcFYNAsS+PNsG34M6WeDvoD0ohgeqVII7im7evOm4dOnSCFBllhMP+kj37TeBC0Do/y7/Qnh+m0sfEslaoC19fomRzFUtBOK7TAI2cWRWiVtMTutOHBrFWKkhcmmbifzRkRLI7fdXDgBVOSYmZgsArpqaGhXEKg8XuD4+Pv3AXb9+/Z/AjYiI2Obh4QGAm7px48aDwwFuZmam6rJlyz5VVlYC4IZ6enq6AuCC8+InT7lAJ3sAACAASURBVJ6s19DQGDZws7KyVHfu3AmOg/qzgwZsXDbwKn+hKgc4OztzDNzW1lYSAK6/v7+riIgIkLjTDAwMCqOjo23DwsIOvHnzxgDcAIhCofoGbjrsj/BEIBAoNBoNzrORNBqt/yZEHh4eKrjVBRyZ9fX1EVtbW9EkEgkKDAy0trCwAEkfaE5DMUeyx78JXJBoHvEkLSyyrGcZL4nc6GKmstJRji9hqAgoMLm7dd0L/F4UXWlv7ZBepkKOWbFQf5kWh5X4RjKJ/1KfAeC6HjlyBCTSDxu4ycnJU4CqDK4gWbduXTiogAEk7mgAF0hcEIDh6ekJJC4aVGkENadGCtxdu3b1A3fp0qVA4oLjIDYoXRMUFHR28Bx369atvwznjltg416+fHkfsE0DAwNna2pq5oCMo9u3bx+uqKhQXLt27SlDQ8NEfn5+UAEF3OIJwIuHYZgKpCwo1g7+gbuY6HQ6ikaj8SUlJc27cuXKL7y8vJCPj4+NjY0NR7b8j+zbbwK3CYb5rsV8vP8gr91aQESwYrul1lIHaT6OwsMe1FFNvV59DmlsblJcqsT3xnXRTMuJcAvAjzBqovQF2UH379/fDJxTqqqqFC8vL1AQnWNVeQC4l+Pi4oy+BO6gqmxhYZEK7NHh2LiDEre6urofuEBVrqmpQV25cgXYuAC4w7VxMUDi7tq1C2QHgbS+KJDWNwjcgewgZVBzatWqVbs5uckArN+AV/l3Pz+/PQICAtQbN27MBBUw7t69uyIwMPBEfn6+wtGjR7eDmyHU1NQqB1VdYNv+XXoO3sP76dMn4devX689efIkiPmGQEWSRYsWcXyX00j31TeBWwrD5NvPPtx4UtS7VEBUuHatqYLLdGnSa3kIon1P6qbBMCanrGNR0PsCn/audumFyrzR261mOsogENSREsnt938cALHK4eHhwMYFaX0UEDk1e/bsV5zyKDU1Vc/b2/vKIHCBjcvLy9vw5MmTL1XlQ8PxKg8Ct6amhrB9+3YA3I01NTXoa9euXY6MjOwHLqjyuHDhQo4kEXBOffr0SdXNzS0BeJWBxB0IeYSjoqKW3bhxA0jcfuAO5xwXRGSFhoaev3Llyg4Q0Xfr1i1jcI4bHh6+PCAg4HRmZqbS2bNndxkbG0eBDCdOeFpeXi7+4MGDDadOnToNVOWAgABra2trjvKOORl/2F7lNBgmJH7I8Xia2+hEYcCMefpq1y21ZC/LdjW2iYuL/8Wj/OXgGb2wZGRq8f5XBfXreFAs9uJJogGmhlrHv+XQ+hHi/4t9B4rFbQVpferq6kDiDgu4SUlJepcvX74SHx9vtGbNGmDjnhEVFW0E15qcO3fu8OzZs4FX+eBwgbt8+fJPZWVlhF27dv0JXOBVBqoy8Cr/CHAXL14cdfnyZRCrDMfExADgniksLFQBpWtsbW13DyMAA3Hs2DFvcOmXgIAALTQ0FFz6lREeHu4QEBBwqri4WPHYsWOupqamkSoqKhwVCwRRY3/88cc6d3f3EzIyMpCvr6/lcGLHR7qHv+tVvl1avSoisepgfkWjuraCdKmDmYGrpjSUpglB4JKu/iBzYISDn8D9XQ3D+MwGSOd6TOK9/JoWBS1FyQyH6bK/O6qJ3x8pgf+WfkBNA9raj3oaAXAjIyO3HDp06Ky6ujoVVMAYjiNpALh+8fHxxuMFXHCOu27duv0jkLivgVfZxsYmGlR5BMAFEjc0NPRMUVGRiqOjI1CVh3OOizx58iS4O+gXYWHhzpCQEOMpU6bkhYeHr7x27drxoqIipWPHjm0xMzOLVFZW5uhmxqysLN4XL15sPHTokJesrCzk5+dnPZxyuSPd398Fbnw3rBH7se1CQlLxfDQEQ3ONtX3MtfgCJ4lD5TQIYstDECiLiayAIFQrBLFaqyG1p5mNG19lFO3E4gmQqZ7SwyWG/Ptm8SPKR0rgj/YD1RQaGxtV29vblSgUihCbzabz8vJ2AQCBA3kmk/nnzVOD+aVIJLI/zxR8gLv/e5/B2+ZA3y/bgTFQKBSTxWKxsFgsOBqgEwiEVikpqQYFBYWWkZ7z/Q24FE9PT1DlkeOjGwDcK1eu9AN39erVoyZxHRwcMsvKyvC7d+/+i8SNiYlZr6mpCQIw9llbW3Nk+32hKr8GNu7SpUuBVxnYuH8B7ooVK/xXrFixaxg2LubEiRPn/f39d4EAjJCQEKOpU6fm379/f/W1a9fAnbvyIDHfwsLiPqcSNzc3V/yPP/4AzsJjMjIyLF9f3/mWlpYcJ32MdH9/F7jgwqyUIsjpdUbjvrzScmUsnl2nrUZO1VcXf6FEIr0X4sFUwn0Qpg8FyX5uaJucUlq3MDW/eQYKxSeiIytTNl1T/JyLDnT9R6XMUJMDtgudTpfp6OgQIJFINCwWC1yBdCKR2ADU+iNHjoSkpqYupdPpeHDeRiAQAGhB4jcALQYcpg8ACYCvP4dt8JmDVz9+09b4vzzjQeD+OQZwaIBE9IGzQaa0tHTm6tWrTxgbG38Yyjv/recNAvfgwYNnNTQ0gFd54XBs3G9JXOCcAsdBI1WV/w7ciooKlL+//9WYmBhwjpvv7Oz8K6f5uGDuwG7etWvX+0HgDlZ5BMdBoaGhp4uLi5WBxF2+fPlwnFOYY8eOXbx69ep2ERERULrG2MDA4DOoi3XlyhVwy70cuP1v/vz59xQUFBqG2nfgewDcp0+fuh49ehQAF/by8rJcsGDBPwvcfga2wFKfqnoWxefmbUqpKtGg42FIQVahUp4s+VGYIFgMdn5rT5tKbkulflNbqyq7l4aeIi372VJF5YapgugdLVEERwzghElfa5OamjojMTHRqq6uTr23t1cQjUZTaTQak0QiUeXl5fPnzp17dc+ePcmVlZVKWlpauXg8vh2BQACw9p/LgZIr4MUyUJsXgBYG0nLAawiqQQAc9wN50JP4NToGgQhC/cDBPOgy8MJCUSgU4erqalUmk8k4ffr0Ek6Lpn3tOcA59eDBgy0HDx48PRLgpqSk6A6c405fu3Ztv8T9InJqRMAFkVP29vbAxh2UuC6gWJy/vz+wcTeAAAxnZ+dfhqNCgpsMtm7dmlRcXAy8yn+WZwWla0JCQs4Ae3QEqjLG3d3dC1z6BY6QQkJCZoCaU/fu3Vt19erV0wC47u7ue83MzO5qamrWc7InBwNiQCQbUJWvXr067x+XuIOEp9XBhJy2usVvy8sccto7NNp6WDLMdggHsdBILB6HYCDpEIOHwhYmoatVBQQyTaWl7xvK8T8xEhIa8xsLjh075uvn5wfeoOAu1V4GgwGAAjOZTHxTUxN069atxZcvX/bF4XAdy5YtuyQrK5uDRCLBwTl6oLAZACUTJIaDv/99sQZB+6UU/rINyFcF971++QGoB2MhEAigimPq6+uVkpKSbNPT083379+/3MrKKn6kWsjfgTtcGzcxMVF3wDk1HajKK1asGC3gAlUZt3fv3psgHxcANyAg4ApQlbW0tABwfx1O4XZQEH3z5s2JALj29vb95VkBj8H9uMDGLS0tHRFwjx496h0QELD1S+A+ePBglZ+f35mCggLZ4QJ3MCDm8OHD/cC9cuXKxAHu4KaMa2jTLmjpti6oa7OurmzX6KIwhLvZdISoGLleUVIgRVWY95kuWeiVuQz5uxdHc/Im47TNgQMHwt6/f7/qt99+W6yjo9Nv64Gg8BcvXjgfOHDA88yZM27Xr18/mpqaKgCkIAAZUH/B7wN3s/5ZgmWwFMvfQPhdUgYvZx4cDzQekLb9P8H34OAelHcRFxeHPT09rX7E6/g34PZ5enouHI6NO5TEnTNnDjjHHdZx0IDE/RK4QOKifgS4+fn5quDuoKKiIhEHB4dRA+6RI0cGgdt78+ZNYyBxB4FbWFgo+9tvv+0xNze/N1yJe/To0ZPAq+zt7T1vQqjKf9+1WTDM29YFSXR1UvjpEBLfyWQi8Dhkrzge2YLkx9V+ed8sp+AbSTsQ1A3C6jw9PcHlyUsuXbpkOn369EQwFqhZ9OzZM+ejR49eunDhglNHR4dEU1OTJJCwIJSNTqcDOxQH7FoeHp5+BxtwIg3Epv7Fxh2oavhVX8DAd/3k/02NBhYEGB+cXYMwOTSBQKALCQkVzp07N5xTx8fX+DIYgDGgKoMkg4UWFhYcO6cGgRsfHz990Kv8par8o8Dds2fPrXPnzgGJ2w/cx48fA4mb7+Li8stwJC4ALpC4QBX9O3Bv3rzZX7oGqMpOTk57OM3GAYEU4DjI399/q5iYGLjJ4E/gXr58+WxBQYGMu7v7nlmzZg0LuI8fPwamy4kJpyqPBFhj3Wew/tEvv/zy4MOHD8s8PT1Np02blgIw1NbWho+OjnY+ePDgxbNnz27u7OxUBDZmT08PDo1GA8fU/2vvWqCiKvc9zAzDAAMoGpYHZUxFUTha+LjquSwLMEOTwkBRsgk1UxLFEBRERwSZwCevwSQYHqKGgtclPvKWJ4mUEDARBQQF4lrgSUBe84S7fvt8mzNO6JkZ9d6ImbVaEuy953vs3/d///4AJxxHPbBJDQ0NwWiI3xMMUl3SKbBCg1aZC12L+ZjzijKCDQ0pSQ6bGNcbGRkZMhgMqUKh4MhkMjNjY+NHM2bM+O+ZM2d+pelprglwtZW4qqpyfzaursAlzilQ1/QBl3ZOOTg4II6rlXMKUhzOqerqarA89tm4ubm5S9PT0yMBXHiV+Xy+xmRxNHBFIhFUZUjcOeibBBs3OTlZiAZjkLju7u5HNXVOQZU/deoUMtmoOG5iYqKbNjFwXXHy3MjidB3As963ffv2rPPnz/uEhIS8P3PmzOKWlhZw/JoUFBT4btu2LVwkEvmfPXt29f3798eNGDHiHofD6ezp6TFisVidsDMhDQFcAwMDGXFK0d7hxwALs5WM9bE1A1hVKJmov+E5KAPDf7C129vbR3R1dZmPGjWKkjzTp0/HAaPTR13i/lGA6+XldR2ht40bN2bFxMT40V7lM2fO8AFcPp//LMDNTUhIQCcDAwLcXcic0gG4qMfdrw5chINEIlF0VVWVzbZt27QCLnKp8/Ly1oSGhlISVw9cDV5rnKB79+7djwqUWbNmZdrZ2d3p7u7uUSgUpjU1NbPy8/Pnx8TE+MbGxqYxmUxDDw+P+OHDh9+TSCQmPT09TLlczmKz2SBCk6GuUjUWq+6MooFL7OMnqs70sCHU8R34/7a2Npvr16+/VVNTM14gELz3zjvvaMS99CIkLsJByGiCqvwEifujn59fmDZSQ9XGDQwMpICLlEc4wfLz8/lQlT/66KNgLRkwVCXuE4G7cuXKTSNHjuy3zFR9/Ugh/VOBGx4eHjh//vyjr776qkbN6QDc3NxcSNydeuBqAFr6kry8PJ8jR45sOXPmzF9RF4l8UdRSIuF74cKF/7Vq1aotISEhqGrioKXkK6+8UoHECNRXIo4LqYukDAaDwVb/WlrtVVOXH7sMz1FlPcQ9ADmkek9PjzGk7qNHj0YWFxd7lJSU/EdERIRWVDPqY3pWidsfcJHySMdxXV1dtQIuDqiSkpIJPj4+ZZC46sCFxAVwkYDxBwNuF5xTUJWJxBVWVVX9BcDVJo5bXl4+4ty5c2Ak0QNXC9wagIPpwYMHvNbW1mFQeUlBs4LL5crNzMz+wWaza8PDw78H8wOXy6XsUICNJEXQ8VqKlp9m56d5hYiNS2m/TxsT7Y2mvcjEUKa81fguhUKBZxvCCSQQCJa4uLhc1maOqteqAVe6Z8+eBdp4ldWBS5f1vQjg0rnKCAfx+fwtmmZOYb5qNu6LkLjPBbh0AkZoaKhg9OjRvYmJifO00VZ0fQ8GvI2rqpo+KRsJJ2pjY+MkXIsUR3ikZTKZjICYBiXltMI1/T2HOMMgTfvWjP4dya6inkMxhzMYAC1iwhykRMJJxeVyJdbW1v8zY8aM83Z2dnd13TC1cNAfAbiM0tLSCUuXLoXENabjuCBEP3DgQDJYHh0cHKrgnNIWuAEBAd/fuXMHzqmTCQkJ7/dn42qjKkMjEIvFYHmEc6orPT19FsJBR48e/eDQoUMoXIBzSiuJSwM3LCwMwFUkJSUh3Kexl1/X9+BPA9x/IxHhfAKw0AqlBxvI4/Go8kSS/N9vm0V1ABPQUsUC5Hl9+cm3bt1imJqaMlgsFrWmsKkRT7awsOh59OiRDFK3ra2tx9LSkqFpbm1/cyJNv9DYOtLe3v5FAFerOC7W79q1a/bLli0rqaurY2/atEksFApXNTU1cfbu3Qvg+jo6OlavWrXqM21V5YCAgAKSOdUvcH18fEBds+lp1Wpq2orJ4cOHY5OTk9GCpCszM3PG1KlTKwDc5OTkqOrqaoSDNs6bN++Ypjbu3bt3R4CgnqjKsvj4+AV6iavrcfSE+2B76pqx9KSh9BO/pSg8W1tbwRootbGxUcBRg/s1jTc+bdrqwN2/f7+7trnKqs6pflRlrYFbXFw8cfny5aUEuGkEuCYA7unTp32nTp1aCW+6No2tSRwXEhcpj/8nwK2qqholEAg2vvXWW8e1CQeBSig0NBQ2rjwpKcldG2IDXV/xP73ERWojyUPWdY2ey33P69B4VuCSQnowYMz68MMP+6qDaAYMFxeX4pUrV4Zpmm8LiVtWVjbB29u7DMANCgpKjY6OXt3U1GSyZ88edDKgVOU1a9Z8pg1wSZEBJC44p/qAi5THjIwMxHFRZKCVxCWqciyKDNQl7uHDhyPLy8tHI9POzc3tOI/H0yhXGY3Gjx49ug5xXFtbW/nBgwcXuru7a9RO9FlerD89cLE4paWlk1paWl4m1JqwbdEOB5VC8C6jtpj6MBiMp3Ymh/cYN9JeZpX/70vMoD3MxEvdyWazZXi2Uqk04nA47SNHjizXlAe4v40lhOj+tKqsrcRVS3k8DgYM2qsMlsc333zzGlpiagFcRllZ2cQlS5Zcr6+vNwoKCkrZvXs34uam+/btS6aBu3r1ahQZaMz2iVzltWvXQuKCAeNEYmKiF9bjOQK3Oz09fRrqcaEqo5D+5s2boyMjIzfNmzdP4wQMej+2bt0aCRs3Pj5+4dtvv33hWUCpyb0DHriQqLdv335JIpFY42e5XA5SLyrr38LC4hcUREdGRooKCwvfZjKZPSwWagt6DRUKBWxVBUJDxGZFXIguycPtT2oLSlcKwQFFdbAjMd6+egR64fF9SKmEeo6Y8fDhw+s+/vjj4Gdppvy8gevl5UUxYBCyuHBdgQvnVH19PWzcw9HR0R+Dw/jgwYOQuB86OjpWQVXWAbiQuCPUgZuZmbnrzp07KKTXSuLCKbljxw7YuGj69TvgVlRUjI6Kigp0dXXVuKxPlZFk1KhR8oSEhHf0wNXg6CkoKPjbjz/+uLCxsXG8Uqk0hVRD4oNUKmXY2tpWuru7JwcFBX1bVVX1qr29fRWXy32IXGV4gs3NzRHLRcojPMAUcEllD/3NNHhpiUqV6tHlunRSBg1cCu3E60yqg1hIqZTL5RaNjY0TlEolc9euXQueZWMB3JMnT4K6BmV9Um0lblFR0ZS4uLik8+fPz+bz+cd8fHx2DxkypAmtQj7//PPtUJW1KTLA3OFVXrZs2XWoyoGBgclCoXAt1FKRSATnFBpb34bE1SZXGWV9/v7+SHkc4enpmZOQkOCN9UU9rlgsRuaUHYDr5+cXqGkCBuq2s7KyYkQiEZp+dYvFYicU0hOJu6uiosJWF+Dm5eX5Yz9g4+qBqwFoe3t7TaKiovZlZ2d/gvgtwi4oXEfKYWtrq1l7ezs4gD4CudjQoUPve3t7x06ePLmEcOEixspEeAjqLNIWZTIZnZ/cr7Rls9kA/O/UaZKr/Jj2guciLxrPraurG/f111+vqq6unr1169YPnJ2ddQ4XqAFXsm/fPjhDLmmwXNQlV69e/Wt8fDzI4uasWLHi6NKlS6OGDh2K/rgA7g4kYIC8XFOWRxxUpaWlE5GAUVdXh3CQKDo6el1FRQU7MzMTHemR8ljxySefbNamDpkAt6C6uvplVeDm5uZ6paenA7gIQWmbq8zesWMHgIumX11isXgagJudne0LG/fWrVu2sHHfeOMNjTOn6PDcli1bKOAmJibqJa4mL2NYWFjK5cuXl2/YsMHPycnpHJfLVT58+NDi/PnzK4RC4W6BQBCUkZGxuaKiYgTK65AQQfhxKfZ5fPA7ukiALvUj0vOxIdCSVrWEj2asUS0JpEv9gHGUEeJ6ZHUNHz5cEhMT47VgwQKNbT31NSAMGNQJb29vrzVwf/jhB8ekpCTwKs/h8/lHFi9evNvS0rLpzJkzn0ZHRwtcXFyKkPKoBXApievj44NwkIkqcDMyMkSnT5/2c3BwuLlmzZrNmnbrw5zLy8vHrl+/HsB9pR/gRtTU1EzUFbho+oXqoLS0tGnTpk2rBHC/+OKLXbdv3+ZpC1zinEJLGNi4CAe9o3dOPQW5yFOGzyc8PDzzu+++WyQUCufNmTPnCm6BffXtt9+uXLduXXxiYuKGhoYG246ODhuow+CxJmqxiUwmQy8Y2KHIdWUSnimozlQSBikgeOxnXK8yLKjXVOIFbe+SBAxIXxTzG0kkEhaXy+1ls9md5ubm9959991ke3vd+wbTwA0NDaVUZdT3urm5/V2TQw7XFBcXO8D2vHDhwt8AXE9PT9CKNp09e3a9UCgUuLq6ArhwTmlE+Uqryj4+PsX19fVmQUFBSVFRUf7Yn+DgYDinANwbsO3d3Nw0dtqoAnfx4sVfxcfHL8H4icSlgKsDAwbV9EskEm1E7Dc1NZUCLknAAK8yLzIyEhI3W1OyOFId9PG2bdsAXGlcXJzHs5hCmu7jgHZOAaD79+8/eu3atXmxsbHOVlZW5UhuwMuUnp6+avPmzYciIiI2/fbbbw61tbWTOzo6hsArDMcUmOlJZhPaS7Qjlxl5xioOKnX+N1U6Gmp9VSqGKLJtkttsCAeYgYGBRKlUDv2ns5ohAQPH2LFjb7///vuCqVOnVmu6QerXNTc3c7OysgKIxH0kFArfnT9/vsaqMgjR4+Li9l+8eNGZz+dnQVV+6aWXmk6cOBEAievq6vo9n8/frukzMe/S0tIxPj4+1xsaGsyCg4PjIyIiAqAqp6WlpeTn5yMcdAPhIG3im2jduWHDBkjcv6gC9+TJk8syMjLCCXC/CAsL+1SbVh/oj5ucnIykjXZ4lbEXkLiHDh0Cdc3oiIgIkMWdGj9+fKMme0RSUAHc6NGjR0vi4+M9taHo0eQ7+rtmQAMXDpC4uLgjV69efS8kJMSbx+PdQFtEQ0ND43Pnzn0gEAjC9u3bFww607a2tjHDhg1rZjAY3SBe5HK5rRKJBO0TTRgMRruBgQGbOJYgUSknFa020xlU/4ZzCmtJ90+FpxkF+sZwZkkkEqQ+WjGZzAdbtmzxcnZ2pgr+dfngsMrLy/t006ZNMVOmTOmE7cjj8a5aWVkpOzs74SVnGxoaSoyMjCDxGUZGRqh8YnR2drKVSiW7vr7+9a+++mpjYWGhg5+fX7qvry8kbnNOTs6GhISEnU5OTjc9PT1FEyZM+LtcLjeCkw3Poh13tEZBqqug9bDu379vIxAIshoaGjjr169PEAqF6yFxQ0JCDsOrPG7cuBoPD48DkydPLiBe/V4UgsBkwcfY2Niwo6OD+pdi7VMqGbW1tWMOHTqUUltbO3TRokXHEhISfHBtTk6OV3Z2dnhtba2js7PzWRSOsFisNvq5uAZtQ+hn43k0vZBEImEcP35884kTJ5ZZWVm1Z2VlUcA9cuTI8pSUFNjNYzw8PDIcHR3LEJFgsVjoyofoAzr04TAG5REDEQJSutkLYXDt2rW5x44dWwaS9QMHDnjOnz8fvYNe6GfAApdIu16hUHggPz9/7fTp08+MHz++FEBsbm62rKqqmlFaWvq6QCBYFx8ff2DIkCGyRYsWRfN4vFtSqXRIT08P2BdRQI/0xG4aqWSD/oVcsvxMJvNJ4aG+DcJLAruZJFuY9vb2doGatb6+fmJZWdl7jY2N4wIDA5c8Sy7rr7/+apaTk7MqODj4AAq3X3/99R+srKwaEV5GbTGTyTQCWEk6JzU2xJZRzI/f40W7cePG3F9++cVg7dq1qVgTDofz68WLFzfGxMTsgqd98uTJxVZWVj8rFIphbDa7jcFgyPF8lQOMItkDXwDWTyKRmBYWFr7x4MEDA39//xShULgaaxASEpJ45cqVTzAGW1vbH8C6Cece1pLEwAFSAzTaAthQ+EH+BdhMr1y5Mg+Hp6ura/bBgweX4zn5+fkLxWLx9qKiouljxozpsrOz+47JZHbiXqIiQWuiaqJxPXwM8C+w2WyUexrfvXt3Rnl5+UgLCwtFZmbma2B5BHVNRkbGzsuXL499+eWXqUIUuVzeAzKE7u5uKvccz8e/hCyhr1Mfxo8xtrW1GVhbW/ckJSWBdfP/r5PBCz0untPDcaqD9S8tLW1DYWHhNIAGpytO24kTJ8qdnJxOfvbZZxvXrVtX1NXVZevq6prM4/GqJRKJmUwmU6KCCIw1pCMblbhMwkEU2yOpve0D7O90ZzIPVRZIIjHwFyRqQHozm5ubJ5SUlHi0tbVZbN261V0bm1R9qUDlAjqY7du3x+CFJ0UM1Lwxf7yoeMlo5zfWAn/DdeC9wsvX1dVFqf3Lly8X+/r6Cs3MzJq++eabdTExMVGtra0GqKLCc3AfXnq66ol2uhEzgRoa7ZRDi8nu7m4ANzk2NnYtQi+pqampkG4ANDlAqHHRY6LHSDsHcY1UKqX+jjHgeZaWlgYuLi6nU1JS0MlACZCJxeKdly5dGov5QHLjoxKie2zJ6PGRKi1qXlgna2trgy+//HLW3Llzi8Vi8Yepqak7CwoKbHBwYQx4Lu7B/TS3Ng1a1fWg1wm/w/Wpqale3t7eJ57TK/7ExwxYiUvP6OHDh5b37t0bd//+/VFoewigIKzD4XBkNjY2jQ4ODj/5+/vnETaZFwAAA3ZJREFUlpSUvGtmZtZtYmLSIZfLoZMpIA0JcCmAqaiDdIlfv5VCKmV/1OmuEg6ifiRJGdSBT4DFkkgkxtbW1nUBAQHL58yZU6zrxiIj6aeffvpPgNfCwuIROLRgZ+JlJPFoTAo6KJVsgrXAJFksFvK0cSDhTYcE5cycOfOUra3t19OmTZNfuHBh9oULF5bB/od0YjAYVD2xQqHAz5T5gPVV8azj3aHOJhRQcLlc2cOHD4fPnTv3lJeXVw7ml5GR8UFdXd3U9vZ2CzjxUHYJPmtC2IdxwR9AxdIJUyYkbS9+x2KxZOj6jo54dnZ2N1esWJGMZxYUFEwpKipa0NDQMInL5f5DqVRyVEwY1feZOmcxPg6Hg99LIUVR/NHZ2WmCxJvVq1cLJ02aVF9ZWTmysrLSqampyYbL5XZ0d3cbgy0Ua8vlcuELwRKCgsgYfgw2m40ClS5DQ0NuS0sLy8zMTI7ufz///PNLbm5up/FMXfdX0/sGPHA1meilS5dca2pqpkilUjMOh9MFby+bzVZKJGiDyoSKhs2BV/mfhi0p7aO9yrTa1d93EanRl/JIQEsRzoFxAcABgPDSm5ubPyAqvUZ9aZ40N0jd+vp6HuhoAUJonyRujPRNI7o7AyQXYeGQI6YMDzfsRzMzKBwyQ2tr6wY6/bKystK8paXFBuo07ofajXtNTEz6yh2xNqq2I62hwAbGBzXROCxpxw5K3mQymTk6t8NDR7i+0NmdXmNq3WibVNU2lUqlvRwOB93h2UZGRp2vvfZaHa6F04vBYIzs7u62RB9b3KO6TvSzMSb6b9gLqVTKQU9bU1NTZVdXF0BoMHv27ApV/0VjYyO6XiiGDRtGMZfweDwcVPBVQPKyampq4Mg05PF4yIZTwmyB/wBhPhxidXV15jweD47OF9qNnno/NXnx9dfoV0C/An+sFRiUwH1eDbh02UqanVKXe/X36FeAXoFBCVz99utXYKCvgB64A30H9eMflCugB+6g3Hb9pAf6CuiBO9B3UD/+QbkCeuAOym3XT3qgr4AeuAN9B/XjH5QroAfuoNx2/aQH+grogTvQd1A//kG5AnrgDspt1096oK+AHrgDfQf14x+UK6AH7qDcdv2kB/oK6IE70HdQP/5BuQJ64A7KbddPeqCvgB64A30H9eMflCugB+6g3Hb9pAf6Cvwvm7nLupCOpf4AAAAASUVORK5CYII=;" vertex="1" parent="1">
          <mxGeometry x="496.74" y="500" width="238" height="158" as="geometry" />
        </mxCell>
        <mxCell id="ffs45p9ADlgt0rEeM66C-16" value="Clean data" style="text;html=1;align=center;verticalAlign=middle;whiteSpace=wrap;rounded=0;" vertex="1" parent="1">
          <mxGeometry x="191.46" y="365" width="91.54" height="30" as="geometry" />
        </mxCell>
        <mxCell id="ffs45p9ADlgt0rEeM66C-17" value="Load data with Kaggle API" style="text;html=1;align=center;verticalAlign=middle;whiteSpace=wrap;rounded=0;" vertex="1" parent="1">
          <mxGeometry x="131.46" y="230" width="68.54" height="50" as="geometry" />
        </mxCell>
        <mxCell id="ffs45p9ADlgt0rEeM66C-18" value="Load Data into MS SQL" style="text;html=1;align=center;verticalAlign=middle;whiteSpace=wrap;rounded=0;" vertex="1" parent="1">
          <mxGeometry x="440" y="380" width="90" height="30" as="geometry" />
        </mxCell>
        <mxCell id="ffs45p9ADlgt0rEeM66C-20" value="Query the database for data analysis" style="text;html=1;align=center;verticalAlign=middle;whiteSpace=wrap;rounded=0;" vertex="1" parent="1">
          <mxGeometry x="640" y="450" width="110" height="30" as="geometry" />
        </mxCell>
        <mxCell id="ffs45p9ADlgt0rEeM66C-21" value="" style="shape=image;verticalLabelPosition=bottom;labelBackgroundColor=default;verticalAlign=top;aspect=fixed;imageAspect=0;image=data:image/png,iVBORw0KGgoAAAANSUhEUgAAAWoAAABCCAYAAAB+UJwMAAAAAXNSR0IArs4c6QAAIABJREFUeF7svQdU20fWPqzeKwKJIgkBokmIJnrv7iXuTuJ17DTbSZxuO2Wd4u7U3U3iOMk6iePejXvBYHoHIRAIBIgOEhIICdSl/zcY9vV6bSO8++6X8wad42MfS/pp5s6dZ+59bhkoZOY1I4EZCcxIYEYCv2sJQH/Xo5sZ3IwEZiQwI4EZCUBmgHpGCWYkMCOBGQn8ziUwA9S/8wWaGd6MBGYkMCOBGaCe0YEZCcxIYEYCv3MJzAD173yBZoY3I4EZCcxIYAaoZ3RgRgIzEpiRwO9cAjNA/TtfoJnhzUhgRgIzEpgB6hkdmJHAjARmJPA7l8AMUP/OF2hmeDMSmJHAjARmgHpGB2YkMCOBGQn8ziXwuwZqu90+Pj4oFGr/nctxZngzEpiRwIwE/tck8L8O1Ha7HZ6XlwdNSUmxQaFQ21QzmQBnMK7JsYG/AVCP/5kB7akkOPP+jARmJPB/TQL/caAGwNzW1kboaW/37OnvjRNLGjKxGCyK6cHK9wvwvuXqym739vYehUAg1knQnQBnGABniUQCs9ls1M7O9siW5paEgf4BTxe6y6Cvn28hm+1VTiKR+jgcjskR0P+/tlgz85mRwIwE/pgS+I8DdUHBnZC6Osn6pkZJVn9/v4vdbkcbDAYsAoEwMZnMHn5Q0PGwsOCLDAazAQAuEHteXh6MSCRC3d3dkWJxbXJVZdWzra2taYODg2Q8Hg81mcxWGAxqdndz74qMiPwsVCi8xePxFDNg/cdU2plZz0jgjyaB/yhQ5+beiiktKfukra2NT3OidQbwAnMwKEw3HAmDjwxr6G3t7VFqtTqYxWblR0RE/93Ly6uQy+Va5HI5cmxsDNHSIl2Seyf3bYPRAPf19amgUV0kaCxqBAVHIPoHBlhN0uZFELuNHBYW9tfg0PBTkZGRbX+0BZuZ74wEZiTwx5PAfwyopVKp85nTJ3/q7esN43hyqsKFkT96eFBFcDhRB8SKNJvxst5Ofn1dw4oWmSzDi8O5kZE166uhoaE2NpuN7+6WC0+dOvMlAoG0hYeHHfH19c8lEom9GAxGj0Lp4cPDdkpnZ3tiTs6dN81mMzopKeWrqKio015eXsN/vGWbmfGMBGYk8EeSwH8EqO12O+LcudOrL2Vf+szP168qKSVxL5Xq0kCCQCA2gtVusxH1KpXKymAwEAMD3YE3btz6sK+3lxsbE/NNXELy4ZGREbeLF8+/0dLSsjI5OWlnbGzCGRwON2w0GpFQKJQ0OjpEBouCx1MVMpl0Tk5O7k48Hl8eExP7+bx588r+SAs2M9cZCcxI4I8ngX8bqFtbW8k2m81+/Ojh80qlyjsrK2OfN4uT36dWetjtdheLxax3cXGrc0Gh1DAq1YBGj8AL8xtXFBYVvEp1ojbNn79o09iYxvfAgR/OeHp6ls2dO383nU7SqlSjlNHRUZpS2e8zPDzkCYcjLTxe0EUCgdB3/vy5fcPDQ0EJCQk/hoSEHQb8t5eXl+GPt3wzM56RwIwE/ggSeGKgttvtsMrKSl+TSR+gUg1qjx87cdI/wL8qLS11BxyOcC0tLn1B1ioLxOGw+iB+0K9cb24tnozrQyCwnSMjKv+7uQVbB9Uq0rJlK17SaNQ+X3zx5fVnnlnzSkRExI3a2qqFTU3N0RaL2V2pVPpBIBAUgUDQJSQk7BQKIy+WlZWsKCsre4lAIDYmxMYdp5BICrIzvhsCwar5fP441TLzmpHAjARmJPB/RQJPBNQNxcVOlS3SNbXV1SuapNKg0dFRZHd3N/aNN9+4kJyc8Ofu7r6YxgbJ0wajEd/T08MeGxvD2+0Qg7+/X3lG5qyPnZ0Jiovnr27t7OwULF6ydKtaraTt3r3n0ocffrCKyXQTXb16a/fQkJpFIpEGOzs7g+x2CBKLRWuTkpL2h4YKz3V2toUfO3biB6lUyoHDYHYajaaNjIzMjoqOOstm0woCAqKGZjJC/q+o6Mw8ZiQwI4FpA/W5c6dm598t2NzX1xdOJpPVTA+mGE/AKzs7O2JiY2KzA/mC39RqJb+0pPT1tra2UAwWO5ycnPQ3GAwOl7e3J4YFh+6nu7vLL1++tLWnuztm/oK523Q6A/Hzz/dfev/9D1c7OTnV5ufffZfBoLf4+wdeGRwc9BsaUgXZbDaIv39gtpOTk2xkZCSguLjwuf7+Pg8qhaowmkzutTU1MVqtljRr9uy/JyenfqvT6ZpSU1Mtf+QlBl7PROEQKBSastjoSWTV39+PV6lUZh6PZwbfnylI+mcpghqBxsYa9uiowQmDIfYGBQUNQqFQ63Rk3dDQgIJARp3MZhScTCarZmi+6Ujv/8ZnpwXUZ8+emleYX/j2mGEM6+8fcCU0NDyXRiMOolAIo1KpJTk7EzQUiqtydLQfr1DoPex2MxEGQ1kpFEpPe7ssFAQLExNT/orFYjsuZV/YohhQxM6ZN/89nU5H2LdvT/Y772xZ5e7uXldSUvAGi8WuDw+PPGyz2VBqtZqAwWAgTk4IDRJJMw4NDWGGh4fpKBQKabfbTUajFmMYNXvV1NbMrqyqfNbX1/fynLmzvzAardX/TbDu6OigtrU1852dXVuCgoKUU4GjRCLxbGtpSdfoNO4UIqWZ6ekmgkBQo3q9foRIJBoUCoWNTqcDsEUBdcPhcBZHNmlDQ7lrZ6ciqr+nN9CfF3QTh4OPIpEIm8WCsJrNICcdZoHD4Raz2WxDGo0wpV7vY7VaCXQ6qiIsLPWRWTQAMIxGo7Pdbnc2m800u91s1+sNNM3QiLtubDQIg0EP0GhOVRQKrTYsLKz7YYBUWVmJVKkGYlUqdTQej+/icv1v8vl89ZNup4aGBoJarfaHQCCIhARLFRT63zmcwe+OjY15IJFIXUhISN+j1rqpqYkoFtc+VScSrTNbrBgvL+/SgIDA75KSktqmAuzKykqcsq8vpbu3Z+6YYYzh4cYs9/H1PR0WFiZ3RF6VlZXswYGBMGcGoyYiIqLTke9MfqasrMyrtbU5nUwmdfv58Yq5XK7W0UO4Mj/fTaXXBeJwRHliYuJ4Cu0kVdrT0xVtGDNgaS5UqQeN0T7+Htpmt1iQBjQarVer1RYXFxcbAoEYx6ap9B0U2BUX5wlENXVpgpDwuyQUSg3B2M1mM8KKQqEMOp3OAJ4HnqXRaOAWiwWBQCCA/qOsVivC3d19DPxxVDZgPRWK3mCzweIOQ0K7XF2ZLQEBAeq8vDy4s7Mzrba6YgGRTNYyGO5lMTExXVOtsaO/6zBQV1beIp89feuQSq2iJyQmXgoKCj5JJBLHhocVDBgMDsPhyD0YDGZ0sohlYgBQCCQPOjAQiJZKJenV1dXPRIVFfE2l0+W3bt3YKmtujpszb8E2QI189dUX2e+++84qLy927bVrt95ms9nitLSMQ1qtFkgWarFY7OBvNBoNMxqN/1hIg8Ew/m+LxYLq7+/3un37xvu9Pb2zoqKjv4qJiTskEAi6HBXGv/M5AEAm02hkUVHpB3w+73B4OPuyq2sIqMB85KulpdolJ6f4bdWgeinTwyM7IirkLwSCi9ZkMo35+voaJxQcVGsiIRAIQa/X020mkxMcDdPR6R4tLBZL/7CH19TUcMpKip4tKy/f+MqrGxfgcMg+FIpitdvtdovFYsNgDFajETtu1VmtVrumv588NDqaRKGR5HFxyWUPgg7YZCJRZYjRaKajoAg1HANVWa0IGxoNnmfDmkwWZ41GKxhUKAKUykE+HAEf9vL0OucbEHDFx8dHc/8YgZxk0sZNbXL5c05UasGs2PjtXmFhT5xiWVpaKqwoL/sECoHY0uLiXw4UCvsdBZR/Z70LCu4IG8SNL7i6u5ULhZEnHrUWLS0taI1G4yeXtyW0tbXGKRXKUAKBMMQP4h/g84NvBgYGqh42Dqm00rm2tnm9ol8RQiQSep2otCa6s7MUTSDUhzkgL3CodrS1rS0qLnotKip6f2i4zxVPz+AhR+dcVFTkU1SY/0lLS0vkvDnztgcGBeX4+/sPOvL90tJSpkatFhAplLq4uLgeAKbgezU1RYyyspp3enp6I/y5vscjomNPIRB6mF6PsDibTEY3ofBeQsDp01BxQAAJYjIxRsfGaEgcrh+LxXbx+fzxArn7X2CeMpks/uyZUz8sXbZ0q4cHuxKPx49iMBirSqUCnzcLhUKg63bI6dMwCZ8PR6FQ0OHhYQ+DQeetVg85YzAYO4lErTMYDC2PMuyA3o6MjAT3dneuGNUboAxnWrM7y72SRKK1+vv7j+9zkUjkduL40cPONOc+YWTUzpSUlJb/OlCfO3160ZlzZ3aEC8PyMjPn7MdgzAa5XBFbU1XzrB1ixwUHBR/j+Pjc4PF4gB8eb6I0URoOl8lkuJ7OznSJVPIMnx/8JYPBkF+/fnWrrEUWN3fe/K0WiwG3d+/+S++9t22Vq6tH7a1b1/8MhcJhgYG8y2g0AiSVwGw2K8RiscPsdisKAAkCgbKZzQY4EUdUMz0ZIpsN1UsikeCdnW2xx44c/4FIIgzMnzN/Z3xy8vX/xsZtaWkhyWWyjPyigv1YLE62fMWCF7jc4J7H/TbYxLXVFa+L6sRveXG8TsUnJn0ALICIiIhxGuH+V1dXF3ZwcJCh0agDtVpdIAIBV3A4PtcCAgKGH1QGsVjMKi4ufP7kiRPbdu/ZF+7h4TFuuYDDbmxszKbX6+1CodYOgaQASmQcsCsrS8LNY2YsnkKRBAf/z4buF4nw7SMjkTaYnYZCYftJJJLUz693+H7LNTc3F8HhcAjDw4P81pbWOe0d8vk2ixXO8fY6FskTHPIWCAYm5wI27cmTx15tlDS+zfZkXUtKSts8eSg5AgL3f0YkEuFHRobSCvILvm1ubnZ6ecNLi5FIbHFERITDFtJ0f3Ncr3NzEbcMhrk3b9/8jMnyKEpPT9kVFCRsf5RVDfaBRCLBj44OcyX1jfNFdXVrEAi4IS424fOg4ODrvr6+yvvHATKpamurVnZ2dC5msZkVHh7uF6lUQAX6jzm68SUSiVtNTcWr+XcL3hIECS7HxMXvEQqFNY7uhbKyMlpLS9OL2Rez3+Xz+K1JiUmfujGZdwMCArRTyayuro5q0+tdoBhMT0hIyOgEUANMgH733Td7m6VNC0JCww6tW/f8FxKJBM5TKGzQB2hKsDdMJhNDoegLViiU3u7uzDomk1nL4XBG7pczANDh4eGIPbt33ty4aeNGPj/42ujo6IhQKARW9CP7A7W311CUSrOHRq3mqzVDIYqBAZInyzMvMCgon8vlAnrqH43gwGGgVPaFSKXS56FQBJLBcMlnsTi1RCKxncvlguSF8R5EjY1ltMO/nLmOxeN6MzJmvR0bGwu8pv8I5eiwRb1v356/DPT3RyTGJ37D4nDOwOFwD7FYtPrq5SubCEQCIjIq4kxMTMK+kJCQ7vsXEmxiPp+PaZZIYls72ufxeP6/kkg4xc3ruVubZbL4BQsWbdHrtfidO3df/OCD91d5eLBrL1/O3qnT6TzYbE+RzWaGIpEYKAwGtep0o86Dg0o/MpnUSiCQNFrtCJ2Aw2n5gqAjHI7PbZPJZIfBYMTr1699JW9rnRUeHr4vIirmm4edxFMp23TeBxuxrq7ORaVSJDY1NS9vlEgyV61+ej6dTq9+HAgBJevp6XyutqZ2iyfH63JkZNSfeTwe2IwPXVygMDAYzL21tSVLoRjIYLi4XvPy8bkeGDignAROYP3W19d7AKA+dfLkti/3fRaCo1DkQDb3AfQ43kzMETTLsoONodMNuhEIzqMAOCZ7tnR3d8Qj4XAWnkgpwuFwLVPNh0yGUTo6lFmNkqat3d1djOiYmA/j4nyPMRjBADyBvsEuXDi7oaGh4XUGnXEtJTX93ScFagBGKpUiBnhQ+fn5L0ZGRBwSRkZ/+r/tRQEg7enoiCmvLN9qg0BsoaEhB728uNlTzQOsDThQxOLaeYUFBdupFKeOhKT4rzw8PPMmAbC3txfX0tIYKqqp2+rBYuZ7e7OyCQRa51TPvl9f29vbMSpVf8jgoFpQJ6p7S6vVOiUlJGzh+PiedPQ54BkymSyit7d74e1bt14KDQ29mpSc+jUUCgU0yr8YEvf/PqAHAJ3JRCJHGMHBwOubxBnb999/t6NZKl0SJBAcXr+e+/m976X8o+/P/c8B+wOJRDI7O+XLujo6PAP5vAtcrls1k8nTTB5YYE/09/eH7tm98/bLG15+PSws8MrwsHlIKBROxqfGm7o97IAC69HU1EQd7O+PrBHXblAqlK7RMdHfeHv75gQGBg6AfQj2dnl5ua+0sWEpHA739fLx/dXNzU3E4XAAFfRPsQZwQJ06eeICFotRZWTO2hYVFQWA+j8SJ3MIqMEm/uabv+RQSJSB1PSUvcnJ6dU1NTXM2uqKJdU1ta9BIJCxsNDQ6xFRMV/fD9RgklVVVQgmk4kaGur36OtTc11cXMRIJNJ668a1LbLW1qTZc+a9azKN4ffs2TcB1K7i27dz30MiEVoeL/gSFosEwrIbDBZUZ6dc2NIiW8bn8467urqLBwcV4b3dPcHeXO8bwcFhvwIwAlZ1Ts6tD4qKCl+Li4n9LiNr9qePckunA8aP+yw4jMhksoder/cfG9MST544eTAzK+uj0NDwk49zF4EiKvv711XXVgPr8nJmZvj2qegSoJgWi8WjoUH8fGtLy4L4xIT3vby4RcDSmABfANTuJUUFL5w8deq9L/bsC0ISCPJ7IC2c7EL4DwP3fiWWyUR0vR4GBfx6X18fpq+vk9va0raW4829yGQyKx3h8sCay2Qyoqy5cV5xceluo8loW7psxRJ3d/dmJpNpAhaUtLH+lebmltdc3dyuxickve0oeDy4BmJxVaBGo/MlYgm6G7dv/tjb20tetfqZxQgEomwqMPl31r66utrTYrFQuzvbk5qapE+5urpWpmfO2s1mswGATGlBAe/ozu0bL5WUlr3r5+d3PT4h6W9RUVENeXl5EDqd7l5VWb7RYjUjhMLo74KD1V3T5d3b29sp7TLZXCcXiqy/RxF5/eb1T8NCQ49GRofs4fEi+hyZO9jzw8NKHh6B1Z29dPHHjo6OkKTklO8FAr+DoaExnY+bJ+DvAVVHIpE0TCYT0BkgzjJuHBw8eGBnCwDq4ODDzz3nvf9+r+5h4wJ7BBiFRUWF70FsNmxYSOhPPhRKFTgAwBjAfhgY6A7bs3vfnZc3vPxaaGjA5UmgBuAM9HEqLwIcLCCTLPdO3t+MRqNl1uy52/38/Ao5HI6mubmZ1tnZntzX05fA9fM+zOH4St3c3AwPm39jYyPtxPGjFzBYrDo9PfN9GAzW/J/SQ4eAGkzk22/+WuJEc2pITk7bnZqaWl9TU+Ok6OubffzksU/1eoProsWLX4+ICDzn5ydUTQgIJpfLUSaTiaDVaiFsNttgNBqtwP22WCzOl7Mvbmlrb4ufO2/BFqvVhN+7d9/Fd955e5W7O6M+N7fwTSbTvSEpKfX7kZEREBSAmkwmZFdXV3JtbfWzsbHRBwIDXavr6weSZM3SLGdnp5bI6LhDk3x1ft6dbXfz89+MjYs7OG/ego8dAZjHKS84eauqquCPEvqEBeEBg1lgWCzGcvrk2QNoNNqQkTXnHaFQ2PioZwMlk8tb19VU1bzF8vTMzszM+miqsQLF6+7uxvT39/tkXzh31tXVtTwxOX6/QCCUTAK1RCJxLy7Of+H4sRPvffnVfr7FAh+nPibcwftBGmRp/ANYgBWFRqtgvb0QMxaLdZO3yZ4ymExUPl/whSMu7z8ebLdDW1tbXRoa6pZcvHDxi5iYmG8ys5K+Uqn0KiwWC5XU121ubml5lcVkXRZGRr31JB5PR10dVWXRB1itMBiVSu1sbGyYd/bMma8XLViwlScIOeoon+oIaD34meLiYgGIz5hMo5Q7OXkfWS0WQkZW2utCYazEUWoCWF+3blz/ul3enhoXH/e3xMSUbywWC7qnoyOsXtLwamR0zCcYDKZpurIBuiqRVDH7etQLfHx9z+r1evSF82cvwGFwTUSU8NO0tKw8Rw4TYHzgcDi+k5NTu0alEp4+d+YHvV6PSk1L2xUYyD/+OH0A4IrFYok83j3LdyL7CIgR+uPBAzukzdKnBEFBR9au4+6DQKZufwwODUA9XL924xeOp+fpiKiwXwWCiA5Q+AziNwCod+/am7fx5Y0bg8PCrmg0muHpACTYU4ODUkJJiST55IlTvwLvIWtWxlcIBLZ+aEgR3NXVm+XsTBNxuf45HA7H/Kg1BjGno7+du4jF4YdTUtPeg8PhkumM43G66BBQAz7n0E8njxmMZsqs2Znb09PReXI5BwFKv6uqKpa3tbXOX7t81dPcYPMABHKPuB8YqMO1tWn4TZKmeQgUiuTuzrzh6+tbBoPBDGMqldPF61e39g8MxM+aPetdg8FM2L1758UtW7atYrFY9QUFd990cXFpSE1N/35gYMACNjeNRkNKJJLk0tKSNXFx8d95enqKm5oaZksaJEvwOJwsMTn1cxQKBYIIsOyL53c0Nja+EBIc/HVKWsaeJ7XYJgXXUFnJ1lmt1KioqLqHnc5NTU3uWq3KCYej9OJwOJuounLZjVu3dixfuvwFKAJx41EBCgDU7e2tz9VUV73B9uRkZ2bO+nQqoB43S+x2mFQqxdfXi9bdzbv74dx5czdzuf7nQYMrELyVSOjuJSVFLx47enTbnr37+XD4Q4F6/FEPCRzClRIJtl03HFVXJ36Xxwv8DI3GF0xX4QB1UllZHHjjes5fOjs7Itc//9xcLJZUAzJXGhsbXhPV1mz2cPe4GB0b//Z0wQgMXCISBWkNox40HFFix2A0JpOWeeL4mas4LLYvJS3jldjY2OonAWEQa9BqteiwsDBgcPyLddxbWYlrNxoT6HR6jclk0ldWlr/XKpMtDhaEHAjk838AaYpTWXCT4yoszI05e+b8ry7OLrKMrFkfUCiUkcb6+iw7xGqMiUs85erq+thg9MPmB8Y/ODAQD4HDkV5eXjkgs6eqqmJDRXn5Zq4P91xKWvoHU2VSTOgYtKKigufm5tZmMBiQTQ0NS6/duLaLRCSpMrJmvUWhUPIAvfAISgFQgTjAT08+a4L+gB488O2OlpaWJQJB0G8TQP1Q2uP+uQF9VyoluONHb3yhGdGERUZFfobB4M+DHvcSiQTR19cn3Ltn150NGzdsCAkJvzpdoJ4YI1wqleKuXbn0mVgsXpGanv5JRFDwxV61InBoaJjp4+N3OjQ09F/ojvvHKRKJ6GfPnMzG4wnDaekp70GhqPrp7ptH6axDQA1OyOrqyrfKy8reSEyI/zouIfkAl6vRy+qQjMb29uXlFaXLVq5asopAcBkPioC+Hk5OaKfq6sYlRYWFHzg5OUl7erp5vly/2zSaU++QZgRdVyd6CgGDG5etWLbBYNATdu/eexEEEzkcVv3duwVv0Wgu4oyMkB8ZDLWxqooIBX1CGhpEaTU1datjYiK/p1JJitLSqpdLS0peIBAI/auWr9zg4elZotEo2EePnDwGh8PxCYkJn7i6epz9d4Q1wRlGjI3p3V1cXM+CCPL9GxgAUm1tLcto1OKIRJoMWP8ajYb5ww8HchPi4n8KDg3/e2hoaM8jNhVaKm1cW1tT85onm52dnjlrlyNADZ4F1gSFQrG++Hx/UUpq6i/R0bHfBwYG9lRVVUHJSCTjblnJi8dPnHhv776dAigUM54iNRFAHNfLSY76IUANbW+vpzc3dz4lkUhWzp274JmAgIDeJwE9QKVIxG2LDx85fHD98+vX+vj4XYXBYFqJWPRKbV3dZjaLlS0ICXt7uuvT21uJGxiwp1itVgubTSw2GklWm82Gqa4s33wnN/eNrFmztgiFkUcdleXk3IDl1tHRlkkiEbo5HIqMTv/nKteJWISfxWKxurnZe4eGsBa1QpFVUFy0GYlCaBYvXrqJy+U+FOAfJj9gVefn5+3o7elNDAsPO+bj43td3ibL8g/kn+fxeE8UiGpqEnkNDKjnurgwzhGJxGHgkUIgBvaZM9lH0UgUJD0za0NERAQwOKbM5S4rK/Oj0+njaX16vZ5aXFy4qbqqcr2bq7ssc9bsF4hEYgePxwNg/S8HGjBC7j+AJy8E+f7773Y1S6VPhQQLpgXUAJA7O9uX3Lx569OIsLDDMfGJf/P29tbJZDJEV1cX4KhzN768cYMgNPQaAOpHHSKP9ZwrK5F3dcMJ3x84eD4sNCxbGCk8ZbfbzEQsUYPAYKqm0tNJoMbhCdqMjNStEAhSPNV3HN1XDgO1TqeLOHv61M9YHHYoITF+l4+PP3ChiDU1VUuLCgs/DgwIOIvD4Qw2iA1Ho7nUOjlRqvv7B6KuXrn6saurq2p0dBQvCAo67eTs3AX6U5eXla+22iywxYuXbjSbDYTdu/dc3LLl3VUeHq4NOTn5b7q6MuqzsmYfdHNzMwHwAUBdUVG6vKGhcXVUVPS3OByuq7q68sXysrL1FDJZuWTZkleZTE5JcWH+KwWFhVuCgoKOJ6ekfREeHi51xNV7lMBaWlqAC79oaEjtl5Ex+yPAswKXa9KSAIGlkRElHWVFGHlCYS8YK5VKxZ0/e+Zbg2HMPS4hfldqambuw8YAgKGpSfInUW3tqyw2+3JaWsZOR/n0SQpk9+4dDd5e3rXJKYl7YDB0LZgHmYxk5OQUvXj61Mltu3bvC4qOjm4HFzLweLzxSDjgifV6PQKLxVoetGbBc0UikW9zk2RdZ3d3xMqVqxc6OqYHZQiolIGBgdCffjx4OTEh4ceIqJgDKBRqQCSq3tRQ3/CKl7f3JR4vaMt0lbm2tjbMYjF6YrGEehQKNZ5+icfj4YODfYEnjp/K9mB6FEZGxnwKeF9HNwL4HKCwSkuLd5NIpDp/f84NHk/bez8/DObT19cXTKVSW20223j2A9xi8SquKHtV1toal5qW8XZGRkahowGkeznlikXI1FPUAAAgAElEQVSF+QU7iCSSUhgRtcdk0tMiIqIvuri4TJld8eDcADdsMBiCzGYDg8FwvwEMJnA4KyV0zI3Kio86OjsWefv4/BQZGf0XR7zMiooC74iIBLlMJkMCT7Wvr8+7vLRka2NT46xggeDU7PjE7UqTSecIKD4A1EtDggW/OmpRT1q81dXVfj/99MOlwICA4tS0pD1Go11GJpNhnZ2dIQCoX97w8ktBQSHXAwL6NY8KUD4WqO12WE1NjeuR3369TCISx9gczk1XV0YNh+NTyePxpuT2ZSIR/fA9i3okLT1za0REhNhRXZhKTx0CasBXubu7U65du/pBnaj2T66ubuJZszM/pdPdRUNDCv+mxuYlRAJBCZzyzq6eNDQGpQ0ICPgVBUNqJc2S5TaL3cZguLSxOT4Ver1ei8HAKZezr25SD6n9Fy5a+I5eP4a/Z1F/sIrDca/Py8t/28WFLgYcNaA+wGJYLBbC6dMnf6ypqfn/9kLGQaEw9OLgoJrZ3tYej8Gih4KC+Df6+5W+586e/RKHw+nmzZ/3AZ8fnO3t7Q3SeZ74zkVgFRYXVm3o6+/LzMic/VJ4eHgLAOp7FmkevKmWwjRAjEgCgTYAigJA4juHw0E0NUmeunH92s6kxMQveUEhhx/G6YGN3yCu/VN1jWgTm8W8DCzq6YAicAnff29rIRqDtqSkpOzx8GDf0Wg0NjQa7VpQcHfdmdOnt2//6M+xHh6eIOsDjrZYbCYkEqtSDXgZDEZ3KtX5SkRExD/lOYMNVVZWGC6pb3oD5My/Exk978HUqamUavJ9kMbWyKB4/frL0WtUKrU5Myt9G4lEk9bV1b7a2NCwwYPFyuZwvLdOpygJBOIUfX0LbFCrlk53L1UqleO9XQA9RobBiNl3bn/b398fk5qc/CEEjjwxnWcD2uBy9sXvkEgkLUQQ/IU/n17q4sIDwTArJC8P3uzuTlEqe7l+VHq9C483ns0AUk8lEvHK0uLSDX4B/lcSEpJ2cblcQH9MGVS8l58u4l7KvnBQo9GEJsTH7SJTqU0QCPz6dMY9SS+0ttYzVSotD43GtVsslvZ7weM8iERCh2lUqtSi0uIdNpttZPFTS9f6+fn1TrUvioqKPOPj4zuAdQyC0VgsFj3Q2xtfWl76gVze7v/UkqVbvbx8zvr79+kdCXiC+f7w/T2OOkggOLZunc9eRwEVfFcmk9G+/PLzErqzS3vW7Dnb0Wh0JcCGrq62oJ07dhe89OLLmwP5/BwczqrT6aBmGAxmNhqNxMHBwbG5c+eCYPuUL3DY3b59a19Ls3SeJ4edHxkZ+aOPj3+lI/tyEqhxOJwmLT1ra2RkJADqKT2XKQd1X9rMYz8L2pjK5XJEUVHBhiuXL+/A4/FDixYsetc3IOAqEqmD2WxkosFggEIgekhzc8eLnR0d/jw+77ifn1ueSmV1hUItKCyWpITBDFAslqY3mYbxly7eeKezqytx7ry5W8Y56l07Lmx7D3DUnLrcO7ffZbHZ4ri4hHGgptFocJPJRPv0k4+KR0dH2SHBIddnzcnaS6E4N1uteorVarFCoRBzXV3T6p8PHdolEAjqly1f+R6Hw8kBUeepFPJxkwcWc2VlGaBYXvXzDziVnJz6xdjY2CAIzA0M1GH6+mzuoNIvODgYuIhgc4LAIwwPh3scOvrbFR+ud25ERPg3QmEssOz/6cAAQF1fX7emtqZ6oyfb80pqeuZuRxTiH0Bot8P27t51CsgkMSFxvyA09Gpvb68ZiUQySkuL1x09cuTjT3d8kkAgUOToiYR0m82GVSi64b29g3IOh2N5EBDupSMVJeTm3v0EBoNb3n1365wnVTbwrPr6eua5s6evGE1GxOJ5C9dS6fQ6kajmlSZJ48tMpkf22nXPb5vO84Frr1Fr03BEciONRqt1c3MbLwwCMgdeV39/d+bJk6d+4gXwzsTExe9wxBKalCcoh8/NubUxv6Bga3RU1Am+IOQQi4VqZjCCjRKJBKPT6dyxWDgMiyWD/FngWUHB7UQEAiY6907ea0NDQ8xVq59ZhUAgFI7y7sCKv3nj2gGRSLQsIjLieIww6rvQyMjK6ersvTJzE29szOhJIlGL/LRaDeReLjG4QgkqdXOjlxQV7m1ra0uMS0gEBWWXpxpjefldVlRUctdEHjQUkpcH6eZySbVVVYtu59x+H43BmFesXLoOicTVB09kYUweGnJ5HtrLK/WfOloCsAVZH4D6EAQFHXtuPXfPdIC6Uywm7//+u3IXZ2dlYnLiNldXZimgGgFQf/LJzvyXXnrpTT7fLw+JJABQNlksFmNPT49l7ty54zriyAt4uWKx6IUTx4/v8g8IqJgzJ2uL0WgTO3JwjlMfZ09dwmGxwxNADSimKQ9sR8blkEVtt+cipFI3+rkzp/fKO+SpgbyASzEx0T+Ryc6qEZWKNTo2BnNjsTqcnMyDd+9K1mg0QyE+Pv7ZaWlp1yeBi0wmY2WypnQGg94Gh2NGcnPvbJa1SJMWLlq0xWwwE/bs23Ph3S3vrmax3Otu38x9m+7KqE9OTj0AwEQmk8ENBgPlzKmTRzTaEaqPl3d+lDDiGMXFBViKZMAZEgiE0YGBnqDz5y78ZXBw0DMrM2NHdGzCYR8fH1DK/cQW9Xg+aVNTcnF56XbFwEBgWHj4Z8HB/Gt4PKXTZrMhTSYTEYPB6Hg8Hsi7BOlAIBUJnP7w7Ozzfx/VjbEjIoXfenp6n39wY4BnS8SiZ6trazY9CVCDBd69a8dJk9kELJ/PQLL/0NCQBWE2u+SXla0/euzI9s8+3xuGQhHaGQwIxGx2sgHO8nEbFIBrcXF+YlFR8ScWs9WaNWv2nOlSE/crHsh1vnjx3Dn9mN5pwZx5ayguLiKxWLSpXlz/sieblf2n59YDoHZImQFVYLdbFhkMRh8ynlgHR6NrwMUSoCLKZDIhoFAoemxs2PnmjTvZCARcFxMbvS0xMRUUPDlk1YD1GB5WBpw7e/7w8NCwW5gw7ASHwz3DptEazSiU1aDVslB4fKdCoRhJSUmZfCasrq7Orb6u9pmy8vJNCxctfCUoKCSXwWCAfPgp9Q4AbElR4Y6ioqK3vLy9q1YuWrzU/xExjcdtaBDQHlapkiBwKA2HI1wDXuXY2JiZSCTaDQYDHMhGJKp5CXgyNGfnvIzMWa8EBAQ8tnlZeXk5KyoqCgD1/RdNQyWSKo+ykuo/3cnN3RIWFnZ29px5n1GpVPlk2hrwwOl0OubBTpaTQA3S8wQCwbGg4FBQhPPQgOSDcwVjaGurIn391aEKMpmkmj1n9vtUqkvRPaDuCtq189O7gPoICfG9icMxRoGB9yR6Cw6l7OzzS347/NvfOZ6clmUrlrwUHZ1Q7chaisVixulTxy/hcLihrLTMLWFRUcCidki3pwJrh4D6Xq5iz+xjx04c9OZ45WRkpe4hEJzUHW1tCSVlpa/AYFA74JxCwiKuAc5aqVTEEgjEIm9vbh4KhQJZCiYKBWXKvnDtr95c7jkPD3ZNdXXlCw3i+sS58+dsNZvthP379lx4/Y3Xn3VxcW6rqal9E4NCtyYkpXwHg8EGgNtFIBAwcrk8yWTSuzg7OzVjsWjl4OCwX3dnVzQahRoO4QVlU93ceutqajIvZJ//u5ube3lGZtqOh5VETyWUB98HealtbS2ZJ0+c+NRoNDH5QfyLAp7gOgKN0KLRuEE6ndButaIHeTzevVJVCAQGOOHuzs4lN2/e+JTHC7wSFRO39/7+H0Dx5HI5ehKoWWzPq+npmdOiPsA4t7zzdgEejzcnJiTu8+Jy74LKQwDUBZXl644fO7Z93/7PA4VCIegN4VBjJjCuysqSyIqKqi39fQP0pcuWz5mM3k9XbuDzUmmtx6XsG6cgEIg2NS15C6A+GhrEm2qrq1/29va+uGbtuvccVWZwi1Bba8t2u83uhMFhpUgksgMCsWvtdpsJDkFALHaLHQaDwqSNTZsaJI1JQQL+LykpGR88WMb+uHmA4HF5ecmCwsLCj7QjWveAgIAKVzr9LN2F0YzEYqFubm51CARCC9K0JtdaKpVi+/t7Mq5dvbqDznC7s3Dhog9BxZoj8wJ7q0ki+VPOndtfYTAY9VtvbwhnMh9eVv6ocQNwKS0tnTeoGFiKIxBsGAwaZKSMIBDwUYjFrjfb7XYMBgnt7+0LbJI2b+jv7yOtXLV8IYXiUvW4Q7u6usgzPDwepMH90wscmBAIJODmjWufVlZWzlmydMnHQmHwCQSC0Ac8DaDXWq0We3+F66SlffDggV1SqXRZiEBwZLpALZPJnP/y9Zel4Jq/ubPnvA+foD66u9sFu3buyd2wccNLYWERV729vUF2xhMBJDhM8u/cSfjl8K8gGC1b9NSSN6OiosZjP1O9xoH69InLOCxWPQHUD80Sm+o5D3vfUaAm3Llz86M6kXh5alrqnpSU9N9UKpVbRVnxUomk8TkSiSxisZhdwsjQ71tbO1ML8/PfVSiVTCQSqbXb7WY+n1+XkJj8fl5ezpf+vr6nPFjuRSUllc83N0uTlj21dJtOryXs3/fZ+TffenNtf/+Ab2lJ6ctmswmblpp6MCYu4bOgoEEVBJIC3Nvx8QohEEg11MwtyC9+vbi4eI2LC31g8VML3+FwuFcgEAjp5PFjB5SDyvjYmLjdK1e7HXCEP3uc8CbT4UZHR73Ky4ufu371xlooDIp1cnIyBvICQQ+EU1wWp8aOQvWhUCjzZBUgHg/3OHH87FE0GqOPT4jdnpSUVj55+zp4Jsgz/3eAGmzQ59c/J/Pz9atOTE7ZS6fT68BvWywWemV56bqjx45t/3Lvfn5IVFTr/QHQqeYqFov9wEFaXla2dP3zL2ZERESA7z/Rq6GhgX3xwrmLbE/Pa+HhEQftdnufTNr4alVNzctcH58La9aue99Ri7e6uix2cFD1NAqBUqJQSBkUDtfZ7bbRe7m6cBMMZoXB4Qi7TjPKycnN+RyLxQ3OSs9YGzGNVD1wUA0MDODkcrmPSFTzXHFR0eqRkREaSP0UBAWVBYeGHHJ3Z9VRqdQ+GAxmBAcjDoeDDQ4OcosK7r5VJxZnvvnWO3EYDEbhSMAOrGHu7duL8/Lz9hgMBtNrm99IYrFY02pSBQyJ3t6uNTrdmIBMJjUgoHCl3qTXIpEIA2hAZLVaoRAIAmLW6+Hyzo7llZWVK4KDBT/Onjv/Izc3N1A48lDLH2R9REdHNz9s4cEBMzY25nf4l5/PjGhHaCtXrXzDx8fvhp+f3xBIc4PD4Rgul6u+f22BbH/44fu90qam5UECwW/r1vnsmA71UVdXyfv+wI83uL7csvj4pA+jEYgW2f8EE0HByyYeT3CZx+OBtgpPCtRQkaiCd/S3E4cYroyG9IysTx1pgjXRJoBx8sSxyzgsTp2VnvFu2CPSeZ9kIzkE1G1tbYzvvv3bRSwOO5iamvKVl5dv0fDwsKusuXHpufMXtmEwGFx0VNS++MSonzEYLKpd1u1vtoHuanagABYUCjVCpTo3Xb925aCAzz/pG+Bbcvt23vPSJknS3Hlzt9ntdsLuXXvOv7Z583PKAUUcDAbDqdVqDwKJJElLS/8c3OoCovqTfCTg3GopWK+c23ffKCgsXE93cel7ds0zG9zd2XeJRCLi3Lkzn4JuZRGRkX+LjY3fNRUX54jggDvn7+8PuseR1OoBemtL21x5R0f84OBgkF6vBxy9iUGntwkjI096MdmFZGdnENCx5eXmfCmXy1P5Qfxv09IyDzIYDMCZjxcB/DtADeIGtaWlzK+++6YwPi7uUEJSyk96vX48Mg046qqKsvWHf/vtz198+XVgeHg46EPhkPt/LwDIcKmvr1t74fz5D59d8+yznp7eV59EhgCE6qur/c5mX7iQkJi4g8XyvG6xWEaam5teq62p3uDt7XPhT2vXOcRRA1pCLm/bRiaQqtE4XPlE1ZvpASCAg4uSYTAY9m5uzq7W9vb5AX5+f4+IitnrCGhO6gFYm+7ubrTBYCAYtVp3SXNTVn19w7MGowGmVCrdAGgz6PTuAH//sz5+Pvnu7tQ2gwEFl4hFC3797be/vPjSi2sDAvh3HuxL8TA9A79VWJiXVVxUsstgMMDWL1+ZzppmN8GG2tqoUZPBD43GdjghEA0QEkl/f2xmUtdA4zKlsi+ssqJ6W29vj9/qp5/NQCAQPY9a29LS0uCYmJi6R+2PexV9nbG//nLouLePd39KYsqH/GDGzb4+GxKBQKCNRqP6fvrhf4BaujJIEPTrNIEaceHCubW3b93aFxUZ+V2CIOQLb6FQBzKYBgYGwiZKyF8VCEKv+Pn5gQPiiYG6rq7O4+yZU4ecXejN6XHx+/kOdB6818620fXEsaOXcXi8Oist/Z3w6GiRI9jiyGccAmq5ROK2/29/ucX2ZDemJCR/QaRSqzEYDFbZ2ysoKC18qUPeGb9y1fKnnZwYDTSLxT6EQmEQCATMZDKBlppQwCGi0Wj8mTOnDvlwOCdZHO/ikqKC53t6+xJnz5n7wfCwCv/F51+c3/7RR+skksbwgf6+yNHRUSbXl3s7KSl1P4jcaoYGfbh+gefuBXHy4J2d3sTaqqplVTXVz+CwmObZc+d/YrFYFO7u7sjrVy9/VFpW9pIwIuLbhISkT58EZB4U3mR1IogyQyAQkG+bBA4iuB1mN9stRLV6KLCrsyNOMaCkWW1WIseTUxPACzin0Yywq6uqNtGcaA0LFi1+TafTdd/r5pUH6+7mIutqqp6pFtW+wmayrqZlZDmUnjdZpl2Un/diZXX15rT0tK0J/rzLLjzFePCmrs7JFQD1kaNHP/zs8y954eHhDufkgmAKCoXCyWTSlAvnL/yVQqY0rFi1eq3gvsZKjigW+AzIoujp6UyvrKjcnpaeucnV1VUEOPTmpqbXxPXijSw266IjWR/A1UYg7EHKgcFFTDbnGAKB6Jiq54hOp8koLSnbB4HYDfPmz1otEEzPKwBLC0AA9I5Rqwf8NBqtN5VK6RkdHWMMDQ1zOtrlMSPaER+rzWqju9Abvby9cvEYvPbSlUtfMRiMO5lZs7dptdreqYJQQK8KCnJTi4tL9ptNZuSy5StTH9VR72FyB7KxWk2gbB5Kp5OLRkYsykfpO5hTY2MjvUXa+HTOnTvbsjJnfeTr738KWMEPHuST2T8xMYlVj1rve7xxGyk3N+e1kuLiLT4+3OLMrPQd40F+rRaJplLV9xfXTHDU+5qlAKgFPwcHh+50hKO+d3BKKEePXDgyOjrqFxcb8+cJLDCDimGtdki4a+fuW5s2bNosCA29PJ1c9oft89a6Ouej58/+4kSjtafHJ+7nhYf/C/3zsO81NjYyThw/egWHx6mzUjPe/q8DNahhP3bkt+MmswmfnpG+y8uLmwMs3OHhAQ+xuHGZqLZ2wbr1L67gajQDwBUBkwAuOI+nsE0Wq6jVatql7Is/g2wQDodZmp9fuL6ttT1p4fyFH2i1Wvy+z/ad//DPH66BQqHDOt0o02q14Og0ejPDndbY2d4bJW2Rzl++YtULTCYTROARoKdHU1NDVnOzbA6FRG6MS0g4CPJGAVCfP396d0O95FnQ6nTtWq99/y718Q9LKzcXIedwEHa7nTzQ0yOgupBakUiCGgYbgRqGIZQhvdZHpVKzlUoVX6lURI6NjWE9WezexqbGZGBJzp4z+3Vvb99rXC7XOpkbPg7UtbWvslmsK44CNeBRZTJZwLWrV35jMOjiqOiIfbGxSeLJIhYQ3KooK1l/8tSpD/fu28kLD49tdSQYAjaeUiLBG0kQ1OiojVmQX7Q5Nzd3+dOrnn46JDz8znQyUoDMQBe/trbW1ywmIyY4NHy/yWRSgHhDd2f7W/UNkpc9mO4Xo6Litk51kDY0NDgND6s3ouDIegqNluvr6ztlqhXgxivLRTtkra2zBMHBH7PZnF+mG1wCXktHR6PLiErvboPDDSDljUwmI8bGxkg63RBLrRwOGBhUCPr7+4IgdgiVTCIPKRQDHp1dXU4vvPj8cg6HWzWVzMYt6ry8tILiwi8AUK9YtTpxOkAtE4tZav3oHCwW3UMgUEDPF1C2/cggJtCd1tbWqPy7ud9ZrTbb4nnzlxFpNPmD1YrgwFYrFOGAB36c3IDONDWJfC9cuPx1f19/crAg+HhEWPh3SBxOZTabBx+oToT98MP3n0kbm1YGBwsOBQWHfuoIUIMxi8XitIL8uz9zfXwuBQWHfCUUCsfL9e/vnrdpw6Y3gsPCsv9doAaNs06fOvkbhUzqSE1P2M3nT93Le4IedT125LcrExb1W/91oAaCun718oelZWVr09LTvxYKIw+aTCYD6OQGgodtra3LFixc/DSDAVGoVAjoJE8LgmuTaVOjo6PUM6dP/RocJDjqxmRWlpWVPNcslSbNm7/wA5vZTNy5e+fZt995ezWPJ8i3Wq3jbgsooNHpdMTW1ua51VXVSzdsfGWxQqFgajQaV9DoXjnQF97V3R3i6+d7k8v1/xV8B4VC0Y8fP/KzelDNTk1N27Fw8eJjT+oGPeTURHR3dyMHB/v8DQYD3smJIfXz8wO9lMc3BrDAgKcxMjICOnKF9/b3JfX09Pj39fdlDQ0NwRISEr6bM3f+hzqdbry0lkqlIqqqKp4BlYksNvtaenrmx1NtbLCBRtVqT6m8/aXS0uIlszJmbfP09s4B7U4n0gNB+S4oIV9/5vTpD/bt38UPD3es3eJkjwaQIYDBYGxymSz6zPmz37i5uUlT05Lfi49PqXIE8MHcQAtSq9WUJGuWLfbm+h5yd3cXg6wAkM42NKR6s1EiecXN3fVSYmLqO4+zjoF7PTamjVYoBuew2Z6fO5puB3S2vl60oqa6ZjsajWmfM3feyun2/7hXdVrmrdfbXGg0WrNWq9VM9EsZT8MEXOzo6ChDrVaG9Pb2xygVAwKlctC3pKTYe9PGVzbzBYJTU10gATZ40d276UVlxV8a9AbU8y+sjptOMLG2qmqWDWpjYrFoGZnsXDFVNeY4sNbWetY1N224cf36pvXPrX+B6ux8+35e916/EAluVKMJdmOxaqbSyfHmYkplZv7d3ANWi9UpPDzsgK9/4BEWC9Pm4sIDXRPHW5xO9Pr4qkkqXRUsEPwUFBz60VRADSgvnU7ndTfvzv6REQ1XGBHxMZfrf32yPgL8tm54OGLX3t03N23c8HZQcBhopfBP3PhjPAJQxIORSqUm4PlMZGxBm5qaKKdPnzhGIpA6Mmcl75wWUB/97SoOh1dlpaX/94EaKGxeXk7m0SNHf+R4ckSJ8Qm72d7e1SC3WSwWLSssKHgnKjrqryQSSWe3QywedNcaF3f3BlDFNwnUY2MqpzOns3/mBwUBi7r8bm7B+na5PGn2nFnvIaBIwofbPzy/ZeuW1WFhEdflcrkuJSVlfHEbGxtdpNLGBdVVlctf2/zsU5WVbalDQ8ORNpudoFIq3GwQuyUyLOIklki8wWaz0bk5N1fk3Mndx+Fw8rLSMvZMJ5A0lUsPlILBYBA7OlqFZDKxm0Zz63jUxgCfpVDQri0tnelVlZWvi8XiUB8fn9aVq55eDNqFAlcVix2BV1V1rikrLX3D18//amZwyJ8ZwcGPTOsCfSaGsFiOvK0lQ9rcvNqV4ZoXGh7xPQjQTfaYAMoGgLq8vPT548eObfvs8y8FjnDU4HttbW1Eo3GEjkDgQUm2EoEwU8rLa1eJReKNTs7ON+Pi4v8OApZT8b2Az6fg8UHaMV2q1W7Xcrl+Ryc3O9ClS5cuvglk4slhX8nMnPPmo4Dg3sGB8FMoVAsIBHxjRET0ZYe59ntgE1xSUvhJU2NT3IqVy1dFRsaCalqHuPpJ6kaj0XChUCgKXBH3qIY893KYIa4Dvb0RonrRwsuXLq1JSUm9nJ6RtYtMJtdOkQ4JLykpyMi/W/CVVqdDb9iwKdLRYCKglhSKvpVkMlmHwxEbiCZTu4sD/aJBUYd2aCj2yPGjx4MFwTfjE6N3QiBo2WQ5+CRQj4yMhPj4kEQuLjwQsH1sqiGoNygvL32luKjoPQKBAImLjfnUL4D/s19v7zDk3l4e38/fH/j2b62trU8HCwQHhZHRoK3vQ0vQwYEilUoJFovFWywWPTU4qFzEYbF/5voHZgcEBIDbg8bbhwIdGR0djfzk4+3XN23Y8J5vAO+i2WwecMR7Ap6azWbDG43G/nsH8HifHBgKhSIfP3b0uBOV2pGQlLz9US0g7scLILPmZpHbsaNnLoP0vNkZWe8ET6P/91TY4xBHDR4CJnXt6uXPW1tbU/38/G5Gx8T9CoOB2Ep/ZElx8XsIBNJss9uhJAJhODCAdzhU6HuRKVOMVBHv9elQqVRO169f/SUgIOAYm80py8+/+2J7a2vSvAVz3xsdGcN9+fWX5ze/vnl1eHjkNZBeM5n61NhYRW9p6lzUIKlfvnzl6qcGB/vDuzo6Ay0WKxFit1vobq6dGAxeTCajxpTK4bBbN2/v0AxrnDJnZe0ICgo+4YibPJWQwPsAYGQyGV6pVAYNDanCOBxvcEnCY7nfyWyRwcH+mJKS0o8HlYP8pOTkN8PChCfBM41GI6qiogwo9zvePt75KSnpbzo7O/eDopXJxueAgwOpiUajkWw0jrI1Q5okhVIZjkZhRHEhIQd7tVrNAwEbwEMy8+7cfuXU6dNv7d23K5zNxslAX4qHNQyamBcCZMtoNKowIFdw2wUSiewEhwkGYyFev5r3SrtcvoTFZIm8fLzOUqkkKYHgpAR0zv0gBACay0UjVSqE9+ioQWCz2ayurh6gGdc/qAoQrDzW2/NRXV3t5kD/wJup6ZEvKZXjZcj/6KEyEUEHKWBOGo061m63M9Fo3PeObL771xKU/4NOfXfz87d6cbxOz1+Y/AqHE/pYamDy+2AuSCQ01jhmYlJopGYSiVb/uANqMt1SpVJ5FBbc3SWXy6Pnzp77Z38PjytsgQBkIRab+aQAAA3iSURBVDwU6ADQDA4OLLybd/eAzWYzP7fu+WBHqY/c27efsdqsiXRXRhmVSqw0GGyAu5+SFrrHVdcwr1y5eaRD3hG0aMGC1724ftftdrsGVFUCahEKhdIG+rpnuXmwb/r7+4MagSkPOImk0i03t/jryorKFZ4cz5YVK57KHBuz9U621wUeZ27u7UPiOvHK4JDQkxkZmW+A3i+gmlarBRdZQCBMJhPEBTAm0wh1ZGTMu61NngSHw6IoFOo5JpN9BRSb3a8HoEipuqIibdeeXac2btiwMzI6/CyZTO+aDNo/bG+DfQlKxQ0GnS8SidBTKC4iMIbJ5m89PT1uJ48fPUV1onWlpWe8AVowTIURgCZrqq1l/vTbrzkYDHpk4aKFm6KiTBX/KdrVYaAGilhUVMS7c+fWJ/Xi+gwWiyWKiY05RqVSOmxmO3ZEq/WiuTh1urrSpTAYus9utxuRSCQMBBVhMB3UOGzDX7h29e9sDvsYl+tVXnC3+KXWNlnSwkVLtoyMDJG+/urrs2++9ebTAkFoDkjUB4Kh0+2m4WE0WSyuXdDQ0LB8zZrnlg4NDY3hcDjnoSGlr9lsRtvtcC0ejaaIxOLIu/l5m00mEy49I2P7nOTU4+wnbCb0sEWZuFKJWSeq2Tw2NhYYFR2xJTIybsrKo8kG/IODAzG1NbUvQSFQW3xi0joSiWS1WEbI167k7C8rL1/jQndRJiUkv+/lw8yFwbCjIGMEjwfNcGBEvV7LNBhMwQN9fQIIDGL18fE5TiRSyx4GHAAIK/BI/9yc/K23c26vfn/b+0/R3Sh1WCzaqNfDzHA4HJTVgjJzmNVqRWJtNqQeBkMrlf3RQyrVc3g8od7Ty+ezycj5ZE+Rxsb6+dWVVRu1Op07i8lq9/LxyqGRnUrxZHS3yQQbM5vNTmMjIz4mm4WDRCINBAKpQigU/kvGQEtLKenWzYpvxWLxMk9Pz4Z5WbPXQFAoNUgjQyAQZnA1GBgXBGJwMhisXIvFQqTT3S450vHtwXUDFqdYLHruTk7OZ+B6s2fXPDOfyw2omYoemLDU3JqbJJ8YTEZXLtfnIIvllePIGIB1DUDuwoVzP3t5eeUHBPBA1zUQI3hoFgJw7cvLS1+9k5PzIR6P1z39zIrkiIj4KdMhAbVUUVGag8VgGV4czmG6q/tpu93+2IsdHjzEqqsrN588cWLL7Dmzb0eGCncxmMzxSk9A6QwM9ERWV9duDwkJ+4xGo+U5kks/noNfUhJ5Oy/nc4vFwlm4aH6m2QxtmwRqmUzmlH3x/EmRSJTq7eXVEpcQ96qnp3sDDIYH2TtQo9EIA3dx6nTDdK1mJHREpwvFYrBqZxenQ954SpvrRDe+++cBrv2S1NetP3rs2J9XLF/xS5gw9GcSyUlutVpBTMGoVquNE975ePUqEolEabVapkYztMpoMGC9fbwuu7uza0dHR8ev/AOZPmJx7Zzr165/TiGTu+fPmbchKT0dpNU+9gXWXaMZ5B89cjwPg8FoFsxb8ArV2fmOI3Kb6tngfYeBesKqhEok1T75ecV/up2T88LY2JgbDocbhsFgELlcTnlqyVOnZs3K3I/BEKUGg8FboegPt5qtOBgU2uvGZDbk3L7xHdfX75gvx7v8TkHuy7KW1oS58xa8YzSOEnfv2nNhy9YtaykE8nB7V0c4yPRgMj2KORxWg0TSnNzS3Lzs2TVrl6tUoL+TJvHC+YtfSaXSYCQSOQaBQmGa4WGMv7+/eOlTS3d4envnTpePnEpYYEMNDQ15N0kanrPbbXD/QP4vQqGwwRH+G1hnAQEBVJlMFt3d3TkrLEz4JR6P7zcah52bJLI5HZ1dsSgUCs1kseoYTs53kTicAlRbIhBWuNUIcVNp1CwClqCmkcmtFjh8ANzR9rhrn+qrqrxl8rb5Xd3d3GBByFU8idSFRqPHTCYTcBdBD4TJWyeQODgcbYZZiAMDqkytZiTIxdnlWkJyMihQ+acXsPzAAalU9qe2ydqWaHU6DwqVrCLgCQoEEqkAebMIBEKPxxPPxsfHP5LLBkUrrS1NCzu7e2NIBHxfUDA/225HqMGYQGwCY7PZzUgk3GazGUkk9ciDZchTrdP97wMXf2hoMKm5qflPeoMeGhEmPIwhEBwCHVFFhX+zvG2FzWLBsznel1xdXascAepJd3xkZChrZHg4iOPNyQ0JiQAl4Q8FanCBrU6jSW9pk6XhsZgBvwD+aUfy1kHnPbG49hs0GkNlebhn011p1zmcgI6pKIpJ+QCg12hUCWKxZI2Hu5ua6eZxikChiPz9/fWdnWJiV9dQbKus9Vm2J/scne52/cEqw0etA7Asy8rKQoaH1Xwfn/HAOcgJH6c9Wuvr3WsbG5/pV/QJSSTKiJsbo5TBcC+Fw+F6sPYmkwlvNusZMDucjsVgFCgcTkIikYYfd7CKSkuZvUODC8V14iQen19KpzuXY7HEASQSqQeXAJjNZiMWi7XC4XCoXq+H2+123NjISIh6ZDgSDof1env73sZgMP0cjtwCaA84HO4sl7emt7d3BODx2C5/L+6dqIQEcPfhY6mfiYufA8vLi19EIjFGPj/oNBaLFf//AtSTiwPKgvv6+nz7+nr8VSpVQG93j8+d3DuLlixZmp2alv4pm0rtqGpq+NOd3LzXQV+QwUElMzIi8mB9ff3quNjYzxnuzMr8/LuvqgaV/ssWL3l1eGSEsXvv7kuvvvbqq4r+gcCe3r5ozYiGi4DDdU5OtDo7xO4Kg8K0a59bt8jb23v02rXLK8+cPvO1TqejgEAik8mqYLkzmxjuzvUUCh1cWzSl+zedDT/5WQDW4CIEkG74sLsKH/dMYFk3N1dRR0dhdND5z9/fH+SAAvDDjY2NYbBYmx0KtRhVKuvogy7+5J1zjhwK/zPWGorBgIGTyWT9RP75Pzr+PWyc4/y7yYRgxsYaH/c7oMWoSoUm2mw2HLjM2WSCQREIhAFYEd3d3WNTpaOB354sMaZS9TY3N+FDb8t4kvV52HdAUHF4eJg8YWhoebyp+daJz8LaqqqIoygUSDPVTZd2AUUoQ0NDZDLZNuzj88+Nrx4cJ7BEQTMv8P//r717j2mriuMATnvb9UF7e2GUFkqArq3KpNAWDEtLtE0XA5otOF9ZdH/4j/oH0T/NTEzQZEt8/GNCpjGZTHAmPvjDGMMGgRXi6G6hPFo2GOpaHhFshNW1BVrGxZwFTIMyC8PsLvnyJ7mP3/2c09+995xzz8nEb3P/oaEhNS0WS8U0HS8uvhHb6Ws2eUsUCAQqMsyUTIOQ3ldAEg9FUZLt1vC8a12/dEkUyM2VbE1Sm8P5OO7PfSsrYiH5Ylkmky2RZoe0Tlpy6DsjxzJpbiHbbTxEKVUqFTne6nYrsGzGTH5Pfr9fotFo1kk/2tbzkGsnHzGFw+F/zIVzt+smnmSqC6l0lROJcmKZ3tgzqes7eqJOP+DGj43muOWcxcUE3dba0k7Tqmj9U3Un9XrTMMt6X/P52EaFPHvuRihU6bA7Pl9JrtD2Q/azsaWYuNfjeUsgEK4/9/yLJ6LRP0o/eP/Djrr6+pZUKqm5uXizdH5+/hGKojitVjOYp1YvMLSKtdiqz5Amg46OH0+NDA8fLztY1mm3H2qmKGmErOxMkt9/3fkyQcE2EIAABPgksOtEnX4RZNKmzz691sT6fI2H3e6PHzWXfTU7O1ceCoWe4da4ZDKZlNosti+y5fJbcloa9XoHTgQDgZeKioq6jxxteDORSJS0tbacz8oSMHq9vpMSCVOJ+FKOVqOZKSzQDWTT9AJNS+dEInkoFouZ29u//XKd44SOWkdTQ8Oz32R65+UTPGKBAAQgkKnAniRqcjKWZavPtZz9mkwwXmWzNR8sr+iPx6P7VpdXqRw1syCRKMbJsJfx8bGn+3r73hZSwrjL5WpSq7UdSqVSNcD2v3zhYue7RpPR+5Dx4QsFOu0YwyimGEYzQ15B8vPzSUdDaU9P1zujI6PHrFbrd05X7SmL5d/nIsgUANtBAAIQ4LvAniVq0j7zU5/n5KDf/4aIEsXNFeZWg9HgUSqZWdJRsLy8vH92OmwPjAVfTcQT8ipb9RmX2/2JXq+Pboyo0HR3d340eX2y1mQydVlt1h8UCtkvUqkkvrbGSaLRmGFkJFB/fWL8FZ2uaOjxJ5zvud3uLjxN872KIT4IQOBeBfYsUZNAyDR/Xu/lxr7e3tdTqRRdQD56KdQNkqkn5+d/N8/MzpgZhok6amubLRZbm9lsvrOMEvkjYxtZljV4erpPB4JBl0wmvVVYoL2Wk7v/t8RSnJkKT9dEIpFio9F4ue7JutPllZWeTIZZ3SsQ9ocABCBwvwX2NFGTiyHDryYmrh72XfEdC14dcwZGR9UqlSrrwAHDVFWVrb/6sZrzJSUlV7Yb1D/S368L/jp5fHDA/0IwGKiYnp6W5OXlZRkMhp/tDsf3DkfNudu3hZM77YW/39A4PwQgAIHdCux5ok5/QibzOjidzr//lWkzxeZwJdIuvbFWmyASiXBkVQ2M6thtUWM/CEDgQRX43xL1gwqCuCEAAQjwTQCJmm8lgnggAAEIbBFAokaVgAAEIMBzASRqnhcQwoMABCCARI06AAEIQIDnAkjUPC8ghAcBCEAAiRp1AAIQgADPBZCoeV5ACA8CEIAAEjXqAAQgAAGeCyBR87yAEB4EIAABJGrUAQhAAAI8F0Ci5nkBITwIQAACSNSoAxCAAAR4LoBEzfMCQngQgAAE/gIB+K+MdJONAAAAAABJRU5ErkJggg==;" vertex="1" parent="1">
          <mxGeometry x="70" y="610" width="164.55" height="30" as="geometry" />
        </mxCell>
      </root>
    </mxGraphModel>
  </diagram>
</mxfile>
